{"glyphs":{"0":{"ha":792,"x_min":64,"x_max":726,"o":"m 394 -15 q 153 70 242 -15 q 64 303 64 156 l 64 669 q 153 899 64 814 q 394 983 242 983 q 637 899 547 983 q 726 669 726 814 l 726 303 q 637 70 726 156 q 394 -15 547 -15 m 394 153 q 494 191 457 153 q 531 293 531 229 l 531 675 q 494 777 531 739 q 394 815 457 815 q 297 777 333 815 q 260 675 260 739 l 260 293 q 297 191 260 229 q 394 153 333 153 z "},"1":{"ha":471,"x_min":40,"x_max":394,"o":"m 185 967 q 214 972 197 972 l 371 972 q 394 949 394 972 l 394 24 q 371 0 394 0 l 222 0 q 199 24 199 0 l 199 781 q 196 788 199 785 q 189 789 193 790 l 67 764 l 61 764 q 40 785 40 764 l 40 890 q 58 917 40 911 l 185 967 z "},"2":{"ha":778,"x_min":57,"x_max":721,"o":"m 86 0 q 63 24 63 0 l 63 140 q 75 169 63 156 q 196 297 132 226 q 282 390 260 367 q 378 496 346 463 q 504 704 504 636 q 469 784 504 753 q 379 815 435 815 q 289 784 324 815 q 254 701 254 753 l 254 674 q 231 650 254 650 l 81 650 q 57 674 57 650 l 57 732 q 104 865 61 807 q 219 953 147 922 q 379 983 290 983 q 551 947 478 983 q 663 847 624 910 q 703 708 703 785 q 674 589 703 650 q 586 457 644 528 q 394 247 531 389 q 329 178 393 246 q 326 172 325 175 q 333 168 328 168 l 697 168 q 721 144 721 168 l 721 24 q 697 0 721 0 l 86 0 z "},"3":{"ha":750,"x_min":46,"x_max":690,"o":"m 663 464 q 690 317 690 400 q 665 178 690 243 q 553 39 631 89 q 368 -11 475 -11 q 183 42 263 -11 q 68 185 103 94 q 46 294 51 228 q 69 318 46 318 l 219 318 q 244 294 242 318 q 258 233 247 261 q 299 177 271 197 q 367 157 328 157 q 474 225 444 157 q 493 322 493 267 q 471 429 493 382 q 365 494 440 494 q 301 468 340 494 q 288 464 293 464 q 268 474 276 464 l 194 572 q 189 589 189 579 q 197 606 189 597 l 414 794 q 417 801 418 797 q 410 804 415 804 l 89 804 q 65 828 65 804 l 65 949 q 89 972 65 972 l 654 972 q 678 949 678 972 l 678 813 q 665 783 678 796 l 483 618 q 489 607 475 610 q 663 464 610 583 z "},"4":{"ha":840,"x_min":46,"x_max":775,"o":"m 751 424 q 775 400 775 424 l 775 274 q 751 250 775 250 l 701 250 q 693 242 693 250 l 693 24 q 669 0 693 0 l 521 0 q 497 24 497 0 l 497 242 q 489 250 497 250 l 69 250 q 46 274 46 250 l 46 374 q 51 403 46 388 l 299 954 q 326 972 308 972 l 485 972 q 506 956 506 972 l 503 944 l 275 433 q 282 424 271 424 l 489 424 q 497 432 497 424 l 497 596 q 521 619 497 619 l 669 619 q 693 596 693 619 l 693 432 q 701 424 693 424 l 751 424 z "},"5":{"ha":749,"x_min":61,"x_max":703,"o":"m 682 443 q 703 311 703 375 q 681 183 703 240 q 568 42 649 94 q 379 -10 488 -10 q 194 41 274 -10 q 81 179 114 92 q 61 249 68 207 l 61 254 q 83 274 61 274 l 238 274 q 264 254 257 274 q 271 235 265 250 q 312 179 283 199 q 379 160 340 160 q 442 177 415 160 q 482 224 468 194 q 493 250 493 249 q 503 307 503 278 q 490 383 506 346 q 451 439 481 419 q 379 458 422 458 q 316 446 344 458 q 272 407 288 433 q 244 389 263 389 l 85 389 q 61 413 61 389 l 61 949 q 85 972 61 972 l 644 972 q 668 949 668 972 l 668 828 q 644 804 668 804 l 265 804 q 260 801 263 804 q 257 796 257 799 l 256 594 q 258 588 256 589 q 265 589 261 586 q 408 628 329 628 q 578 578 506 628 q 682 443 651 529 z "},"6":{"ha":746,"x_min":58,"x_max":700,"o":"m 667 471 q 700 311 700 408 q 674 167 700 231 q 561 38 638 85 q 381 -10 485 -10 q 196 40 274 -10 q 83 176 118 89 q 58 313 58 238 l 58 731 q 98 863 58 806 q 208 952 138 921 q 371 983 279 983 q 531 952 461 983 q 638 865 600 921 q 676 735 676 808 l 676 703 q 653 679 676 679 l 504 679 q 487 683 493 679 q 481 694 481 688 l 481 708 q 450 785 481 754 q 371 815 419 815 q 287 784 319 815 q 254 704 254 753 l 254 576 q 257 569 254 571 q 264 572 260 568 q 414 619 322 619 q 563 581 497 619 q 667 471 629 543 m 483 221 q 504 308 504 257 q 482 400 504 364 q 381 456 447 456 q 276 399 306 456 q 256 306 256 363 q 274 221 256 256 q 379 160 304 160 q 483 221 451 160 z "},"7":{"ha":689,"x_min":28,"x_max":669,"o":"m 181 0 q 163 8 168 0 q 163 28 158 17 l 458 794 q 453 804 461 804 l 196 804 q 188 796 188 804 l 188 740 q 164 717 188 717 l 51 717 q 28 740 28 717 l 29 949 q 53 972 29 972 l 646 972 q 669 949 669 972 l 669 819 q 664 790 669 806 l 367 18 q 340 0 361 0 l 181 0 z "},"8":{"ha":751,"x_min":51,"x_max":697,"o":"m 667 428 q 697 283 697 367 q 665 142 697 203 q 552 30 628 71 q 374 -11 476 -11 q 199 28 275 -11 q 85 144 124 68 q 51 285 51 210 q 83 429 51 363 q 154 510 110 478 q 154 521 163 517 q 90 590 117 549 q 57 717 57 646 q 103 868 57 803 q 215 958 143 926 q 375 990 286 990 q 551 953 476 990 q 663 842 625 915 q 694 715 694 781 q 660 593 694 647 q 593 522 632 553 q 593 511 585 518 q 667 428 642 481 m 265 763 q 251 693 251 735 q 271 619 251 650 q 313 580 286 593 q 375 567 340 567 q 483 621 451 567 q 501 694 501 651 q 488 760 501 733 q 375 822 456 822 q 309 806 338 822 q 265 763 281 790 m 475 203 q 501 303 501 243 q 488 375 501 343 q 444 426 472 408 q 375 444 415 444 q 267 376 300 444 q 251 300 251 343 q 274 207 251 244 q 375 154 307 154 q 475 203 442 154 z "},"9":{"ha":738,"x_min":38,"x_max":679,"o":"m 654 796 q 679 660 679 736 l 679 242 q 640 109 679 167 q 529 20 600 51 q 367 -11 458 -11 q 207 20 276 -11 q 99 108 138 51 q 61 238 61 164 l 61 269 q 85 293 61 293 l 233 293 q 257 279 257 293 l 257 264 q 288 188 257 218 q 367 157 318 157 q 451 188 418 157 q 483 268 483 219 l 483 396 q 481 403 483 401 q 474 400 478 404 q 324 353 415 353 q 174 391 240 353 q 71 501 108 429 q 38 661 38 564 q 64 806 38 742 q 176 935 100 888 q 357 982 253 982 q 542 933 464 982 q 654 796 619 883 m 461 574 q 482 667 482 610 q 464 751 482 717 q 358 813 433 813 q 254 751 286 813 q 233 664 233 717 q 256 572 233 608 q 357 517 290 517 q 461 574 432 517 z "},"\r":{"ha":278,"x_min":0,"x_max":0,"o":""}," ":{"ha":278,"x_min":0,"x_max":0,"o":""},"A":{"ha":932,"x_min":38,"x_max":892,"o":"m 710 0 q 683 19 690 0 l 644 149 q 636 156 643 156 l 296 156 q 288 149 289 156 l 249 19 q 222 0 242 0 l 61 0 q 43 8 49 0 q 42 26 38 15 l 338 953 q 364 972 344 972 l 568 972 q 594 953 588 972 l 890 26 q 892 18 892 24 q 886 5 892 10 q 871 0 881 0 l 710 0 m 336 317 q 343 307 335 307 l 589 307 q 596 317 597 307 l 471 740 q 466 746 469 746 q 460 740 463 746 l 336 317 z "},"Á":{"ha":932,"x_min":40,"x_max":892,"o":"m 710 0 q 683 19 690 0 l 644 149 q 636 156 643 156 l 296 156 q 288 149 289 156 l 249 19 q 222 0 242 0 l 61 0 q 43 8 49 0 q 42 26 38 15 l 338 953 q 364 972 344 972 l 568 972 q 594 953 588 972 l 890 26 q 892 18 892 24 q 886 5 892 10 q 871 0 881 0 l 710 0 m 336 317 q 343 307 335 307 l 589 307 q 596 317 597 307 l 471 740 q 466 746 469 746 q 460 740 463 746 l 336 317 m 396 1056 q 375 1071 375 1056 q 379 1083 375 1078 l 447 1210 q 475 1226 456 1226 l 615 1226 q 631 1222 625 1226 q 636 1211 636 1218 q 631 1197 636 1204 l 542 1071 q 513 1056 531 1056 l 396 1056 z "},"Ă":{"ha":932,"x_min":40,"x_max":892,"o":"m 710 0 q 683 19 690 0 l 644 149 q 636 156 643 156 l 296 156 q 288 149 289 156 l 249 19 q 222 0 242 0 l 61 0 q 43 8 49 0 q 42 26 38 15 l 338 953 q 364 972 344 972 l 568 972 q 594 953 588 972 l 890 26 q 892 18 892 24 q 886 5 892 10 q 871 0 881 0 l 710 0 m 336 317 q 343 307 335 307 l 589 307 q 596 317 597 307 l 471 740 q 466 746 469 746 q 460 740 463 746 l 336 317 m 464 1021 q 349 1060 397 1021 q 292 1161 301 1100 l 292 1164 q 315 1186 292 1186 l 371 1186 q 396 1164 390 1186 q 422 1124 403 1140 q 464 1108 440 1108 q 508 1124 489 1108 q 533 1164 526 1140 q 558 1186 539 1186 l 614 1186 q 632 1180 625 1186 q 638 1163 639 1174 q 579 1061 628 1101 q 464 1021 531 1021 z "},"Ǎ":{"ha":932,"x_min":40,"x_max":892,"o":"m 710 0 q 683 19 690 0 l 644 149 q 636 156 643 156 l 296 156 q 288 149 289 156 l 249 19 q 222 0 242 0 l 61 0 q 43 8 49 0 q 42 26 38 15 l 338 953 q 364 972 344 972 l 568 972 q 594 953 588 972 l 890 26 q 892 18 892 24 q 886 5 892 10 q 871 0 881 0 l 710 0 m 336 317 q 343 307 335 307 l 589 307 q 596 317 597 307 l 471 740 q 466 746 469 746 q 460 740 463 746 l 336 317 m 379 1040 q 351 1056 363 1040 l 264 1188 q 260 1201 260 1196 q 265 1213 260 1208 q 279 1217 269 1217 l 379 1217 q 407 1201 396 1217 l 458 1122 q 463 1118 460 1118 q 469 1122 467 1118 l 521 1201 q 549 1217 532 1217 l 647 1217 q 663 1213 657 1217 q 668 1201 668 1208 q 663 1188 668 1194 l 572 1056 q 544 1040 561 1040 l 379 1040 z "},"Â":{"ha":932,"x_min":40,"x_max":892,"o":"m 710 0 q 683 19 690 0 l 644 149 q 636 156 643 156 l 296 156 q 288 149 289 156 l 249 19 q 222 0 242 0 l 61 0 q 43 8 49 0 q 42 26 38 15 l 338 953 q 364 972 344 972 l 568 972 q 594 953 588 972 l 890 26 q 892 18 892 24 q 886 5 892 10 q 871 0 881 0 l 710 0 m 336 317 q 343 307 335 307 l 589 307 q 596 317 597 307 l 471 740 q 466 746 469 746 q 460 740 463 746 l 336 317 m 276 1051 q 261 1056 267 1051 q 256 1067 256 1060 q 261 1081 256 1074 l 358 1215 q 388 1229 368 1229 l 538 1229 q 567 1215 557 1229 l 667 1081 q 672 1067 672 1074 q 667 1056 672 1060 q 651 1051 661 1051 l 549 1051 q 521 1067 532 1051 l 469 1146 q 463 1150 467 1150 q 458 1146 460 1150 l 407 1067 q 379 1051 396 1051 l 276 1051 z "},"Ä":{"ha":932,"x_min":40,"x_max":892,"o":"m 710 0 q 683 19 690 0 l 644 149 q 636 156 643 156 l 296 156 q 288 149 289 156 l 249 19 q 222 0 242 0 l 61 0 q 43 8 49 0 q 42 26 38 15 l 338 953 q 364 972 344 972 l 568 972 q 594 953 588 972 l 890 26 q 892 18 892 24 q 886 5 892 10 q 871 0 881 0 l 710 0 m 336 317 q 343 307 335 307 l 589 307 q 596 317 597 307 l 471 740 q 466 746 469 746 q 460 740 463 746 l 336 317 m 332 1051 q 261 1078 289 1051 q 233 1149 233 1106 q 261 1219 233 1192 q 332 1247 289 1247 q 402 1220 375 1247 q 429 1149 429 1193 q 402 1078 429 1106 q 332 1051 375 1051 m 599 1051 q 527 1078 554 1051 q 500 1149 500 1104 q 527 1220 500 1193 q 599 1247 554 1247 q 669 1220 642 1247 q 696 1149 696 1193 q 669 1078 696 1106 q 599 1051 642 1051 z "},"À":{"ha":932,"x_min":40,"x_max":892,"o":"m 710 0 q 683 19 690 0 l 644 149 q 636 156 643 156 l 296 156 q 288 149 289 156 l 249 19 q 222 0 242 0 l 61 0 q 43 8 49 0 q 42 26 38 15 l 338 953 q 364 972 344 972 l 568 972 q 594 953 588 972 l 890 26 q 892 18 892 24 q 886 5 892 10 q 871 0 881 0 l 710 0 m 336 317 q 343 307 335 307 l 589 307 q 596 317 597 307 l 471 740 q 466 746 469 746 q 460 740 463 746 l 336 317 m 536 1083 q 540 1071 540 1078 q 519 1056 540 1056 l 403 1056 q 375 1071 386 1056 l 286 1197 q 281 1213 281 1204 q 300 1226 281 1226 l 440 1226 q 468 1210 460 1226 l 536 1083 z "},"Ā":{"ha":932,"x_min":40,"x_max":892,"o":"m 710 0 q 683 19 690 0 l 644 149 q 636 156 643 156 l 296 156 q 288 149 289 156 l 249 19 q 222 0 242 0 l 61 0 q 43 8 49 0 q 42 26 38 15 l 338 953 q 364 972 344 972 l 568 972 q 594 953 588 972 l 890 26 q 892 18 892 24 q 886 5 892 10 q 871 0 881 0 l 710 0 m 336 317 q 343 307 335 307 l 589 307 q 596 317 597 307 l 471 740 q 466 746 469 746 q 460 740 463 746 l 336 317 m 283 1061 q 260 1085 260 1061 l 260 1169 q 283 1193 260 1193 l 644 1193 q 668 1169 668 1193 l 668 1085 q 644 1061 668 1061 l 283 1061 z "},"Ą":{"ha":946,"x_min":40,"x_max":892,"o":"m 710 0 q 683 19 690 0 l 644 149 q 636 156 643 156 l 296 156 q 288 149 289 156 l 249 19 q 222 0 242 0 l 61 0 q 43 8 49 0 q 42 26 38 15 l 338 953 q 364 972 344 972 l 568 972 q 594 953 588 972 l 890 26 q 892 18 892 24 q 886 5 892 10 q 871 0 881 0 l 710 0 m 336 317 q 343 307 335 307 l 589 307 q 596 317 597 307 l 471 740 q 466 746 469 746 q 460 740 463 746 l 336 317 m 863 -231 q 846 -254 863 -249 q 767 -267 806 -267 q 684 -247 719 -267 q 635 -179 649 -226 q 631 -146 631 -162 q 707 -10 631 -72 q 736 0 718 0 l 807 0 q 826 -11 826 0 q 815 -28 826 -19 q 760 -114 760 -76 q 761 -125 760 -121 q 807 -157 771 -157 q 826 -154 813 -157 q 836 -153 831 -153 q 856 -171 851 -153 l 863 -226 l 863 -231 z "},"Å":{"ha":932,"x_min":40,"x_max":892,"o":"m 710 0 q 683 19 690 0 l 644 149 q 636 156 643 156 l 296 156 q 288 149 289 156 l 249 19 q 222 0 242 0 l 61 0 q 43 8 49 0 q 42 26 38 15 l 338 953 q 364 972 344 972 l 568 972 q 594 953 588 972 l 890 26 q 892 18 892 24 q 886 5 892 10 q 871 0 881 0 l 710 0 m 336 317 q 343 307 335 307 l 589 307 q 596 317 597 307 l 471 740 q 466 746 469 746 q 460 740 463 746 l 336 317 m 464 1036 q 353 1081 399 1036 q 308 1190 308 1125 q 353 1300 308 1256 q 464 1344 399 1344 q 574 1299 529 1344 q 619 1190 619 1254 q 574 1081 619 1126 q 464 1036 529 1036 m 464 1125 q 510 1144 490 1125 q 529 1190 529 1164 q 510 1238 529 1219 q 464 1257 492 1257 q 417 1238 436 1257 q 397 1190 397 1219 q 417 1144 397 1163 q 464 1125 436 1125 z "},"Ã":{"ha":932,"x_min":40,"x_max":892,"o":"m 710 0 q 683 19 690 0 l 644 149 q 636 156 643 156 l 296 156 q 288 149 289 156 l 249 19 q 222 0 242 0 l 61 0 q 43 8 49 0 q 42 26 38 15 l 338 953 q 364 972 344 972 l 568 972 q 594 953 588 972 l 890 26 q 892 18 892 24 q 886 5 892 10 q 871 0 881 0 l 710 0 m 336 317 q 343 307 335 307 l 589 307 q 596 317 597 307 l 471 740 q 466 746 469 746 q 460 740 463 746 l 336 317 m 558 1056 q 513 1065 533 1056 q 467 1090 493 1074 q 436 1108 447 1103 q 413 1113 425 1113 q 361 1089 381 1113 q 342 1076 353 1076 q 329 1082 335 1076 l 281 1115 q 269 1135 269 1124 q 272 1147 269 1143 q 325 1216 292 1193 q 399 1239 358 1239 q 442 1231 422 1239 q 489 1207 463 1224 q 556 1182 532 1182 q 603 1207 585 1182 q 621 1219 611 1219 q 635 1214 628 1219 l 685 1181 q 694 1161 694 1174 q 686 1138 694 1150 q 627 1076 661 1097 q 558 1056 593 1056 z "},"Æ":{"ha":1333,"x_min":44,"x_max":1281,"o":"m 1281 828 q 1257 804 1281 804 l 824 804 q 815 796 815 804 l 815 583 q 824 575 815 575 l 1101 575 q 1125 551 1125 575 l 1125 431 q 1101 407 1125 407 l 824 407 q 815 399 815 407 l 815 176 q 824 168 815 168 l 1257 168 q 1281 144 1281 168 l 1281 24 q 1257 0 1281 0 l 643 0 q 619 24 619 0 l 619 147 q 611 156 619 156 l 332 156 q 322 150 324 156 l 257 17 q 229 0 249 0 l 65 0 q 44 17 44 0 q 47 28 44 24 l 517 956 q 544 972 524 972 l 1257 972 q 1281 949 1281 972 l 1281 828 m 406 317 q 411 307 401 307 l 611 307 q 619 315 619 307 l 619 728 q 616 735 619 733 q 610 731 613 736 l 406 317 z "},"B":{"ha":861,"x_min":85,"x_max":793,"o":"m 663 508 q 658 503 658 507 q 663 497 658 500 q 793 272 793 432 q 701 69 793 138 q 461 0 610 0 l 108 0 q 85 24 85 0 l 85 949 q 108 972 85 972 l 450 972 q 779 706 779 972 q 663 508 779 565 m 289 804 q 281 796 281 804 l 281 582 q 289 574 281 574 l 450 574 q 551 604 515 574 q 588 688 588 635 q 551 773 588 742 q 450 804 515 804 l 289 804 m 461 169 q 561 202 525 169 q 597 292 597 235 q 561 381 597 349 q 460 414 525 414 l 289 414 q 281 406 281 414 l 281 178 q 289 169 281 169 l 461 169 z "},"C":{"ha":844,"x_min":65,"x_max":786,"o":"m 426 -11 q 236 31 318 -11 q 110 150 154 74 q 65 326 65 226 l 65 647 q 110 824 65 747 q 236 942 154 900 q 426 983 318 983 q 615 944 533 983 q 741 831 696 904 q 786 663 786 758 q 764 647 786 650 l 615 638 l 610 638 q 590 644 590 638 l 590 653 q 545 771 590 726 q 426 815 500 815 q 306 771 351 815 q 261 653 261 726 l 261 318 q 306 201 261 246 q 426 157 351 157 q 545 201 500 157 q 590 318 590 246 q 597 330 590 325 q 614 333 603 335 l 763 326 q 786 319 786 324 l 786 313 q 741 143 786 217 q 615 29 696 69 q 426 -11 533 -11 z "},"Ć":{"ha":844,"x_min":65,"x_max":786,"o":"m 426 -11 q 236 31 318 -11 q 110 150 154 74 q 65 326 65 226 l 65 647 q 110 824 65 747 q 236 942 154 900 q 426 983 318 983 q 615 944 533 983 q 741 831 696 904 q 786 663 786 758 q 764 647 786 650 l 615 638 l 610 638 q 590 644 590 638 l 590 653 q 545 771 590 726 q 426 815 500 815 q 306 771 351 815 q 261 653 261 726 l 261 318 q 306 201 261 246 q 426 157 351 157 q 545 201 500 157 q 590 318 590 246 q 597 330 590 325 q 614 333 603 335 l 763 326 q 786 319 786 324 l 786 313 q 741 143 786 217 q 615 29 696 69 q 426 -11 533 -11 m 358 1067 q 338 1082 338 1067 q 342 1094 338 1089 l 410 1221 q 438 1238 418 1238 l 578 1238 q 593 1233 588 1238 q 599 1222 599 1229 q 593 1208 599 1215 l 504 1082 q 475 1067 493 1067 l 358 1067 z "},"Č":{"ha":844,"x_min":65,"x_max":786,"o":"m 426 -11 q 236 31 318 -11 q 110 150 154 74 q 65 326 65 226 l 65 647 q 110 824 65 747 q 236 942 154 900 q 426 983 318 983 q 615 944 533 983 q 741 831 696 904 q 786 663 786 758 q 764 647 786 650 l 615 638 l 610 638 q 590 644 590 638 l 590 653 q 545 771 590 726 q 426 815 500 815 q 306 771 351 815 q 261 653 261 726 l 261 318 q 306 201 261 246 q 426 157 351 157 q 545 201 500 157 q 590 318 590 246 q 597 330 590 325 q 614 333 603 335 l 763 326 q 786 319 786 324 l 786 313 q 741 143 786 217 q 615 29 696 69 q 426 -11 533 -11 m 342 1054 q 314 1069 325 1054 l 226 1203 q 222 1217 222 1211 q 227 1228 222 1224 q 242 1232 232 1232 l 342 1232 q 369 1217 358 1232 l 421 1138 q 427 1133 424 1133 q 432 1138 431 1133 l 483 1217 q 511 1232 494 1232 l 610 1232 q 625 1228 619 1232 q 631 1217 631 1224 q 625 1203 631 1210 l 535 1069 q 507 1054 524 1054 l 342 1054 z "},"Ç":{"ha":844,"x_min":65,"x_max":786,"o":"m 786 656 q 764 647 786 650 l 615 638 l 610 638 q 590 644 590 638 l 590 653 q 545 771 590 726 q 426 815 500 815 q 306 771 351 815 q 261 653 261 726 l 261 318 q 306 201 261 246 q 426 157 351 157 q 545 201 500 157 q 590 318 590 246 q 597 330 590 325 q 614 333 603 335 l 763 326 q 786 319 786 324 l 786 313 q 702 93 786 179 q 478 -8 618 7 q 475 -19 467 -11 q 531 -136 531 -75 q 526 -169 531 -153 q 477 -237 513 -217 q 394 -257 442 -257 q 315 -244 356 -257 q 299 -217 296 -239 l 306 -161 q 335 -144 310 -139 q 354 -147 349 -147 q 400 -115 390 -147 q 401 -104 401 -111 q 326 -3 401 -60 l 317 1 q 133 115 200 29 q 65 326 65 201 l 65 647 q 110 824 65 747 q 236 942 154 900 q 426 983 318 983 q 615 944 533 983 q 741 831 696 904 q 786 663 786 758 l 786 656 z "},"Ċ":{"ha":844,"x_min":65,"x_max":786,"o":"m 426 -11 q 236 31 318 -11 q 110 150 154 74 q 65 326 65 226 l 65 647 q 110 824 65 747 q 236 942 154 900 q 426 983 318 983 q 615 944 533 983 q 741 831 696 904 q 786 663 786 758 q 764 647 786 650 l 615 638 l 610 638 q 590 644 590 638 l 590 653 q 545 771 590 726 q 426 815 500 815 q 306 771 351 815 q 261 653 261 726 l 261 318 q 306 201 261 246 q 426 157 351 157 q 545 201 500 157 q 590 318 590 246 q 597 330 590 325 q 614 333 603 335 l 763 326 q 786 319 786 324 l 786 313 q 741 143 786 217 q 615 29 696 69 q 426 -11 533 -11 m 426 1054 q 361 1079 386 1054 q 336 1144 336 1104 q 361 1210 336 1185 q 426 1235 386 1235 q 491 1210 467 1235 q 515 1144 515 1185 q 491 1079 515 1104 q 426 1054 467 1054 z "},"D":{"ha":858,"x_min":85,"x_max":796,"o":"m 108 0 q 85 24 85 0 l 85 949 q 108 972 85 972 l 449 972 q 631 935 553 972 q 753 832 710 899 q 796 678 796 765 l 796 294 q 753 140 796 207 q 631 37 710 74 q 449 0 553 0 l 108 0 m 281 176 q 289 168 281 168 l 456 168 q 559 211 519 168 q 600 326 599 254 l 600 646 q 560 761 600 718 q 454 804 521 804 l 289 804 q 281 796 281 804 l 281 176 z "},"Ð":{"ha":929,"x_min":85,"x_max":867,"o":"m 519 972 q 702 935 624 972 q 824 832 781 899 q 867 678 867 765 l 867 294 q 824 140 867 207 q 702 37 781 74 q 519 0 624 0 l 179 0 q 156 24 156 0 l 156 426 q 147 435 156 435 l 108 435 q 85 458 85 435 l 85 544 q 108 568 85 568 l 147 568 q 156 576 156 568 l 156 949 q 179 972 156 972 l 519 972 m 671 646 q 631 761 671 718 q 525 804 592 804 l 360 804 q 351 796 351 804 l 351 576 q 360 568 351 568 l 463 568 q 486 544 486 568 l 486 458 q 463 435 486 435 l 360 435 q 351 426 351 435 l 351 176 q 360 168 351 168 l 526 168 q 630 211 590 168 q 671 326 669 254 l 671 646 z "},"Ď":{"ha":858,"x_min":85,"x_max":796,"o":"m 108 0 q 85 24 85 0 l 85 949 q 108 972 85 972 l 449 972 q 631 935 553 972 q 753 832 710 899 q 796 678 796 765 l 796 294 q 753 140 796 207 q 631 37 710 74 q 449 0 553 0 l 108 0 m 281 176 q 289 168 281 168 l 456 168 q 559 211 519 168 q 600 326 599 254 l 600 646 q 560 761 600 718 q 454 804 521 804 l 289 804 q 281 796 281 804 l 281 176 m 332 1047 q 304 1063 315 1047 l 217 1194 q 213 1208 213 1203 q 217 1219 213 1215 q 232 1224 222 1224 l 332 1224 q 360 1208 349 1224 l 411 1129 q 416 1125 413 1125 q 422 1129 419 1125 l 474 1208 q 501 1224 485 1224 l 600 1224 q 615 1219 610 1224 q 621 1208 621 1215 q 615 1194 621 1201 l 525 1063 q 497 1047 514 1047 l 332 1047 z "},"Đ":{"ha":929,"x_min":85,"x_max":867,"o":"m 519 972 q 702 935 624 972 q 824 832 781 899 q 867 678 867 765 l 867 294 q 824 140 867 207 q 702 37 781 74 q 519 0 624 0 l 179 0 q 156 24 156 0 l 156 426 q 147 435 156 435 l 108 435 q 85 458 85 435 l 85 544 q 108 568 85 568 l 147 568 q 156 576 156 568 l 156 949 q 179 972 156 972 l 519 972 m 671 646 q 631 761 671 718 q 525 804 592 804 l 360 804 q 351 796 351 804 l 351 576 q 360 568 351 568 l 463 568 q 486 544 486 568 l 486 458 q 463 435 486 435 l 360 435 q 351 426 351 435 l 351 176 q 360 168 351 168 l 526 168 q 630 211 590 168 q 671 326 669 254 l 671 646 z "},"E":{"ha":811,"x_min":85,"x_max":760,"o":"m 760 828 q 736 804 760 804 l 289 804 q 281 796 281 804 l 281 583 q 289 575 281 575 l 579 575 q 603 551 603 575 l 603 431 q 579 407 603 407 l 289 407 q 281 399 281 407 l 281 176 q 289 168 281 168 l 736 168 q 760 144 760 168 l 760 24 q 736 0 760 0 l 108 0 q 85 24 85 0 l 85 949 q 108 972 85 972 l 736 972 q 760 949 760 972 l 760 828 z "},"É":{"ha":811,"x_min":85,"x_max":760,"o":"m 760 828 q 736 804 760 804 l 289 804 q 281 796 281 804 l 281 583 q 289 575 281 575 l 579 575 q 603 551 603 575 l 603 431 q 579 407 603 407 l 289 407 q 281 399 281 407 l 281 176 q 289 168 281 168 l 736 168 q 760 144 760 168 l 760 24 q 736 0 760 0 l 108 0 q 85 24 85 0 l 85 949 q 108 972 85 972 l 736 972 q 760 949 760 972 l 760 828 m 350 1072 q 329 1088 329 1072 q 333 1100 329 1094 l 401 1226 q 429 1243 410 1243 l 569 1243 q 585 1239 579 1243 q 590 1228 590 1235 q 585 1214 590 1221 l 496 1088 q 467 1072 485 1072 l 350 1072 z "},"Ě":{"ha":811,"x_min":85,"x_max":760,"o":"m 760 828 q 736 804 760 804 l 289 804 q 281 796 281 804 l 281 583 q 289 575 281 575 l 579 575 q 603 551 603 575 l 603 431 q 579 407 603 407 l 289 407 q 281 399 281 407 l 281 176 q 289 168 281 168 l 736 168 q 760 144 760 168 l 760 24 q 736 0 760 0 l 108 0 q 85 24 85 0 l 85 949 q 108 972 85 972 l 736 972 q 760 949 760 972 l 760 828 m 333 1060 q 306 1075 317 1060 l 218 1208 q 214 1222 214 1217 q 219 1233 214 1229 q 233 1238 224 1238 l 333 1238 q 361 1222 350 1238 l 413 1143 q 419 1139 415 1139 q 424 1143 422 1139 l 475 1222 q 503 1238 486 1238 l 601 1238 q 617 1233 611 1238 q 622 1222 622 1229 q 617 1208 622 1215 l 526 1075 q 499 1060 515 1060 l 333 1060 z "},"Ȩ":{"ha":811,"x_min":85,"x_max":760,"o":"m 760 828 q 736 804 760 804 l 289 804 q 281 796 281 804 l 281 583 q 289 575 281 575 l 579 575 q 603 551 603 575 l 603 431 q 579 407 603 407 l 289 407 q 281 399 281 407 l 281 176 q 289 168 281 168 l 736 168 q 760 144 760 168 l 760 24 q 736 0 760 0 l 517 0 q 510 -3 511 0 q 514 -10 510 -6 q 567 -125 567 -64 q 563 -158 567 -142 q 513 -226 549 -206 q 431 -246 478 -246 q 351 -233 392 -246 q 335 -206 332 -228 l 342 -150 q 371 -133 346 -128 q 390 -136 385 -136 q 436 -104 426 -136 q 438 -92 438 -100 q 378 -4 438 -53 q 368 0 374 0 l 108 0 q 85 24 85 0 l 85 949 q 108 972 85 972 l 736 972 q 760 949 760 972 l 760 828 z "},"Ê":{"ha":811,"x_min":85,"x_max":760,"o":"m 760 828 q 736 804 760 804 l 289 804 q 281 796 281 804 l 281 583 q 289 575 281 575 l 579 575 q 603 551 603 575 l 603 431 q 579 407 603 407 l 289 407 q 281 399 281 407 l 281 176 q 289 168 281 168 l 736 168 q 760 144 760 168 l 760 24 q 736 0 760 0 l 108 0 q 85 24 85 0 l 85 949 q 108 972 85 972 l 736 972 q 760 949 760 972 l 760 828 m 231 1068 q 215 1072 221 1068 q 210 1083 210 1076 q 215 1097 210 1090 l 313 1232 q 342 1246 322 1246 l 492 1246 q 521 1232 511 1246 l 621 1097 q 626 1083 626 1090 q 621 1072 626 1076 q 606 1068 615 1068 l 503 1068 q 475 1083 486 1068 l 424 1163 q 417 1167 421 1167 q 413 1163 414 1167 l 361 1083 q 333 1068 350 1068 l 231 1068 z "},"Ë":{"ha":811,"x_min":85,"x_max":760,"o":"m 760 828 q 736 804 760 804 l 289 804 q 281 796 281 804 l 281 583 q 289 575 281 575 l 579 575 q 603 551 603 575 l 603 431 q 579 407 603 407 l 289 407 q 281 399 281 407 l 281 176 q 289 168 281 168 l 736 168 q 760 144 760 168 l 760 24 q 736 0 760 0 l 108 0 q 85 24 85 0 l 85 949 q 108 972 85 972 l 736 972 q 760 949 760 972 l 760 828 m 286 1068 q 215 1095 243 1068 q 188 1165 188 1122 q 215 1236 188 1208 q 286 1264 243 1264 q 356 1237 329 1264 q 383 1165 383 1210 q 356 1095 383 1122 q 286 1068 329 1068 m 553 1068 q 481 1094 508 1068 q 454 1165 454 1121 q 481 1237 454 1210 q 553 1264 508 1264 q 623 1237 596 1264 q 650 1165 650 1210 q 623 1095 650 1122 q 553 1068 596 1068 z "},"Ė":{"ha":811,"x_min":85,"x_max":760,"o":"m 760 828 q 736 804 760 804 l 289 804 q 281 796 281 804 l 281 583 q 289 575 281 575 l 579 575 q 603 551 603 575 l 603 431 q 579 407 603 407 l 289 407 q 281 399 281 407 l 281 176 q 289 168 281 168 l 736 168 q 760 144 760 168 l 760 24 q 736 0 760 0 l 108 0 q 85 24 85 0 l 85 949 q 108 972 85 972 l 736 972 q 760 949 760 972 l 760 828 m 418 1060 q 353 1085 378 1060 q 328 1150 328 1110 q 353 1215 328 1190 q 418 1240 378 1240 q 483 1215 458 1240 q 507 1150 507 1190 q 483 1085 507 1110 q 418 1060 458 1060 z "},"È":{"ha":811,"x_min":85,"x_max":760,"o":"m 760 828 q 736 804 760 804 l 289 804 q 281 796 281 804 l 281 583 q 289 575 281 575 l 579 575 q 603 551 603 575 l 603 431 q 579 407 603 407 l 289 407 q 281 399 281 407 l 281 176 q 289 168 281 168 l 736 168 q 760 144 760 168 l 760 24 q 736 0 760 0 l 108 0 q 85 24 85 0 l 85 949 q 108 972 85 972 l 736 972 q 760 949 760 972 l 760 828 m 490 1100 q 494 1088 494 1094 q 474 1072 494 1072 l 357 1072 q 329 1088 340 1072 l 240 1214 q 235 1229 235 1221 q 254 1243 235 1243 l 394 1243 q 422 1226 414 1243 l 490 1100 z "},"Ē":{"ha":811,"x_min":85,"x_max":760,"o":"m 760 828 q 736 804 760 804 l 289 804 q 281 796 281 804 l 281 583 q 289 575 281 575 l 579 575 q 603 551 603 575 l 603 431 q 579 407 603 407 l 289 407 q 281 399 281 407 l 281 176 q 289 168 281 168 l 736 168 q 760 144 760 168 l 760 24 q 736 0 760 0 l 108 0 q 85 24 85 0 l 85 949 q 108 972 85 972 l 736 972 q 760 949 760 972 l 760 828 m 238 1078 q 214 1101 214 1078 l 214 1186 q 238 1210 214 1210 l 599 1210 q 622 1186 622 1210 l 622 1101 q 599 1078 622 1078 l 238 1078 z "},"Ę":{"ha":811,"x_min":85,"x_max":760,"o":"m 760 828 q 736 804 760 804 l 289 804 q 281 796 281 804 l 281 583 q 289 575 281 575 l 579 575 q 603 551 603 575 l 603 431 q 579 407 603 407 l 289 407 q 281 399 281 407 l 281 176 q 289 168 281 168 l 736 168 q 760 144 760 168 l 760 24 q 736 0 760 0 l 492 0 q 482 -4 486 0 q 419 -93 419 -53 q 421 -106 419 -101 q 467 -137 431 -137 q 486 -135 472 -137 q 496 -133 490 -133 q 515 -151 511 -133 l 522 -207 l 522 -211 q 506 -235 522 -229 q 426 -247 465 -247 q 344 -227 379 -247 q 294 -160 308 -207 q 290 -126 290 -143 q 344 -10 290 -64 q 347 -3 349 -7 q 340 0 346 0 l 108 0 q 85 24 85 0 l 85 949 q 108 972 85 972 l 736 972 q 760 949 760 972 l 760 828 z "},"F":{"ha":778,"x_min":85,"x_max":758,"o":"m 758 828 q 735 804 758 804 l 289 804 q 281 796 281 804 l 281 583 q 289 575 281 575 l 579 575 q 603 551 603 575 l 603 431 q 579 407 603 407 l 289 407 q 281 399 281 407 l 281 24 q 257 0 281 0 l 108 0 q 85 24 85 0 l 85 949 q 108 972 85 972 l 735 972 q 758 949 758 972 l 758 828 z "},"G":{"ha":843,"x_min":65,"x_max":785,"o":"m 426 -11 q 238 32 319 -11 q 110 152 156 75 q 65 331 65 229 l 65 642 q 110 821 65 743 q 238 941 156 899 q 426 983 319 983 q 613 942 532 983 q 740 828 694 900 q 785 669 785 757 l 785 667 q 761 643 785 643 l 613 643 q 595 647 601 643 q 589 654 589 650 l 589 664 q 544 772 589 728 q 426 815 500 815 q 306 769 351 815 q 261 647 261 722 l 261 325 q 310 203 261 250 q 433 157 358 157 q 549 195 506 157 q 592 301 592 233 l 592 363 q 583 371 592 371 l 436 371 q 413 394 413 371 l 413 508 q 436 532 413 532 l 761 532 q 785 508 785 532 l 785 332 q 740 149 785 226 q 615 30 696 71 q 426 -11 533 -11 z "},"Ğ":{"ha":843,"x_min":65,"x_max":785,"o":"m 426 -11 q 238 32 319 -11 q 110 152 156 75 q 65 331 65 229 l 65 642 q 110 821 65 743 q 238 941 156 899 q 426 983 319 983 q 613 942 532 983 q 740 828 694 900 q 785 669 785 757 l 785 667 q 761 643 785 643 l 613 643 q 595 647 601 643 q 589 654 589 650 l 589 664 q 544 772 589 728 q 426 815 500 815 q 306 769 351 815 q 261 647 261 722 l 261 325 q 310 203 261 250 q 433 157 358 157 q 549 195 506 157 q 592 301 592 233 l 592 363 q 583 371 592 371 l 436 371 q 413 394 413 371 l 413 508 q 436 532 413 532 l 761 532 q 785 508 785 532 l 785 332 q 740 149 785 226 q 615 30 696 71 q 426 -11 533 -11 m 425 1032 q 310 1072 358 1032 q 253 1172 263 1111 l 253 1175 q 276 1197 253 1197 l 332 1197 q 357 1175 351 1197 q 383 1135 364 1151 q 425 1119 401 1119 q 469 1135 450 1119 q 494 1175 488 1151 q 519 1197 500 1197 l 575 1197 q 593 1191 586 1197 q 599 1174 600 1185 q 540 1072 589 1113 q 425 1032 492 1032 z "},"Ġ":{"ha":843,"x_min":65,"x_max":785,"o":"m 426 -11 q 238 32 319 -11 q 110 152 156 75 q 65 331 65 229 l 65 642 q 110 821 65 743 q 238 941 156 899 q 426 983 319 983 q 613 942 532 983 q 740 828 694 900 q 785 669 785 757 l 785 667 q 761 643 785 643 l 613 643 q 595 647 601 643 q 589 654 589 650 l 589 664 q 544 772 589 728 q 426 815 500 815 q 306 769 351 815 q 261 647 261 722 l 261 325 q 310 203 261 250 q 433 157 358 157 q 549 195 506 157 q 592 301 592 233 l 592 363 q 583 371 592 371 l 436 371 q 413 394 413 371 l 413 508 q 436 532 413 532 l 761 532 q 785 508 785 532 l 785 332 q 740 149 785 226 q 615 30 696 71 q 426 -11 533 -11 m 425 1054 q 360 1079 385 1054 q 335 1144 335 1104 q 360 1210 335 1185 q 425 1235 385 1235 q 490 1210 465 1235 q 514 1144 514 1185 q 490 1079 514 1104 q 425 1054 465 1054 z "},"H":{"ha":872,"x_min":85,"x_max":797,"o":"m 601 949 q 625 972 601 972 l 774 972 q 797 949 797 972 l 797 24 q 774 0 797 0 l 625 0 q 601 24 601 0 l 601 399 q 593 407 601 407 l 289 407 q 281 399 281 407 l 281 24 q 257 0 281 0 l 108 0 q 85 24 85 0 l 85 949 q 108 972 85 972 l 257 972 q 281 949 281 972 l 281 583 q 289 575 281 575 l 593 575 q 601 583 601 575 l 601 949 z "},"Ħ":{"ha":872,"x_min":4,"x_max":878,"o":"m 854 838 q 878 814 878 838 l 878 728 q 854 704 878 704 l 806 704 q 797 696 797 704 l 797 24 q 774 0 797 0 l 625 0 q 601 24 601 0 l 601 399 q 593 407 601 407 l 289 407 q 281 399 281 407 l 281 24 q 257 0 281 0 l 108 0 q 85 24 85 0 l 85 696 q 76 704 85 704 l 28 704 q 4 728 4 704 l 4 814 q 28 838 4 838 l 76 838 q 85 846 85 838 l 85 949 q 108 972 85 972 l 257 972 q 281 949 281 972 l 281 846 q 289 838 281 838 l 593 838 q 601 846 601 838 l 601 949 q 625 972 601 972 l 774 972 q 797 949 797 972 l 797 846 q 806 838 797 838 l 854 838 m 593 575 q 601 583 601 575 l 601 696 q 593 704 601 704 l 289 704 q 281 696 281 704 l 281 583 q 289 575 281 575 l 593 575 z "},"I":{"ha":365,"x_min":85,"x_max":281,"o":"m 108 0 q 85 24 85 0 l 85 949 q 108 972 85 972 l 257 972 q 281 949 281 972 l 281 24 q 257 0 281 0 l 108 0 z "},"Í":{"ha":365,"x_min":85,"x_max":356,"o":"m 108 0 q 85 24 85 0 l 85 949 q 108 972 85 972 l 257 972 q 281 949 281 972 l 281 24 q 257 0 281 0 l 108 0 m 115 1072 q 94 1088 94 1072 q 99 1100 94 1094 l 167 1226 q 194 1243 175 1243 l 335 1243 q 350 1239 344 1243 q 356 1228 356 1235 q 350 1214 356 1221 l 261 1088 q 232 1072 250 1072 l 115 1072 z "},"Î":{"ha":365,"x_min":-25,"x_max":392,"o":"m 108 0 q 85 24 85 0 l 85 949 q 108 972 85 972 l 257 972 q 281 949 281 972 l 281 24 q 257 0 281 0 l 108 0 m -4 1068 q -19 1072 -14 1068 q -25 1083 -25 1076 q -19 1097 -25 1090 l 78 1232 q 107 1246 88 1246 l 257 1246 q 286 1232 276 1246 l 386 1097 q 392 1083 392 1090 q 386 1072 392 1076 q 371 1068 381 1068 l 268 1068 q 240 1083 251 1068 l 189 1163 q 183 1167 186 1167 q 178 1163 179 1167 l 126 1083 q 99 1068 115 1068 l -4 1068 z "},"Ï":{"ha":365,"x_min":-49,"x_max":414,"o":"m 108 0 q 85 24 85 0 l 85 949 q 108 972 85 972 l 257 972 q 281 949 281 972 l 281 24 q 257 0 281 0 l 108 0 m 50 1068 q -21 1095 7 1068 q -49 1165 -49 1122 q -21 1236 -49 1208 q 50 1264 7 1264 q 120 1237 93 1264 q 147 1165 147 1210 q 120 1095 147 1122 q 50 1068 93 1068 m 317 1068 q 245 1094 272 1068 q 218 1165 218 1121 q 245 1237 218 1210 q 317 1264 272 1264 q 387 1237 360 1264 q 414 1165 414 1210 q 387 1095 414 1122 q 317 1068 360 1068 z "},"İ":{"ha":365,"x_min":85,"x_max":281,"o":"m 108 0 q 85 24 85 0 l 85 949 q 108 972 85 972 l 257 972 q 281 949 281 972 l 281 24 q 257 0 281 0 l 108 0 m 183 1060 q 118 1085 143 1060 q 93 1150 93 1110 q 118 1215 93 1190 q 183 1240 143 1240 q 248 1215 224 1240 q 272 1150 272 1190 q 248 1085 272 1110 q 183 1060 224 1060 z "},"Ì":{"ha":365,"x_min":0,"x_max":281,"o":"m 108 0 q 85 24 85 0 l 85 949 q 108 972 85 972 l 257 972 q 281 949 281 972 l 281 24 q 257 0 281 0 l 108 0 m 256 1100 q 260 1088 260 1094 q 239 1072 260 1072 l 122 1072 q 94 1088 106 1072 l 6 1214 q 0 1229 0 1221 q 19 1243 0 1243 l 160 1243 q 188 1226 179 1243 l 256 1100 z "},"Ī":{"ha":365,"x_min":-21,"x_max":388,"o":"m 108 0 q 85 24 85 0 l 85 949 q 108 972 85 972 l 257 972 q 281 949 281 972 l 281 24 q 257 0 281 0 l 108 0 m 3 1078 q -21 1101 -21 1078 l -21 1186 q 3 1210 -21 1210 l 364 1210 q 388 1186 388 1210 l 388 1101 q 364 1078 388 1078 l 3 1078 z "},"Į":{"ha":406,"x_min":85,"x_max":317,"o":"m 135 0 q 111 24 111 0 l 111 949 q 135 972 111 972 l 283 972 q 307 949 307 972 l 307 24 q 283 0 307 0 l 135 0 m 317 -231 q 300 -254 317 -249 q 221 -267 260 -267 q 138 -247 174 -267 q 89 -179 103 -226 q 85 -146 85 -162 q 161 -10 85 -72 q 190 0 172 0 l 261 0 q 281 -11 281 0 q 269 -28 281 -19 q 214 -114 214 -76 q 215 -125 214 -121 q 261 -157 225 -157 q 281 -154 267 -157 q 290 -153 285 -153 q 310 -171 306 -153 l 317 -226 l 317 -231 z "},"J":{"ha":819,"x_min":26,"x_max":735,"o":"m 379 -11 q 195 28 275 -11 q 71 140 115 68 q 26 306 26 211 l 26 354 q 50 378 26 378 l 199 378 q 222 354 222 378 l 222 306 q 265 198 222 239 q 379 157 308 157 q 496 198 451 157 q 540 306 540 239 l 540 949 q 564 972 540 972 l 711 972 q 735 949 735 972 l 735 306 q 690 140 735 211 q 565 28 646 68 q 379 -11 485 -11 z "},"K":{"ha":869,"x_min":85,"x_max":840,"o":"m 108 0 q 85 24 85 0 l 85 949 q 108 972 85 972 l 257 972 q 281 949 281 972 l 281 569 q 284 563 281 564 q 290 565 288 561 l 607 958 q 636 972 617 972 l 804 972 q 819 969 814 972 q 825 958 825 965 q 818 943 825 953 l 515 557 q 515 546 511 553 l 836 28 q 840 15 840 22 q 821 0 840 0 l 653 0 q 625 15 635 0 l 382 410 q 376 414 381 414 q 369 410 372 414 l 285 301 q 281 292 281 296 l 281 24 q 257 0 281 0 l 108 0 z "},"L":{"ha":794,"x_min":85,"x_max":758,"o":"m 108 0 q 85 24 85 0 l 85 949 q 108 972 85 972 l 257 972 q 281 949 281 972 l 281 176 q 289 168 281 168 l 735 168 q 758 144 758 168 l 758 24 q 735 0 758 0 l 108 0 z "},"Ĺ":{"ha":794,"x_min":85,"x_max":758,"o":"m 108 0 q 85 24 85 0 l 85 949 q 108 972 85 972 l 257 972 q 281 949 281 972 l 281 176 q 289 168 281 168 l 735 168 q 758 144 758 168 l 758 24 q 735 0 758 0 l 108 0 m 114 1056 q 93 1071 93 1056 q 97 1083 93 1078 l 165 1210 q 193 1226 174 1226 l 333 1226 q 349 1222 343 1226 q 354 1211 354 1218 q 349 1197 354 1204 l 260 1071 q 231 1056 249 1056 l 114 1056 z "},"Ľ":{"ha":794,"x_min":-22,"x_max":758,"o":"m 108 0 q 85 24 85 0 l 85 949 q 108 972 85 972 l 257 972 q 281 949 281 972 l 281 176 q 289 168 281 168 l 735 168 q 758 144 758 168 l 758 24 q 735 0 758 0 l 108 0 m 97 1040 q 69 1056 81 1040 l -18 1188 q -22 1201 -22 1196 q -17 1213 -22 1208 q -3 1217 -12 1217 l 97 1217 q 125 1201 114 1217 l 176 1122 q 181 1118 178 1118 q 188 1122 185 1118 l 239 1201 q 267 1217 250 1217 l 365 1217 q 381 1213 375 1217 q 386 1201 386 1208 q 381 1188 386 1194 l 290 1056 q 263 1040 279 1040 l 97 1040 z "},"Ļ":{"ha":794,"x_min":85,"x_max":758,"o":"m 108 0 q 85 24 85 0 l 85 949 q 108 972 85 972 l 257 972 q 281 949 281 972 l 281 176 q 289 168 281 168 l 735 168 q 758 144 758 168 l 758 24 q 735 0 758 0 l 108 0 z "},"Ł":{"ha":794,"x_min":-128,"x_max":758,"o":"m 281 176 q 289 168 281 168 l 735 168 q 758 144 758 168 l 758 24 q 735 0 758 0 l 108 0 q 85 24 85 0 l 85 267 q 82 274 85 272 q 75 272 79 276 l -22 192 q -39 185 -32 185 q -56 194 -47 185 l -121 271 q -128 288 -128 281 q -118 304 -128 294 l 81 469 q 85 479 85 474 l 85 949 q 108 972 85 972 l 257 972 q 281 949 281 972 l 281 651 q 283 644 281 646 q 290 646 286 642 l 538 851 q 554 858 547 858 q 571 849 563 858 l 638 771 q 644 754 644 761 q 635 738 644 747 l 285 447 q 281 438 281 443 l 281 176 z "},"M":{"ha":988,"x_min":86,"x_max":903,"o":"m 110 0 q 86 24 86 0 l 86 949 q 110 972 86 972 l 258 972 q 286 957 276 972 l 488 632 q 494 628 490 628 q 499 632 497 628 l 703 957 q 731 972 713 972 l 879 972 q 903 949 903 972 l 903 24 q 879 0 903 0 l 731 0 q 707 24 707 0 l 707 625 q 703 632 707 631 q 697 628 700 633 l 557 399 q 529 383 547 383 l 458 383 q 431 399 440 383 l 292 628 q 285 632 289 633 q 282 625 282 631 l 282 24 q 258 0 282 0 l 110 0 z "},"N":{"ha":914,"x_min":85,"x_max":829,"o":"m 108 0 q 85 24 85 0 l 85 949 q 108 972 85 972 l 251 972 q 279 957 269 972 l 626 379 q 633 375 629 374 q 636 382 636 376 l 636 949 q 660 972 636 972 l 806 972 q 829 949 829 972 l 829 24 q 806 0 829 0 l 664 0 q 636 17 647 0 l 288 600 q 281 604 285 606 q 278 597 278 603 l 279 24 q 256 0 279 0 l 108 0 z "},"Ń":{"ha":914,"x_min":85,"x_max":829,"o":"m 108 0 q 85 24 85 0 l 85 949 q 108 972 85 972 l 251 972 q 279 957 269 972 l 626 379 q 633 375 629 374 q 636 382 636 376 l 636 949 q 660 972 636 972 l 806 972 q 829 949 829 972 l 829 24 q 806 0 829 0 l 664 0 q 636 17 647 0 l 288 600 q 281 604 285 606 q 278 597 278 603 l 279 24 q 256 0 279 0 l 108 0 m 379 1074 q 358 1089 358 1074 q 363 1101 358 1096 l 431 1228 q 458 1244 439 1244 l 599 1244 q 614 1240 608 1244 q 619 1229 619 1236 q 614 1215 619 1222 l 525 1089 q 496 1074 514 1074 l 379 1074 z "},"Ň":{"ha":914,"x_min":85,"x_max":829,"o":"m 108 0 q 85 24 85 0 l 85 949 q 108 972 85 972 l 251 972 q 279 957 269 972 l 626 379 q 633 375 629 374 q 636 382 636 376 l 636 949 q 660 972 636 972 l 806 972 q 829 949 829 972 l 829 24 q 806 0 829 0 l 664 0 q 636 17 647 0 l 288 600 q 281 604 285 606 q 278 597 278 603 l 279 24 q 256 0 279 0 l 108 0 m 363 1061 q 335 1076 346 1061 l 247 1210 q 243 1224 243 1218 q 248 1235 243 1231 q 263 1239 253 1239 l 363 1239 q 390 1224 379 1239 l 442 1144 q 448 1140 444 1140 q 453 1144 451 1140 l 504 1224 q 532 1239 515 1239 l 631 1239 q 646 1235 640 1239 q 651 1224 651 1231 q 646 1210 651 1217 l 556 1076 q 528 1061 544 1061 l 363 1061 z "},"Ŋ":{"ha":924,"x_min":85,"x_max":839,"o":"m 829 750 q 835 740 829 746 q 839 719 839 735 l 839 28 q 810 -144 839 -83 q 712 -231 782 -206 q 511 -254 642 -257 q 488 -231 488 -254 l 488 -114 q 513 -92 488 -92 q 608 -72 579 -93 q 643 0 638 -51 q 640 11 643 6 l 288 600 q 281 604 285 606 q 278 597 278 603 l 279 24 q 256 0 279 0 l 108 0 q 85 24 85 0 l 85 949 q 108 972 85 972 l 251 972 q 279 957 269 972 l 626 379 q 633 375 629 374 q 636 382 636 376 l 636 949 q 660 972 636 972 l 806 972 q 829 949 829 972 l 829 750 z "},"Ñ":{"ha":914,"x_min":85,"x_max":829,"o":"m 108 0 q 85 24 85 0 l 85 949 q 108 972 85 972 l 251 972 q 279 957 269 972 l 626 379 q 633 375 629 374 q 636 382 636 376 l 636 949 q 660 972 636 972 l 806 972 q 829 949 829 972 l 829 24 q 806 0 829 0 l 664 0 q 636 17 647 0 l 288 600 q 281 604 285 606 q 278 597 278 603 l 279 24 q 256 0 279 0 l 108 0 m 542 1074 q 497 1083 517 1074 q 450 1108 476 1092 q 419 1126 431 1121 q 396 1131 408 1131 q 344 1107 364 1131 q 325 1094 336 1094 q 313 1100 318 1094 l 264 1133 q 253 1153 253 1142 q 256 1165 253 1161 q 308 1234 275 1211 q 382 1257 342 1257 q 426 1249 406 1257 q 472 1225 446 1242 q 539 1200 515 1200 q 586 1225 568 1200 q 604 1238 594 1238 q 618 1232 611 1238 l 668 1199 q 678 1179 678 1192 q 669 1156 678 1168 q 610 1094 644 1115 q 542 1074 576 1074 z "},"O":{"ha":863,"x_min":65,"x_max":797,"o":"m 431 -15 q 240 29 322 -15 q 111 153 157 74 q 65 338 65 233 l 65 635 q 111 817 65 738 q 240 940 157 896 q 431 983 322 983 q 623 940 540 983 q 751 817 706 896 q 797 635 797 738 l 797 338 q 751 153 797 233 q 623 28 706 72 q 431 -15 540 -15 m 431 153 q 554 201 507 153 q 601 331 601 250 l 601 636 q 555 766 601 717 q 431 815 508 815 q 308 766 354 815 q 261 636 261 717 l 261 331 q 308 201 261 250 q 431 153 354 153 z "},"Ó":{"ha":863,"x_min":65,"x_max":797,"o":"m 431 -15 q 240 29 322 -15 q 111 153 157 74 q 65 338 65 233 l 65 635 q 111 817 65 738 q 240 940 157 896 q 431 983 322 983 q 623 940 540 983 q 751 817 706 896 q 797 635 797 738 l 797 338 q 751 153 797 233 q 623 28 706 72 q 431 -15 540 -15 m 431 153 q 554 201 507 153 q 601 331 601 250 l 601 636 q 555 766 601 717 q 431 815 508 815 q 308 766 354 815 q 261 636 261 717 l 261 331 q 308 201 261 250 q 431 153 354 153 m 363 1067 q 342 1082 342 1067 q 346 1094 342 1089 l 414 1221 q 442 1238 422 1238 l 582 1238 q 597 1233 592 1238 q 603 1222 603 1229 q 597 1208 603 1215 l 508 1082 q 479 1067 497 1067 l 363 1067 z "},"Ô":{"ha":863,"x_min":65,"x_max":797,"o":"m 431 -15 q 240 29 322 -15 q 111 153 157 74 q 65 338 65 233 l 65 635 q 111 817 65 738 q 240 940 157 896 q 431 983 322 983 q 623 940 540 983 q 751 817 706 896 q 797 635 797 738 l 797 338 q 751 153 797 233 q 623 28 706 72 q 431 -15 540 -15 m 431 153 q 554 201 507 153 q 601 331 601 250 l 601 636 q 555 766 601 717 q 431 815 508 815 q 308 766 354 815 q 261 636 261 717 l 261 331 q 308 201 261 250 q 431 153 354 153 m 243 1063 q 228 1067 233 1063 q 222 1078 222 1071 q 228 1092 222 1085 l 325 1226 q 354 1240 335 1240 l 504 1240 q 533 1226 524 1240 l 633 1092 q 639 1078 639 1085 q 633 1067 639 1071 q 618 1063 628 1063 l 515 1063 q 488 1078 499 1063 l 436 1157 q 430 1161 433 1161 q 425 1157 426 1161 l 374 1078 q 346 1063 363 1063 l 243 1063 z "},"Ö":{"ha":863,"x_min":65,"x_max":797,"o":"m 431 -15 q 240 29 322 -15 q 111 153 157 74 q 65 338 65 233 l 65 635 q 111 817 65 738 q 240 940 157 896 q 431 983 322 983 q 623 940 540 983 q 751 817 706 896 q 797 635 797 738 l 797 338 q 751 153 797 233 q 623 28 706 72 q 431 -15 540 -15 m 431 153 q 554 201 507 153 q 601 331 601 250 l 601 636 q 555 766 601 717 q 431 815 508 815 q 308 766 354 815 q 261 636 261 717 l 261 331 q 308 201 261 250 q 431 153 354 153 m 299 1063 q 228 1090 256 1063 q 200 1160 200 1117 q 228 1231 200 1203 q 299 1258 256 1258 q 369 1231 342 1258 q 396 1160 396 1204 q 369 1090 396 1117 q 299 1063 342 1063 m 565 1063 q 494 1089 521 1063 q 467 1160 467 1115 q 494 1231 467 1204 q 565 1258 521 1258 q 635 1231 608 1258 q 663 1160 663 1204 q 635 1090 663 1117 q 565 1063 608 1063 z "},"Ò":{"ha":863,"x_min":65,"x_max":797,"o":"m 431 -15 q 240 29 322 -15 q 111 153 157 74 q 65 338 65 233 l 65 635 q 111 817 65 738 q 240 940 157 896 q 431 983 322 983 q 623 940 540 983 q 751 817 706 896 q 797 635 797 738 l 797 338 q 751 153 797 233 q 623 28 706 72 q 431 -15 540 -15 m 431 153 q 554 201 507 153 q 601 331 601 250 l 601 636 q 555 766 601 717 q 431 815 508 815 q 308 766 354 815 q 261 636 261 717 l 261 331 q 308 201 261 250 q 431 153 354 153 m 503 1094 q 507 1082 507 1089 q 486 1067 507 1067 l 369 1067 q 342 1082 353 1067 l 253 1208 q 247 1224 247 1215 q 267 1238 247 1238 l 407 1238 q 435 1221 426 1238 l 503 1094 z "},"Ő":{"ha":863,"x_min":65,"x_max":797,"o":"m 431 -15 q 240 29 322 -15 q 111 153 157 74 q 65 338 65 233 l 65 635 q 111 817 65 738 q 240 940 157 896 q 431 983 322 983 q 623 940 540 983 q 751 817 706 896 q 797 635 797 738 l 797 338 q 751 153 797 233 q 623 28 706 72 q 431 -15 540 -15 m 431 153 q 554 201 507 153 q 601 331 601 250 l 601 636 q 555 766 601 717 q 431 815 508 815 q 308 766 354 815 q 261 636 261 717 l 261 331 q 308 201 261 250 q 431 153 354 153 m 256 1064 q 235 1081 235 1064 l 238 1092 l 296 1217 q 324 1235 304 1235 l 451 1235 q 467 1231 461 1235 q 472 1219 472 1226 q 468 1207 472 1214 l 401 1081 q 374 1064 393 1064 l 256 1064 m 504 1064 q 489 1068 494 1064 q 483 1079 483 1072 q 488 1092 483 1086 l 554 1218 q 582 1235 563 1235 l 700 1235 q 721 1219 721 1235 q 717 1207 721 1214 l 649 1081 q 621 1064 640 1064 l 504 1064 z "},"Ō":{"ha":863,"x_min":65,"x_max":797,"o":"m 431 -15 q 240 29 322 -15 q 111 153 157 74 q 65 338 65 233 l 65 635 q 111 817 65 738 q 240 940 157 896 q 431 983 322 983 q 623 940 540 983 q 751 817 706 896 q 797 635 797 738 l 797 338 q 751 153 797 233 q 623 28 706 72 q 431 -15 540 -15 m 431 153 q 554 201 507 153 q 601 331 601 250 l 601 636 q 555 766 601 717 q 431 815 508 815 q 308 766 354 815 q 261 636 261 717 l 261 331 q 308 201 261 250 q 431 153 354 153 m 250 1072 q 226 1096 226 1072 l 226 1181 q 250 1204 226 1204 l 611 1204 q 635 1181 635 1204 l 635 1096 q 611 1072 635 1072 l 250 1072 z "},"Ø":{"ha":869,"x_min":71,"x_max":803,"o":"m 689 908 q 692 897 686 901 q 774 784 746 851 q 803 635 803 717 l 803 338 q 757 153 803 233 q 628 28 711 72 q 436 -15 546 -15 q 253 24 335 -15 q 242 21 246 28 l 214 -35 q 186 -51 207 -51 l 122 -51 q 101 -35 101 -51 q 104 -24 101 -28 l 160 85 q 158 97 163 92 q 94 204 117 143 q 71 338 71 265 l 71 635 q 117 817 71 738 q 245 940 163 896 q 436 983 328 983 q 590 957 524 983 q 601 961 599 954 l 626 1011 q 654 1028 635 1028 l 718 1028 q 739 1011 739 1028 q 736 1000 739 1004 l 689 908 m 267 322 q 271 315 267 315 q 278 319 275 314 l 514 790 q 510 800 519 797 q 436 815 476 815 q 313 766 360 815 q 267 636 267 717 l 267 331 l 267 322 m 607 636 q 597 701 607 668 q 592 708 596 707 q 586 703 588 708 l 329 196 q 332 185 326 189 q 436 153 376 153 q 560 201 513 153 q 607 331 607 250 l 607 636 z "},"Õ":{"ha":863,"x_min":65,"x_max":797,"o":"m 431 -15 q 240 29 322 -15 q 111 153 157 74 q 65 338 65 233 l 65 635 q 111 817 65 738 q 240 940 157 896 q 431 983 322 983 q 623 940 540 983 q 751 817 706 896 q 797 635 797 738 l 797 338 q 751 153 797 233 q 623 28 706 72 q 431 -15 540 -15 m 431 153 q 554 201 507 153 q 601 331 601 250 l 601 636 q 555 766 601 717 q 431 815 508 815 q 308 766 354 815 q 261 636 261 717 l 261 331 q 308 201 261 250 q 431 153 354 153 m 525 1067 q 480 1076 500 1067 q 433 1101 460 1085 q 403 1119 414 1114 q 379 1124 392 1124 q 328 1100 347 1124 q 308 1088 319 1088 q 296 1093 301 1088 l 247 1126 q 236 1146 236 1135 q 239 1158 236 1154 q 292 1227 258 1204 q 365 1250 325 1250 q 409 1242 389 1250 q 456 1218 429 1235 q 522 1193 499 1193 q 569 1218 551 1193 q 588 1231 578 1231 q 601 1225 594 1231 l 651 1192 q 661 1172 661 1185 q 653 1149 661 1161 q 594 1088 628 1108 q 525 1067 560 1067 z "},"Œ":{"ha":1292,"x_min":65,"x_max":1240,"o":"m 1240 828 q 1217 804 1240 804 l 790 804 q 782 796 782 804 l 782 583 q 790 575 782 575 l 1060 575 q 1083 551 1083 575 l 1083 431 q 1060 407 1083 407 l 790 407 q 782 399 782 407 l 782 176 q 790 168 782 168 l 1217 168 q 1240 144 1240 168 l 1240 24 q 1217 0 1240 0 l 610 0 q 586 24 586 0 l 586 44 q 583 51 586 50 q 576 50 581 53 q 480 1 532 18 q 372 -15 428 -15 q 218 28 289 -15 q 106 151 147 72 q 65 329 65 229 l 65 642 q 106 818 65 740 q 218 940 147 896 q 372 983 289 983 q 481 967 428 983 q 576 919 533 950 q 583 918 581 917 q 586 925 586 919 l 586 949 q 610 972 586 972 l 1217 972 q 1240 949 1240 972 l 1240 828 m 422 153 q 541 201 496 153 q 586 324 586 249 l 586 644 q 541 767 586 719 q 422 815 496 815 q 306 767 350 815 q 261 644 261 719 l 261 324 q 306 201 261 249 q 422 153 350 153 z "},"P":{"ha":829,"x_min":78,"x_max":793,"o":"m 486 974 q 647 936 578 974 q 755 830 717 899 q 793 672 793 761 q 753 518 793 585 q 642 415 714 451 q 478 378 571 378 l 282 378 q 274 369 274 378 l 274 24 q 250 0 274 0 l 101 0 q 78 24 78 0 l 78 950 q 101 974 78 974 l 486 974 m 457 535 q 560 572 521 535 q 599 668 599 608 q 560 767 599 729 q 457 804 521 804 l 282 804 q 274 796 274 804 l 274 543 q 282 535 274 535 l 457 535 z "},"Þ":{"ha":807,"x_min":78,"x_max":772,"o":"m 465 779 q 626 742 556 779 q 734 637 696 704 q 772 483 772 569 q 731 331 772 397 q 617 229 689 265 q 456 193 544 193 l 282 193 q 274 185 274 193 l 274 24 q 250 0 274 0 l 101 0 q 78 24 78 0 l 78 949 q 101 972 78 972 l 250 972 q 274 949 274 972 l 274 788 q 282 779 274 779 l 465 779 m 435 351 q 538 385 499 351 q 576 479 576 419 q 538 576 576 542 q 435 611 499 611 l 282 611 q 274 603 274 611 l 274 360 q 282 351 274 351 l 435 351 z "},"Q":{"ha":824,"x_min":57,"x_max":767,"o":"m 411 983 q 597 940 517 983 q 722 818 678 897 q 767 635 767 739 l 767 324 q 700 115 767 200 q 518 1 633 29 q 511 -7 511 -1 l 511 -112 q 488 -136 511 -136 l 339 -136 q 315 -112 315 -136 l 315 -8 q 308 0 315 -3 q 125 114 193 28 q 57 324 57 200 l 57 635 q 101 817 57 739 q 226 940 146 896 q 411 983 307 983 m 571 644 q 527 768 571 721 q 411 815 483 815 q 297 768 340 815 q 253 644 253 721 l 253 328 q 297 204 253 251 q 411 157 340 157 q 527 204 483 157 q 571 328 571 251 l 571 644 z "},"R":{"ha":853,"x_min":85,"x_max":801,"o":"m 624 0 q 596 18 606 0 l 425 396 q 415 403 422 403 l 289 403 q 281 394 281 403 l 281 24 q 257 0 281 0 l 108 0 q 85 24 85 0 l 85 950 q 108 974 85 974 l 499 974 q 655 937 588 974 q 759 833 722 900 q 796 681 796 767 q 749 518 796 586 q 618 422 701 450 q 613 417 614 421 q 614 411 611 414 l 797 28 q 801 15 801 22 q 796 4 801 8 q 781 0 790 0 l 624 0 m 289 804 q 281 796 281 804 l 281 563 q 289 554 281 554 l 469 554 q 565 588 528 554 q 601 678 601 622 q 565 769 601 733 q 469 804 528 804 l 289 804 z "},"Ŕ":{"ha":853,"x_min":85,"x_max":801,"o":"m 624 0 q 596 18 606 0 l 425 396 q 415 403 422 403 l 289 403 q 281 394 281 403 l 281 24 q 257 0 281 0 l 108 0 q 85 24 85 0 l 85 950 q 108 974 85 974 l 499 974 q 655 937 588 974 q 759 833 722 900 q 796 681 796 767 q 749 518 796 586 q 618 422 701 450 q 613 417 614 421 q 614 411 611 414 l 797 28 q 801 15 801 22 q 796 4 801 8 q 781 0 790 0 l 624 0 m 289 804 q 281 796 281 804 l 281 563 q 289 554 281 554 l 469 554 q 565 588 528 554 q 601 678 601 622 q 565 769 601 733 q 469 804 528 804 l 289 804 m 329 1056 q 308 1071 308 1056 q 313 1083 308 1078 l 381 1210 q 408 1226 389 1226 l 549 1226 q 564 1222 558 1226 q 569 1211 569 1218 q 564 1197 569 1204 l 475 1071 q 446 1056 464 1056 l 329 1056 z "},"Ř":{"ha":853,"x_min":85,"x_max":801,"o":"m 624 0 q 596 18 606 0 l 425 396 q 415 403 422 403 l 289 403 q 281 394 281 403 l 281 24 q 257 0 281 0 l 108 0 q 85 24 85 0 l 85 950 q 108 974 85 974 l 499 974 q 655 937 588 974 q 759 833 722 900 q 796 681 796 767 q 749 518 796 586 q 618 422 701 450 q 613 417 614 421 q 614 411 611 414 l 797 28 q 801 15 801 22 q 796 4 801 8 q 781 0 790 0 l 624 0 m 289 804 q 281 796 281 804 l 281 563 q 289 554 281 554 l 469 554 q 565 588 528 554 q 601 678 601 622 q 565 769 601 733 q 469 804 528 804 l 289 804 m 313 1043 q 285 1058 296 1043 l 197 1192 q 193 1206 193 1200 q 198 1217 193 1213 q 213 1221 203 1221 l 313 1221 q 340 1206 329 1221 l 392 1126 q 398 1122 394 1122 q 403 1126 401 1122 l 454 1206 q 482 1221 465 1221 l 581 1221 q 596 1217 590 1221 q 601 1206 601 1213 q 596 1192 601 1199 l 506 1058 q 478 1043 494 1043 l 313 1043 z "},"S":{"ha":822,"x_min":53,"x_max":769,"o":"m 414 -11 q 224 25 306 -11 q 97 126 142 61 q 53 279 53 192 l 53 303 q 76 326 53 326 l 222 326 q 246 308 246 326 l 246 289 q 297 195 246 233 q 429 157 347 157 q 538 188 503 157 q 574 265 574 219 q 551 322 574 299 q 492 362 529 344 q 371 410 454 379 q 213 475 276 442 q 104 566 149 508 q 60 708 60 624 q 103 854 60 792 q 223 950 146 917 q 399 983 300 983 q 588 946 504 983 q 717 841 671 908 q 764 685 764 774 l 764 671 q 740 647 764 647 l 594 647 q 571 661 571 647 l 571 675 q 523 774 571 733 q 392 815 475 815 q 289 788 325 815 q 253 711 253 760 q 274 653 253 676 q 337 610 294 629 q 468 560 379 590 q 622 497 565 524 q 724 414 679 469 q 769 271 769 358 q 726 122 769 186 q 602 24 682 58 q 414 -11 522 -11 z "},"Ś":{"ha":822,"x_min":53,"x_max":769,"o":"m 414 -11 q 224 25 306 -11 q 97 126 142 61 q 53 279 53 192 l 53 303 q 76 326 53 326 l 222 326 q 246 308 246 326 l 246 289 q 297 195 246 233 q 429 157 347 157 q 538 188 503 157 q 574 265 574 219 q 551 322 574 299 q 492 362 529 344 q 371 410 454 379 q 213 475 276 442 q 104 566 149 508 q 60 708 60 624 q 103 854 60 792 q 223 950 146 917 q 399 983 300 983 q 588 946 504 983 q 717 841 671 908 q 764 685 764 774 l 764 671 q 740 647 764 647 l 594 647 q 571 661 571 647 l 571 675 q 523 774 571 733 q 392 815 475 815 q 289 788 325 815 q 253 711 253 760 q 274 653 253 676 q 337 610 294 629 q 468 560 379 590 q 622 497 565 524 q 724 414 679 469 q 769 271 769 358 q 726 122 769 186 q 602 24 682 58 q 414 -11 522 -11 m 338 1067 q 317 1082 317 1067 q 321 1094 317 1089 l 389 1221 q 417 1238 397 1238 l 557 1238 q 572 1233 567 1238 q 578 1222 578 1229 q 572 1208 578 1215 l 483 1082 q 454 1067 472 1067 l 338 1067 z "},"Š":{"ha":822,"x_min":53,"x_max":769,"o":"m 414 -11 q 224 25 306 -11 q 97 126 142 61 q 53 279 53 192 l 53 303 q 76 326 53 326 l 222 326 q 246 308 246 326 l 246 289 q 297 195 246 233 q 429 157 347 157 q 538 188 503 157 q 574 265 574 219 q 551 322 574 299 q 492 362 529 344 q 371 410 454 379 q 213 475 276 442 q 104 566 149 508 q 60 708 60 624 q 103 854 60 792 q 223 950 146 917 q 399 983 300 983 q 588 946 504 983 q 717 841 671 908 q 764 685 764 774 l 764 671 q 740 647 764 647 l 594 647 q 571 661 571 647 l 571 675 q 523 774 571 733 q 392 815 475 815 q 289 788 325 815 q 253 711 253 760 q 274 653 253 676 q 337 610 294 629 q 468 560 379 590 q 622 497 565 524 q 724 414 679 469 q 769 271 769 358 q 726 122 769 186 q 602 24 682 58 q 414 -11 522 -11 m 321 1054 q 293 1069 304 1054 l 206 1203 q 201 1217 201 1211 q 206 1228 201 1224 q 221 1232 211 1232 l 321 1232 q 349 1217 338 1232 l 400 1138 q 406 1133 403 1133 q 411 1138 410 1133 l 463 1217 q 490 1232 474 1232 l 589 1232 q 604 1228 599 1232 q 610 1217 610 1224 q 604 1203 610 1210 l 514 1069 q 486 1054 503 1054 l 321 1054 z "},"Ş":{"ha":822,"x_min":53,"x_max":769,"o":"m 769 271 q 696 88 769 161 q 494 -6 622 14 q 488 -10 489 -7 q 492 -15 488 -12 q 550 -136 550 -74 q 546 -169 550 -153 q 497 -237 532 -217 q 414 -257 461 -257 q 335 -244 375 -257 q 318 -217 315 -239 l 325 -161 q 354 -144 329 -139 q 374 -147 368 -147 q 419 -115 410 -147 q 421 -103 421 -111 q 357 -12 421 -62 q 347 -8 353 -8 q 132 85 211 8 q 53 279 53 161 l 53 303 q 76 326 53 326 l 222 326 q 246 308 246 326 l 246 289 q 297 195 246 233 q 429 157 347 157 q 538 188 503 157 q 574 265 574 219 q 551 322 574 299 q 492 362 529 344 q 371 410 454 379 q 213 475 276 442 q 104 566 149 508 q 60 708 60 624 q 103 854 60 792 q 223 950 146 917 q 399 983 300 983 q 588 946 504 983 q 717 841 671 908 q 764 685 764 774 l 764 671 q 740 647 764 647 l 594 647 q 571 661 571 647 l 571 675 q 523 774 571 733 q 392 815 475 815 q 289 788 325 815 q 253 711 253 760 q 274 653 253 676 q 337 610 294 629 q 468 560 379 590 q 622 497 565 524 q 724 414 679 469 q 769 271 769 358 z "},"T":{"ha":813,"x_min":39,"x_max":772,"o":"m 749 972 q 772 949 772 972 l 772 826 q 749 803 772 803 l 508 803 q 500 794 500 803 l 500 24 q 476 0 500 0 l 328 0 q 304 24 304 0 l 304 794 q 296 803 304 803 l 63 803 q 39 826 39 803 l 39 949 q 63 972 39 972 l 749 972 z "},"Ŧ":{"ha":833,"x_min":39,"x_max":772,"o":"m 772 826 q 749 803 772 803 l 508 803 q 500 794 500 803 l 500 578 q 508 569 500 569 l 632 569 q 656 546 656 569 l 656 475 q 632 451 656 451 l 508 451 q 500 443 500 451 l 500 24 q 476 0 500 0 l 328 0 q 304 24 304 0 l 304 443 q 296 451 304 451 l 188 451 q 164 475 164 451 l 164 546 q 188 569 164 569 l 296 569 q 304 578 304 569 l 304 794 q 296 803 304 803 l 63 803 q 39 826 39 803 l 39 949 q 63 972 39 972 l 749 972 q 772 949 772 972 l 772 826 z "},"Ť":{"ha":813,"x_min":39,"x_max":772,"o":"m 749 972 q 772 949 772 972 l 772 826 q 749 803 772 803 l 508 803 q 500 794 500 803 l 500 24 q 476 0 500 0 l 328 0 q 304 24 304 0 l 304 794 q 296 803 304 803 l 63 803 q 39 826 39 803 l 39 949 q 63 972 39 972 l 749 972 m 319 1040 q 292 1056 303 1040 l 204 1188 q 200 1201 200 1196 q 205 1213 200 1208 q 219 1217 210 1217 l 319 1217 q 347 1201 336 1217 l 399 1122 q 403 1118 400 1118 q 410 1122 407 1118 l 461 1201 q 489 1217 472 1217 l 588 1217 q 603 1213 597 1217 q 608 1201 608 1208 q 603 1188 608 1194 l 513 1056 q 485 1040 501 1040 l 319 1040 z "},"U":{"ha":874,"x_min":78,"x_max":797,"o":"m 438 -11 q 249 31 331 -11 q 123 148 168 72 q 78 322 78 224 l 78 949 q 101 972 78 972 l 250 972 q 274 949 274 972 l 274 321 q 319 202 274 247 q 438 157 364 157 q 556 202 511 157 q 601 321 601 247 l 601 949 q 625 972 601 972 l 774 972 q 797 949 797 972 l 797 322 q 752 148 797 224 q 626 31 707 72 q 438 -11 544 -11 z "},"Ú":{"ha":874,"x_min":78,"x_max":797,"o":"m 438 -11 q 249 31 331 -11 q 123 148 168 72 q 78 322 78 224 l 78 949 q 101 972 78 972 l 250 972 q 274 949 274 972 l 274 321 q 319 202 274 247 q 438 157 364 157 q 556 202 511 157 q 601 321 601 247 l 601 949 q 625 972 601 972 l 774 972 q 797 949 797 972 l 797 322 q 752 148 797 224 q 626 31 707 72 q 438 -11 544 -11 m 369 1074 q 349 1089 349 1074 q 353 1101 349 1096 l 421 1228 q 449 1244 429 1244 l 589 1244 q 604 1240 599 1244 q 610 1229 610 1236 q 604 1215 610 1222 l 515 1089 q 486 1074 504 1074 l 369 1074 z "},"Û":{"ha":874,"x_min":78,"x_max":797,"o":"m 438 -11 q 249 31 331 -11 q 123 148 168 72 q 78 322 78 224 l 78 949 q 101 972 78 972 l 250 972 q 274 949 274 972 l 274 321 q 319 202 274 247 q 438 157 364 157 q 556 202 511 157 q 601 321 601 247 l 601 949 q 625 972 601 972 l 774 972 q 797 949 797 972 l 797 322 q 752 148 797 224 q 626 31 707 72 q 438 -11 544 -11 m 250 1069 q 235 1074 240 1069 q 229 1085 229 1078 q 235 1099 229 1092 l 332 1233 q 361 1247 342 1247 l 511 1247 q 540 1233 531 1247 l 640 1099 q 646 1085 646 1092 q 640 1074 646 1078 q 625 1069 635 1069 l 522 1069 q 494 1085 506 1069 l 443 1164 q 437 1168 440 1168 q 432 1164 433 1168 l 381 1085 q 353 1069 369 1069 l 250 1069 z "},"Ü":{"ha":874,"x_min":78,"x_max":797,"o":"m 438 -11 q 249 31 331 -11 q 123 148 168 72 q 78 322 78 224 l 78 949 q 101 972 78 972 l 250 972 q 274 949 274 972 l 274 321 q 319 202 274 247 q 438 157 364 157 q 556 202 511 157 q 601 321 601 247 l 601 949 q 625 972 601 972 l 774 972 q 797 949 797 972 l 797 322 q 752 148 797 224 q 626 31 707 72 q 438 -11 544 -11 m 306 1069 q 235 1097 263 1069 q 207 1167 207 1124 q 235 1238 207 1210 q 306 1265 263 1265 q 376 1238 349 1265 q 403 1167 403 1211 q 376 1097 403 1124 q 306 1069 349 1069 m 572 1069 q 501 1096 528 1069 q 474 1167 474 1122 q 501 1238 474 1211 q 572 1265 528 1265 q 642 1238 615 1265 q 669 1167 669 1211 q 642 1097 669 1124 q 572 1069 615 1069 z "},"Ù":{"ha":874,"x_min":78,"x_max":797,"o":"m 438 -11 q 249 31 331 -11 q 123 148 168 72 q 78 322 78 224 l 78 949 q 101 972 78 972 l 250 972 q 274 949 274 972 l 274 321 q 319 202 274 247 q 438 157 364 157 q 556 202 511 157 q 601 321 601 247 l 601 949 q 625 972 601 972 l 774 972 q 797 949 797 972 l 797 322 q 752 148 797 224 q 626 31 707 72 q 438 -11 544 -11 m 510 1101 q 514 1089 514 1096 q 493 1074 514 1074 l 376 1074 q 349 1089 360 1074 l 260 1215 q 254 1231 254 1222 q 274 1244 254 1244 l 414 1244 q 442 1228 433 1244 l 510 1101 z "},"Ű":{"ha":874,"x_min":78,"x_max":797,"o":"m 438 -11 q 249 31 331 -11 q 123 148 168 72 q 78 322 78 224 l 78 949 q 101 972 78 972 l 250 972 q 274 949 274 972 l 274 321 q 319 202 274 247 q 438 157 364 157 q 556 202 511 157 q 601 321 601 247 l 601 949 q 625 972 601 972 l 774 972 q 797 949 797 972 l 797 322 q 752 148 797 224 q 626 31 707 72 q 438 -11 544 -11 m 263 1071 q 242 1088 242 1071 l 244 1099 l 303 1224 q 331 1242 311 1242 l 458 1242 q 474 1238 468 1242 q 479 1226 479 1233 q 475 1214 479 1221 l 408 1088 q 381 1071 400 1071 l 263 1071 m 511 1071 q 496 1075 501 1071 q 490 1086 490 1079 q 494 1099 490 1093 l 561 1225 q 589 1242 569 1242 l 707 1242 q 728 1226 728 1242 q 724 1214 728 1221 l 656 1088 q 628 1071 647 1071 l 511 1071 z "},"Ū":{"ha":874,"x_min":78,"x_max":797,"o":"m 438 -11 q 249 31 331 -11 q 123 148 168 72 q 78 322 78 224 l 78 949 q 101 972 78 972 l 250 972 q 274 949 274 972 l 274 321 q 319 202 274 247 q 438 157 364 157 q 556 202 511 157 q 601 321 601 247 l 601 949 q 625 972 601 972 l 774 972 q 797 949 797 972 l 797 322 q 752 148 797 224 q 626 31 707 72 q 438 -11 544 -11 m 257 1079 q 233 1103 233 1079 l 233 1188 q 257 1211 233 1211 l 618 1211 q 642 1188 642 1211 l 642 1103 q 618 1079 642 1079 l 257 1079 z "},"Ų":{"ha":874,"x_min":78,"x_max":797,"o":"m 601 949 q 625 972 601 972 l 774 972 q 797 949 797 972 l 797 322 q 714 97 797 186 q 492 -8 631 7 q 482 -12 486 -8 q 431 -94 431 -60 q 432 -106 431 -101 q 478 -137 442 -137 q 497 -135 483 -137 q 507 -133 501 -133 q 526 -151 522 -133 l 533 -207 l 533 -211 q 517 -235 533 -229 q 438 -247 476 -247 q 355 -227 390 -247 q 306 -160 319 -207 q 301 -126 301 -143 q 353 -14 301 -65 q 355 -8 356 -11 q 350 -4 354 -4 q 151 107 225 19 q 78 322 78 194 l 78 949 q 101 972 78 972 l 250 972 q 274 949 274 972 l 274 321 q 319 202 274 247 q 438 157 364 157 q 556 202 511 157 q 601 321 601 247 l 601 949 z "},"Ů":{"ha":874,"x_min":78,"x_max":797,"o":"m 438 -11 q 249 31 331 -11 q 123 148 168 72 q 78 322 78 224 l 78 949 q 101 972 78 972 l 250 972 q 274 949 274 972 l 274 321 q 319 202 274 247 q 438 157 364 157 q 556 202 511 157 q 601 321 601 247 l 601 949 q 625 972 601 972 l 774 972 q 797 949 797 972 l 797 322 q 752 148 797 224 q 626 31 707 72 q 438 -11 544 -11 m 438 1054 q 327 1099 372 1054 q 282 1208 282 1143 q 327 1318 282 1274 q 438 1363 372 1363 q 548 1317 503 1363 q 593 1208 593 1272 q 548 1099 593 1144 q 438 1054 503 1054 m 438 1143 q 483 1163 464 1143 q 503 1208 503 1182 q 484 1256 503 1238 q 438 1275 465 1275 q 390 1256 410 1275 q 371 1208 371 1238 q 390 1162 371 1181 q 438 1143 410 1143 z "},"V":{"ha":864,"x_min":40,"x_max":828,"o":"m 350 0 q 324 19 331 0 l 42 946 q 40 954 40 949 q 61 972 40 972 l 222 972 q 249 953 242 972 l 431 283 q 436 278 432 278 q 442 283 440 278 l 621 951 q 647 972 628 972 l 804 972 q 822 965 817 972 q 824 946 828 957 l 538 19 q 511 0 531 0 l 350 0 z "},"W":{"ha":1199,"x_min":25,"x_max":1175,"o":"m 297 0 q 271 21 275 0 l 26 946 q 25 953 25 949 q 47 972 25 972 l 206 972 q 231 951 226 972 l 361 397 q 367 392 363 392 q 372 397 371 392 l 497 951 q 522 972 501 972 l 679 972 q 706 951 701 972 l 842 397 q 847 392 843 392 q 851 397 850 392 l 976 951 q 1001 972 981 972 l 1153 972 q 1170 965 1165 972 q 1172 946 1175 957 l 949 21 q 922 0 944 0 l 769 0 q 743 21 747 0 l 604 611 q 599 617 603 617 q 593 611 594 617 l 464 21 q 439 0 460 0 l 297 0 z "},"Ẃ":{"ha":1199,"x_min":25,"x_max":1174,"o":"m 297 0 q 271 21 275 0 l 26 946 q 25 953 25 949 q 47 972 25 972 l 206 972 q 231 951 226 972 l 361 397 q 367 392 363 392 q 372 397 371 392 l 497 951 q 522 972 501 972 l 679 972 q 706 951 701 972 l 842 397 q 847 392 843 392 q 851 397 850 392 l 976 951 q 1001 972 981 972 l 1153 972 q 1170 965 1165 972 q 1172 946 1175 957 l 949 21 q 922 0 944 0 l 769 0 q 743 21 747 0 l 604 611 q 599 617 603 617 q 593 611 594 617 l 464 21 q 439 0 460 0 l 297 0 m 531 1056 q 510 1071 510 1056 q 514 1083 510 1078 l 582 1210 q 610 1226 590 1226 l 750 1226 q 765 1222 760 1226 q 771 1211 771 1218 q 765 1197 771 1204 l 676 1071 q 647 1056 665 1056 l 531 1056 z "},"Ŵ":{"ha":1199,"x_min":25,"x_max":1174,"o":"m 297 0 q 271 21 275 0 l 26 946 q 25 953 25 949 q 47 972 25 972 l 206 972 q 231 951 226 972 l 361 397 q 367 392 363 392 q 372 397 371 392 l 497 951 q 522 972 501 972 l 679 972 q 706 951 701 972 l 842 397 q 847 392 843 392 q 851 397 850 392 l 976 951 q 1001 972 981 972 l 1153 972 q 1170 965 1165 972 q 1172 946 1175 957 l 949 21 q 922 0 944 0 l 769 0 q 743 21 747 0 l 604 611 q 599 617 603 617 q 593 611 594 617 l 464 21 q 439 0 460 0 l 297 0 m 411 1051 q 396 1056 401 1051 q 390 1067 390 1060 q 396 1081 390 1074 l 493 1215 q 522 1229 503 1229 l 672 1229 q 701 1215 692 1229 l 801 1081 q 807 1067 807 1074 q 801 1056 807 1060 q 786 1051 796 1051 l 683 1051 q 656 1067 667 1051 l 604 1146 q 598 1150 601 1150 q 593 1146 594 1150 l 542 1067 q 514 1051 531 1051 l 411 1051 z "},"Ẅ":{"ha":1199,"x_min":25,"x_max":1174,"o":"m 297 0 q 271 21 275 0 l 26 946 q 25 953 25 949 q 47 972 25 972 l 206 972 q 231 951 226 972 l 361 397 q 367 392 363 392 q 372 397 371 392 l 497 951 q 522 972 501 972 l 679 972 q 706 951 701 972 l 842 397 q 847 392 843 392 q 851 397 850 392 l 976 951 q 1001 972 981 972 l 1153 972 q 1170 965 1165 972 q 1172 946 1175 957 l 949 21 q 922 0 944 0 l 769 0 q 743 21 747 0 l 604 611 q 599 617 603 617 q 593 611 594 617 l 464 21 q 439 0 460 0 l 297 0 m 467 1051 q 396 1078 424 1051 q 368 1149 368 1106 q 396 1219 368 1192 q 467 1247 424 1247 q 537 1220 510 1247 q 564 1149 564 1193 q 537 1078 564 1106 q 467 1051 510 1051 m 733 1051 q 662 1078 689 1051 q 635 1149 635 1104 q 662 1220 635 1193 q 733 1247 689 1247 q 803 1220 776 1247 q 831 1149 831 1193 q 803 1078 831 1106 q 733 1051 776 1051 z "},"Ẁ":{"ha":1199,"x_min":25,"x_max":1174,"o":"m 297 0 q 271 21 275 0 l 26 946 q 25 953 25 949 q 47 972 25 972 l 206 972 q 231 951 226 972 l 361 397 q 367 392 363 392 q 372 397 371 392 l 497 951 q 522 972 501 972 l 679 972 q 706 951 701 972 l 842 397 q 847 392 843 392 q 851 397 850 392 l 976 951 q 1001 972 981 972 l 1153 972 q 1170 965 1165 972 q 1172 946 1175 957 l 949 21 q 922 0 944 0 l 769 0 q 743 21 747 0 l 604 611 q 599 617 603 617 q 593 611 594 617 l 464 21 q 439 0 460 0 l 297 0 m 671 1083 q 675 1071 675 1078 q 654 1056 675 1056 l 538 1056 q 510 1071 521 1056 l 421 1197 q 415 1213 415 1204 q 435 1226 415 1226 l 575 1226 q 603 1210 594 1226 l 671 1083 z "},"X":{"ha":876,"x_min":46,"x_max":831,"o":"m 67 0 q 51 4 57 0 q 46 15 46 8 q 50 28 46 22 l 314 481 q 314 492 315 486 l 50 944 q 46 957 46 951 q 51 968 46 964 q 67 972 57 972 l 228 972 q 257 956 249 972 l 433 644 q 440 640 436 640 q 444 644 443 640 l 621 956 q 650 972 629 972 l 810 972 q 825 968 819 972 q 831 957 831 964 q 826 944 831 951 l 563 492 q 563 481 561 486 l 826 28 q 831 15 831 22 q 825 4 831 8 q 810 0 819 0 l 650 0 q 621 17 629 0 l 444 326 q 440 331 443 331 q 433 326 436 331 l 256 17 q 226 0 247 0 l 67 0 z "},"Y":{"ha":857,"x_min":43,"x_max":814,"o":"m 354 1 q 331 25 331 1 l 331 368 l 328 379 l 47 944 q 43 957 43 951 q 49 968 43 964 q 64 972 54 972 l 225 972 q 253 954 244 972 l 422 593 q 428 589 425 589 q 433 593 432 589 l 603 954 q 631 972 613 972 l 793 972 q 814 956 814 972 q 811 944 814 949 l 528 379 l 525 368 l 525 25 q 501 1 525 1 l 354 1 z "},"Ý":{"ha":857,"x_min":43,"x_max":814,"o":"m 354 1 q 331 25 331 1 l 331 368 l 328 379 l 47 944 q 43 957 43 951 q 49 968 43 964 q 64 972 54 972 l 225 972 q 253 954 244 972 l 422 593 q 428 589 425 589 q 433 593 432 589 l 603 954 q 631 972 613 972 l 793 972 q 814 956 814 972 q 811 944 814 949 l 528 379 l 525 368 l 525 25 q 501 1 525 1 l 354 1 m 360 1056 q 339 1071 339 1056 q 343 1083 339 1078 l 411 1210 q 439 1226 419 1226 l 579 1226 q 594 1222 589 1226 q 600 1211 600 1218 q 594 1197 600 1204 l 506 1071 q 476 1056 494 1056 l 360 1056 z "},"Ŷ":{"ha":857,"x_min":43,"x_max":814,"o":"m 354 1 q 331 25 331 1 l 331 368 l 328 379 l 47 944 q 43 957 43 951 q 49 968 43 964 q 64 972 54 972 l 225 972 q 253 954 244 972 l 422 593 q 428 589 425 589 q 433 593 432 589 l 603 954 q 631 972 613 972 l 793 972 q 814 956 814 972 q 811 944 814 949 l 528 379 l 525 368 l 525 25 q 501 1 525 1 l 354 1 m 240 1051 q 225 1056 231 1051 q 219 1067 219 1060 q 225 1081 219 1074 l 322 1215 q 351 1229 332 1229 l 501 1229 q 531 1215 521 1229 l 631 1081 q 636 1067 636 1074 q 631 1056 636 1060 q 615 1051 625 1051 l 513 1051 q 485 1067 496 1051 l 433 1146 q 427 1150 431 1150 q 422 1146 424 1150 l 371 1067 q 343 1051 360 1051 l 240 1051 z "},"Ÿ":{"ha":857,"x_min":43,"x_max":814,"o":"m 354 1 q 331 25 331 1 l 331 368 l 328 379 l 47 944 q 43 957 43 951 q 49 968 43 964 q 64 972 54 972 l 225 972 q 253 954 244 972 l 422 593 q 428 589 425 589 q 433 593 432 589 l 603 954 q 631 972 613 972 l 793 972 q 814 956 814 972 q 811 944 814 949 l 528 379 l 525 368 l 525 25 q 501 1 525 1 l 354 1 m 296 1051 q 225 1078 253 1051 q 197 1149 197 1106 q 225 1219 197 1192 q 296 1247 253 1247 q 366 1220 339 1247 q 393 1149 393 1193 q 366 1078 393 1106 q 296 1051 339 1051 m 563 1051 q 491 1078 518 1051 q 464 1149 464 1104 q 491 1220 464 1193 q 563 1247 518 1247 q 633 1220 606 1247 q 660 1149 660 1193 q 633 1078 660 1106 q 563 1051 606 1051 z "},"Ỳ":{"ha":857,"x_min":43,"x_max":814,"o":"m 354 1 q 331 25 331 1 l 331 368 l 328 379 l 47 944 q 43 957 43 951 q 49 968 43 964 q 64 972 54 972 l 225 972 q 253 954 244 972 l 422 593 q 428 589 425 589 q 433 593 432 589 l 603 954 q 631 972 613 972 l 793 972 q 814 956 814 972 q 811 944 814 949 l 528 379 l 525 368 l 525 25 q 501 1 525 1 l 354 1 m 500 1083 q 504 1071 504 1078 q 483 1056 504 1056 l 367 1056 q 339 1071 350 1056 l 250 1197 q 244 1213 244 1204 q 264 1226 244 1226 l 404 1226 q 432 1210 424 1226 l 500 1083 z "},"Z":{"ha":774,"x_min":44,"x_max":721,"o":"m 68 0 q 44 24 44 0 l 44 161 q 54 190 44 179 l 499 794 q 500 801 501 799 q 493 804 499 804 l 68 804 q 44 828 44 804 l 44 949 q 68 972 44 972 l 697 972 q 721 949 721 972 l 721 811 q 711 782 721 793 l 267 178 q 265 171 264 174 q 272 168 267 168 l 697 168 q 721 144 721 168 l 721 24 q 697 0 721 0 l 68 0 z "},"Ź":{"ha":774,"x_min":44,"x_max":721,"o":"m 68 0 q 44 24 44 0 l 44 161 q 54 190 44 179 l 499 794 q 500 801 501 799 q 493 804 499 804 l 68 804 q 44 828 44 804 l 44 949 q 68 972 44 972 l 697 972 q 721 949 721 972 l 721 811 q 711 782 721 793 l 267 178 q 265 171 264 174 q 272 168 267 168 l 697 168 q 721 144 721 168 l 721 24 q 697 0 721 0 l 68 0 m 317 1074 q 296 1089 296 1074 q 300 1101 296 1096 l 368 1228 q 396 1244 376 1244 l 536 1244 q 551 1240 546 1244 q 557 1229 557 1236 q 551 1215 557 1222 l 463 1089 q 433 1074 451 1074 l 317 1074 z "},"Ž":{"ha":774,"x_min":44,"x_max":721,"o":"m 68 0 q 44 24 44 0 l 44 161 q 54 190 44 179 l 499 794 q 500 801 501 799 q 493 804 499 804 l 68 804 q 44 828 44 804 l 44 949 q 68 972 44 972 l 697 972 q 721 949 721 972 l 721 811 q 711 782 721 793 l 267 178 q 265 171 264 174 q 272 168 267 168 l 697 168 q 721 144 721 168 l 721 24 q 697 0 721 0 l 68 0 m 300 1061 q 272 1076 283 1061 l 185 1210 q 181 1224 181 1218 q 185 1235 181 1231 q 200 1239 190 1239 l 300 1239 q 328 1224 317 1239 l 379 1144 q 385 1140 382 1140 q 390 1144 389 1140 l 442 1224 q 469 1239 453 1239 l 568 1239 q 583 1235 578 1239 q 589 1224 589 1231 q 583 1210 589 1217 l 493 1076 q 465 1061 482 1061 l 300 1061 z "},"Ż":{"ha":774,"x_min":44,"x_max":721,"o":"m 68 0 q 44 24 44 0 l 44 161 q 54 190 44 179 l 499 794 q 500 801 501 799 q 493 804 499 804 l 68 804 q 44 828 44 804 l 44 949 q 68 972 44 972 l 697 972 q 721 949 721 972 l 721 811 q 711 782 721 793 l 267 178 q 265 171 264 174 q 272 168 267 168 l 697 168 q 721 144 721 168 l 721 24 q 697 0 721 0 l 68 0 m 385 1061 q 319 1086 344 1061 q 294 1151 294 1111 q 319 1217 294 1192 q 385 1242 344 1242 q 449 1217 425 1242 q 474 1151 474 1192 q 449 1086 474 1111 q 385 1061 425 1061 z "},"Ģ":{"ha":843,"x_min":65,"x_max":785,"o":"m 426 -11 q 238 32 319 -11 q 110 152 156 75 q 65 331 65 229 l 65 642 q 110 821 65 743 q 238 941 156 899 q 426 983 319 983 q 613 942 532 983 q 740 828 694 900 q 785 669 785 757 l 785 667 q 761 643 785 643 l 613 643 q 595 647 601 643 q 589 654 589 650 l 589 664 q 544 772 589 728 q 426 815 500 815 q 306 769 351 815 q 261 647 261 722 l 261 325 q 310 203 261 250 q 433 157 358 157 q 549 195 506 157 q 592 301 592 233 l 592 363 q 583 371 592 371 l 436 371 q 413 394 413 371 l 413 508 q 436 532 413 532 l 761 532 q 785 508 785 532 l 785 332 q 740 149 785 226 q 615 30 696 71 q 426 -11 533 -11 z "},"Ķ":{"ha":869,"x_min":85,"x_max":840,"o":"m 108 0 q 85 24 85 0 l 85 949 q 108 972 85 972 l 257 972 q 281 949 281 972 l 281 569 q 284 563 281 564 q 290 565 288 561 l 607 958 q 636 972 617 972 l 804 972 q 819 969 814 972 q 825 958 825 965 q 818 943 825 953 l 515 557 q 515 546 511 553 l 836 28 q 840 15 840 22 q 821 0 840 0 l 653 0 q 625 15 635 0 l 382 410 q 376 414 381 414 q 369 410 372 414 l 285 301 q 281 292 281 296 l 281 24 q 257 0 281 0 l 108 0 z "},"Ņ":{"ha":914,"x_min":85,"x_max":829,"o":"m 108 0 q 85 24 85 0 l 85 949 q 108 972 85 972 l 251 972 q 279 957 269 972 l 626 379 q 633 375 629 374 q 636 382 636 376 l 636 949 q 660 972 636 972 l 806 972 q 829 949 829 972 l 829 24 q 806 0 829 0 l 664 0 q 636 17 647 0 l 288 600 q 281 604 285 606 q 278 597 278 603 l 279 24 q 256 0 279 0 l 108 0 z "},"Ŗ":{"ha":853,"x_min":85,"x_max":801,"o":"m 624 0 q 596 18 606 0 l 425 396 q 415 403 422 403 l 289 403 q 281 394 281 403 l 281 24 q 257 0 281 0 l 108 0 q 85 24 85 0 l 85 950 q 108 974 85 974 l 499 974 q 655 937 588 974 q 759 833 722 900 q 796 681 796 767 q 749 518 796 586 q 618 422 701 450 q 613 417 614 421 q 614 411 611 414 l 797 28 q 801 15 801 22 q 796 4 801 8 q 781 0 790 0 l 624 0 m 289 804 q 281 796 281 804 l 281 563 q 289 554 281 554 l 469 554 q 565 588 528 554 q 601 678 601 622 q 565 769 601 733 q 469 804 528 804 l 289 804 z "},"Ţ":{"ha":813,"x_min":39,"x_max":772,"o":"m 508 803 q 500 794 500 803 l 500 24 q 489 0 500 0 q 485 -3 485 0 q 489 -10 485 -6 q 542 -125 542 -64 q 538 -158 542 -142 q 488 -226 524 -206 q 406 -246 453 -246 q 326 -233 367 -246 q 310 -206 307 -228 l 317 -150 q 346 -133 321 -128 q 365 -136 360 -136 q 411 -104 401 -136 q 413 -92 413 -100 q 353 -4 413 -53 q 343 0 349 0 l 328 0 q 304 24 304 0 l 304 794 q 296 803 304 803 l 63 803 q 39 826 39 803 l 39 949 q 63 972 39 972 l 749 972 q 772 949 772 972 l 772 826 q 749 803 772 803 l 508 803 z "},"Ș":{"ha":822,"x_min":53,"x_max":769,"o":"m 414 -11 q 224 25 306 -11 q 97 126 142 61 q 53 279 53 192 l 53 303 q 76 326 53 326 l 222 326 q 246 308 246 326 l 246 289 q 297 195 246 233 q 429 157 347 157 q 538 188 503 157 q 574 265 574 219 q 551 322 574 299 q 492 362 529 344 q 371 410 454 379 q 213 475 276 442 q 104 566 149 508 q 60 708 60 624 q 103 854 60 792 q 223 950 146 917 q 399 983 300 983 q 588 946 504 983 q 717 841 671 908 q 764 685 764 774 l 764 671 q 740 647 764 647 l 594 647 q 571 661 571 647 l 571 675 q 523 774 571 733 q 392 815 475 815 q 289 788 325 815 q 253 711 253 760 q 274 653 253 676 q 337 610 294 629 q 468 560 379 590 q 622 497 565 524 q 724 414 679 469 q 769 271 769 358 q 726 122 769 186 q 602 24 682 58 q 414 -11 522 -11 z "},"Ț":{"ha":832,"x_min":39,"x_max":772,"o":"m 749 972 q 772 949 772 972 l 772 826 q 749 803 772 803 l 508 803 q 500 794 500 803 l 500 24 q 476 0 500 0 l 328 0 q 304 24 304 0 l 304 794 q 296 803 304 803 l 63 803 q 39 826 39 803 l 39 949 q 63 972 39 972 l 749 972 z "},"a":{"ha":733,"x_min":36,"x_max":669,"o":"m 358 725 q 519 694 449 725 q 630 608 590 663 q 669 488 669 554 l 669 24 q 646 0 669 0 l 497 0 q 474 24 474 0 l 474 57 q 471 63 474 63 q 464 60 468 64 q 274 -11 400 -11 q 101 42 167 -11 q 36 197 36 94 q 111 363 36 304 q 325 422 186 422 l 465 422 q 474 431 474 422 l 474 460 q 445 531 474 506 q 363 557 417 557 q 294 543 321 557 q 257 504 267 529 q 229 486 249 485 l 75 506 q 58 512 64 507 q 53 525 51 517 q 101 628 60 582 q 209 699 142 674 q 358 725 276 725 m 331 135 q 432 167 390 135 q 474 249 474 199 l 474 297 q 465 306 474 306 l 367 306 q 268 282 304 306 q 232 215 232 258 q 259 156 232 178 q 331 135 286 135 z "},"á":{"ha":733,"x_min":36,"x_max":669,"o":"m 358 725 q 519 694 449 725 q 630 608 590 663 q 669 488 669 554 l 669 24 q 646 0 669 0 l 497 0 q 474 24 474 0 l 474 57 q 471 63 474 63 q 464 60 468 64 q 274 -11 400 -11 q 101 42 167 -11 q 36 197 36 94 q 111 363 36 304 q 325 422 186 422 l 465 422 q 474 431 474 422 l 474 460 q 445 531 474 506 q 363 557 417 557 q 294 543 321 557 q 257 504 267 529 q 229 486 249 485 l 75 506 q 58 512 64 507 q 53 525 51 517 q 101 628 60 582 q 209 699 142 674 q 358 725 276 725 m 331 135 q 432 167 390 135 q 474 249 474 199 l 474 297 q 465 306 474 306 l 367 306 q 268 282 304 306 q 232 215 232 258 q 259 156 232 178 q 331 135 286 135 m 293 808 q 272 824 272 808 q 276 836 272 831 l 344 963 q 372 979 353 979 l 513 979 q 528 975 522 979 q 533 964 533 971 q 528 950 533 957 l 439 824 q 410 808 428 808 l 293 808 z "},"ă":{"ha":733,"x_min":36,"x_max":669,"o":"m 358 725 q 519 694 449 725 q 630 608 590 663 q 669 488 669 554 l 669 24 q 646 0 669 0 l 497 0 q 474 24 474 0 l 474 57 q 471 63 474 63 q 464 60 468 64 q 274 -11 400 -11 q 101 42 167 -11 q 36 197 36 94 q 111 363 36 304 q 325 422 186 422 l 465 422 q 474 431 474 422 l 474 460 q 445 531 474 506 q 363 557 417 557 q 294 543 321 557 q 257 504 267 529 q 229 486 249 485 l 75 506 q 58 512 64 507 q 53 525 51 517 q 101 628 60 582 q 209 699 142 674 q 358 725 276 725 m 331 135 q 432 167 390 135 q 474 249 474 199 l 474 297 q 465 306 474 306 l 367 306 q 268 282 304 306 q 232 215 232 258 q 259 156 232 178 q 331 135 286 135 m 361 774 q 247 813 294 774 q 189 914 199 853 l 189 917 q 213 939 189 939 l 268 939 q 293 917 288 939 q 319 877 300 893 q 361 861 338 861 q 405 877 386 861 q 431 917 424 893 q 456 939 436 939 l 511 939 q 529 933 522 939 q 535 915 536 926 q 476 814 525 854 q 361 774 428 774 z "},"ǎ":{"ha":733,"x_min":36,"x_max":669,"o":"m 358 725 q 519 694 449 725 q 630 608 590 663 q 669 488 669 554 l 669 24 q 646 0 669 0 l 497 0 q 474 24 474 0 l 474 57 q 471 63 474 63 q 464 60 468 64 q 274 -11 400 -11 q 101 42 167 -11 q 36 197 36 94 q 111 363 36 304 q 325 422 186 422 l 465 422 q 474 431 474 422 l 474 460 q 445 531 474 506 q 363 557 417 557 q 294 543 321 557 q 257 504 267 529 q 229 486 249 485 l 75 506 q 58 512 64 507 q 53 525 51 517 q 101 628 60 582 q 209 699 142 674 q 358 725 276 725 m 331 135 q 432 167 390 135 q 474 249 474 199 l 474 297 q 465 306 474 306 l 367 306 q 268 282 304 306 q 232 215 232 258 q 259 156 232 178 q 331 135 286 135 m 276 793 q 249 808 260 793 l 161 940 q 157 954 157 949 q 162 965 157 961 q 176 969 167 969 l 276 969 q 304 954 293 969 l 356 875 q 360 871 357 871 q 367 875 364 871 l 418 954 q 446 969 429 969 l 544 969 q 560 965 554 969 q 565 954 565 961 q 560 940 565 947 l 469 808 q 442 793 458 793 l 276 793 z "},"â":{"ha":733,"x_min":36,"x_max":669,"o":"m 358 725 q 519 694 449 725 q 630 608 590 663 q 669 488 669 554 l 669 24 q 646 0 669 0 l 497 0 q 474 24 474 0 l 474 57 q 471 63 474 63 q 464 60 468 64 q 274 -11 400 -11 q 101 42 167 -11 q 36 197 36 94 q 111 363 36 304 q 325 422 186 422 l 465 422 q 474 431 474 422 l 474 460 q 445 531 474 506 q 363 557 417 557 q 294 543 321 557 q 257 504 267 529 q 229 486 249 485 l 75 506 q 58 512 64 507 q 53 525 51 517 q 101 628 60 582 q 209 699 142 674 q 358 725 276 725 m 331 135 q 432 167 390 135 q 474 249 474 199 l 474 297 q 465 306 474 306 l 367 306 q 268 282 304 306 q 232 215 232 258 q 259 156 232 178 q 331 135 286 135 m 174 804 q 158 808 164 804 q 153 819 153 813 q 158 833 153 826 l 256 968 q 285 982 265 982 l 435 982 q 464 968 454 982 l 564 833 q 569 819 569 826 q 564 808 569 813 q 549 804 558 804 l 446 804 q 418 819 429 804 l 367 899 q 360 903 364 903 q 356 899 357 903 l 304 819 q 276 804 293 804 l 174 804 z "},"ä":{"ha":733,"x_min":36,"x_max":669,"o":"m 358 725 q 519 694 449 725 q 630 608 590 663 q 669 488 669 554 l 669 24 q 646 0 669 0 l 497 0 q 474 24 474 0 l 474 57 q 471 63 474 63 q 464 60 468 64 q 274 -11 400 -11 q 101 42 167 -11 q 36 197 36 94 q 111 363 36 304 q 325 422 186 422 l 465 422 q 474 431 474 422 l 474 460 q 445 531 474 506 q 363 557 417 557 q 294 543 321 557 q 257 504 267 529 q 229 486 249 485 l 75 506 q 58 512 64 507 q 53 525 51 517 q 101 628 60 582 q 209 699 142 674 q 358 725 276 725 m 331 135 q 432 167 390 135 q 474 249 474 199 l 474 297 q 465 306 474 306 l 367 306 q 268 282 304 306 q 232 215 232 258 q 259 156 232 178 q 331 135 286 135 m 229 804 q 158 831 186 804 q 131 901 131 858 q 158 972 131 944 q 229 1000 186 1000 q 299 973 272 1000 q 326 901 326 946 q 299 831 326 858 q 229 804 272 804 m 496 804 q 424 831 451 804 q 397 901 397 857 q 424 973 397 946 q 496 1000 451 1000 q 566 973 539 1000 q 593 901 593 946 q 566 831 593 858 q 496 804 539 804 z "},"à":{"ha":733,"x_min":36,"x_max":669,"o":"m 358 725 q 519 694 449 725 q 630 608 590 663 q 669 488 669 554 l 669 24 q 646 0 669 0 l 497 0 q 474 24 474 0 l 474 57 q 471 63 474 63 q 464 60 468 64 q 274 -11 400 -11 q 101 42 167 -11 q 36 197 36 94 q 111 363 36 304 q 325 422 186 422 l 465 422 q 474 431 474 422 l 474 460 q 445 531 474 506 q 363 557 417 557 q 294 543 321 557 q 257 504 267 529 q 229 486 249 485 l 75 506 q 58 512 64 507 q 53 525 51 517 q 101 628 60 582 q 209 699 142 674 q 358 725 276 725 m 331 135 q 432 167 390 135 q 474 249 474 199 l 474 297 q 465 306 474 306 l 367 306 q 268 282 304 306 q 232 215 232 258 q 259 156 232 178 q 331 135 286 135 m 433 836 q 438 824 438 831 q 417 808 438 808 l 300 808 q 272 824 283 808 l 183 950 q 178 965 178 957 q 197 979 178 979 l 338 979 q 365 963 357 979 l 433 836 z "},"ā":{"ha":733,"x_min":36,"x_max":669,"o":"m 358 725 q 519 694 449 725 q 630 608 590 663 q 669 488 669 554 l 669 24 q 646 0 669 0 l 497 0 q 474 24 474 0 l 474 57 q 471 63 474 63 q 464 60 468 64 q 274 -11 400 -11 q 101 42 167 -11 q 36 197 36 94 q 111 363 36 304 q 325 422 186 422 l 465 422 q 474 431 474 422 l 474 460 q 445 531 474 506 q 363 557 417 557 q 294 543 321 557 q 257 504 267 529 q 229 486 249 485 l 75 506 q 58 512 64 507 q 53 525 51 517 q 101 628 60 582 q 209 699 142 674 q 358 725 276 725 m 331 135 q 432 167 390 135 q 474 249 474 199 l 474 297 q 465 306 474 306 l 367 306 q 268 282 304 306 q 232 215 232 258 q 259 156 232 178 q 331 135 286 135 m 181 814 q 157 838 157 814 l 157 922 q 181 946 157 946 l 542 946 q 565 922 565 946 l 565 838 q 542 814 565 814 l 181 814 z "},"ą":{"ha":833,"x_min":36,"x_max":690,"o":"m 654 -154 q 664 -153 658 -153 q 683 -171 679 -153 l 690 -226 l 690 -231 q 674 -254 690 -249 q 594 -267 633 -267 q 512 -247 547 -267 q 463 -179 476 -226 q 458 -146 458 -162 q 535 -10 458 -72 q 538 -3 539 -7 q 531 0 536 0 l 497 0 q 474 24 474 0 l 474 57 q 471 63 474 63 q 464 60 468 64 q 274 -11 400 -11 q 101 42 167 -11 q 36 197 36 94 q 111 363 36 304 q 325 422 186 422 l 465 422 q 474 431 474 422 l 474 460 q 445 531 474 506 q 363 557 417 557 q 294 543 321 557 q 257 504 267 529 q 229 486 249 485 l 75 506 q 58 514 64 507 q 54 532 53 521 q 152 671 68 617 q 358 725 236 725 q 519 694 449 725 q 630 608 590 663 q 669 488 669 554 l 669 6 q 670 1 669 4 q 668 -4 671 -1 q 643 -28 664 -10 q 588 -114 588 -76 q 589 -125 588 -121 q 635 -157 599 -157 q 654 -154 640 -157 m 331 135 q 432 167 390 135 q 474 249 474 199 l 474 297 q 465 306 474 306 l 367 306 q 268 282 304 306 q 232 215 232 258 q 259 156 232 178 q 331 135 286 135 z "},"å":{"ha":733,"x_min":36,"x_max":669,"o":"m 358 725 q 519 694 449 725 q 630 608 590 663 q 669 488 669 554 l 669 24 q 646 0 669 0 l 497 0 q 474 24 474 0 l 474 57 q 471 63 474 63 q 464 60 468 64 q 274 -11 400 -11 q 101 42 167 -11 q 36 197 36 94 q 111 363 36 304 q 325 422 186 422 l 465 422 q 474 431 474 422 l 474 460 q 445 531 474 506 q 363 557 417 557 q 294 543 321 557 q 257 504 267 529 q 229 486 249 485 l 75 506 q 58 512 64 507 q 53 525 51 517 q 101 628 60 582 q 209 699 142 674 q 358 725 276 725 m 331 135 q 432 167 390 135 q 474 249 474 199 l 474 297 q 465 306 474 306 l 367 306 q 268 282 304 306 q 232 215 232 258 q 259 156 232 178 q 331 135 286 135 m 361 789 q 251 833 296 789 q 206 943 206 878 q 251 1053 206 1008 q 361 1097 296 1097 q 472 1052 426 1097 q 517 943 517 1007 q 472 834 517 879 q 361 789 426 789 m 361 878 q 407 897 388 878 q 426 943 426 917 q 408 991 426 972 q 361 1010 389 1010 q 314 991 333 1010 q 294 943 294 972 q 314 897 294 915 q 361 878 333 878 z "},"ã":{"ha":733,"x_min":36,"x_max":669,"o":"m 358 725 q 519 694 449 725 q 630 608 590 663 q 669 488 669 554 l 669 24 q 646 0 669 0 l 497 0 q 474 24 474 0 l 474 57 q 471 63 474 63 q 464 60 468 64 q 274 -11 400 -11 q 101 42 167 -11 q 36 197 36 94 q 111 363 36 304 q 325 422 186 422 l 465 422 q 474 431 474 422 l 474 460 q 445 531 474 506 q 363 557 417 557 q 294 543 321 557 q 257 504 267 529 q 229 486 249 485 l 75 506 q 58 512 64 507 q 53 525 51 517 q 101 628 60 582 q 209 699 142 674 q 358 725 276 725 m 331 135 q 432 167 390 135 q 474 249 474 199 l 474 297 q 465 306 474 306 l 367 306 q 268 282 304 306 q 232 215 232 258 q 259 156 232 178 q 331 135 286 135 m 456 808 q 410 817 431 808 q 364 843 390 826 q 333 860 344 856 q 310 865 322 865 q 258 842 278 865 q 239 829 250 829 q 226 835 232 829 l 178 868 q 167 888 167 876 q 169 900 167 896 q 222 969 189 946 q 296 992 256 992 q 340 984 319 992 q 386 960 360 976 q 453 935 429 935 q 500 960 482 935 q 518 972 508 972 q 532 967 525 972 l 582 933 q 592 914 592 926 q 583 890 592 903 q 524 829 558 850 q 456 808 490 808 z "},"æ":{"ha":1165,"x_min":36,"x_max":1118,"o":"m 304 -11 q 110 42 183 -11 q 36 197 36 94 q 111 359 36 299 q 324 419 186 419 l 464 419 q 472 428 472 419 l 472 454 q 443 528 472 500 q 358 557 414 557 q 291 542 319 557 q 251 504 263 528 q 224 486 243 485 l 74 506 q 57 514 63 507 q 53 532 51 521 q 103 631 61 586 q 208 700 144 675 q 344 725 272 725 q 485 694 421 725 q 578 618 549 664 q 589 618 583 613 q 674 693 617 661 q 801 725 732 725 q 983 669 899 725 q 1096 519 1067 613 q 1118 319 1117 453 q 1094 294 1118 294 l 682 294 q 674 286 674 294 q 678 256 674 279 q 728 184 686 208 q 832 160 771 160 q 975 215 928 160 q 993 226 983 226 q 1007 219 1000 226 l 1081 150 q 1090 131 1090 140 q 1085 117 1090 128 q 971 24 1040 58 q 815 -11 901 -11 q 671 20 735 -11 q 579 99 607 51 q 569 103 574 107 q 467 21 538 53 q 304 -11 396 -11 m 672 428 q 681 419 672 419 l 911 419 q 918 425 918 419 q 911 469 918 451 q 869 533 900 510 q 796 557 839 557 q 721 533 751 557 q 679 469 690 508 q 672 428 675 457 m 335 131 q 431 162 390 131 q 472 246 472 193 l 472 286 q 464 294 472 294 l 365 294 q 267 274 303 294 q 232 213 232 253 q 260 153 232 176 q 335 131 288 131 z "},"b":{"ha":774,"x_min":75,"x_max":731,"o":"m 704 532 q 731 360 731 463 q 707 193 731 260 q 606 45 679 101 q 439 -11 533 -11 q 281 64 338 -11 q 274 67 278 68 q 271 61 271 67 l 271 24 q 247 0 271 0 l 99 0 q 75 24 75 0 l 75 949 q 99 972 75 972 l 247 972 q 271 949 271 972 l 271 663 q 274 656 271 657 q 281 658 278 654 q 439 726 336 726 q 603 674 533 726 q 704 532 674 621 m 496 219 q 525 356 525 274 q 492 501 525 446 q 394 554 458 554 q 301 500 336 554 q 272 357 272 449 q 300 219 272 271 q 394 160 333 160 q 496 219 463 160 z "},"c":{"ha":746,"x_min":54,"x_max":704,"o":"m 386 -11 q 194 44 275 -11 q 78 197 113 100 q 54 361 54 267 q 78 522 54 454 q 193 671 111 617 q 386 725 275 725 q 581 669 497 725 q 693 529 665 614 q 704 486 701 510 l 704 483 q 683 461 704 465 l 538 439 l 531 438 q 511 454 514 438 l 507 474 q 464 533 497 510 q 385 557 431 557 q 310 535 340 557 q 267 474 279 513 q 251 360 251 432 q 265 246 251 288 q 309 181 278 204 q 385 157 340 157 q 460 180 428 157 q 506 242 493 203 l 507 249 l 507 249 q 517 262 508 254 q 535 268 525 269 l 681 246 q 697 236 692 243 q 700 219 701 229 q 693 188 697 197 q 580 42 664 94 q 386 -11 496 -11 z "},"ć":{"ha":746,"x_min":54,"x_max":704,"o":"m 386 -11 q 194 44 275 -11 q 78 197 113 100 q 54 361 54 267 q 78 522 54 454 q 193 671 111 617 q 386 725 275 725 q 581 669 497 725 q 693 529 665 614 q 704 486 701 510 l 704 483 q 683 461 704 465 l 538 439 l 531 438 q 511 454 514 438 l 507 474 q 464 533 497 510 q 385 557 431 557 q 310 535 340 557 q 267 474 279 513 q 251 360 251 432 q 265 246 251 288 q 309 181 278 204 q 385 157 340 157 q 460 180 428 157 q 506 242 493 203 l 507 249 l 507 249 q 517 262 508 254 q 535 268 525 269 l 681 246 q 697 236 692 243 q 700 219 701 229 q 693 188 697 197 q 580 42 664 94 q 386 -11 496 -11 m 314 808 q 293 824 293 808 q 297 836 293 831 l 365 963 q 393 979 374 979 l 533 979 q 549 975 543 979 q 554 964 554 971 q 549 950 554 957 l 460 824 q 431 808 449 808 l 314 808 z "},"č":{"ha":746,"x_min":54,"x_max":704,"o":"m 386 -11 q 194 44 275 -11 q 78 197 113 100 q 54 361 54 267 q 78 522 54 454 q 193 671 111 617 q 386 725 275 725 q 581 669 497 725 q 693 529 665 614 q 704 486 701 510 l 704 483 q 683 461 704 465 l 538 439 l 531 438 q 511 454 514 438 l 507 474 q 464 533 497 510 q 385 557 431 557 q 310 535 340 557 q 267 474 279 513 q 251 360 251 432 q 265 246 251 288 q 309 181 278 204 q 385 157 340 157 q 460 180 428 157 q 506 242 493 203 l 507 249 l 507 249 q 517 262 508 254 q 535 268 525 269 l 681 246 q 697 236 692 243 q 700 219 701 229 q 693 188 697 197 q 580 42 664 94 q 386 -11 496 -11 m 297 796 q 269 811 281 796 l 182 944 q 178 958 178 953 q 183 969 178 965 q 197 974 188 974 l 297 974 q 325 958 314 974 l 376 879 q 383 875 379 875 q 388 879 386 875 l 439 958 q 467 974 450 974 l 565 974 q 581 969 575 974 q 586 958 586 965 q 581 944 586 951 l 490 811 q 463 796 479 796 l 297 796 z "},"ç":{"ha":746,"x_min":54,"x_max":704,"o":"m 507 249 l 507 249 q 517 262 508 254 q 535 268 525 269 l 681 246 q 697 236 692 243 q 700 219 701 229 q 693 188 697 197 q 606 61 668 111 q 458 -4 544 11 q 452 -9 453 -6 q 456 -15 451 -12 q 515 -137 515 -74 q 511 -169 515 -153 q 462 -237 497 -217 q 379 -257 426 -257 q 300 -244 340 -257 q 283 -217 281 -239 l 290 -161 q 319 -144 294 -139 q 339 -147 333 -147 q 385 -115 375 -147 q 386 -104 386 -111 q 317 -7 386 -62 l 307 -3 q 165 67 225 15 q 78 197 106 119 q 54 361 54 267 q 78 522 54 454 q 193 671 111 617 q 386 725 275 725 q 581 669 497 725 q 693 529 665 614 q 704 486 701 510 l 704 483 q 683 461 704 465 l 538 439 l 531 438 q 511 454 514 438 l 507 474 q 464 533 497 510 q 385 557 431 557 q 310 535 340 557 q 267 474 279 513 q 251 360 251 432 q 265 246 251 288 q 309 181 278 204 q 385 157 340 157 q 460 180 428 157 q 506 242 493 203 l 507 249 z "},"ċ":{"ha":746,"x_min":54,"x_max":704,"o":"m 386 -11 q 194 44 275 -11 q 78 197 113 100 q 54 361 54 267 q 78 522 54 454 q 193 671 111 617 q 386 725 275 725 q 581 669 497 725 q 693 529 665 614 q 704 486 701 510 l 704 483 q 683 461 704 465 l 538 439 l 531 438 q 511 454 514 438 l 507 474 q 464 533 497 510 q 385 557 431 557 q 310 535 340 557 q 267 474 279 513 q 251 360 251 432 q 265 246 251 288 q 309 181 278 204 q 385 157 340 157 q 460 180 428 157 q 506 242 493 203 l 507 249 l 507 249 q 517 262 508 254 q 535 268 525 269 l 681 246 q 697 236 692 243 q 700 219 701 229 q 693 188 697 197 q 580 42 664 94 q 386 -11 496 -11 m 382 796 q 317 821 342 796 q 292 886 292 846 q 317 951 292 926 q 382 976 342 976 q 447 951 422 976 q 471 886 471 926 q 447 821 471 846 q 382 796 422 796 z "},"d":{"ha":774,"x_min":43,"x_max":699,"o":"m 503 949 q 526 972 503 972 l 675 972 q 699 949 699 972 l 699 24 q 675 0 699 0 l 526 0 q 503 24 503 0 l 503 61 q 499 67 503 67 q 493 64 496 68 q 335 -11 436 -11 q 167 45 240 -11 q 67 193 94 101 q 43 360 43 260 q 69 532 43 463 q 170 674 100 621 q 335 726 240 726 q 493 658 438 726 q 499 656 496 654 q 503 663 503 657 l 503 949 m 474 219 q 501 357 501 271 q 472 500 501 449 q 379 554 438 554 q 282 501 315 554 q 249 356 249 446 q 278 219 249 274 q 379 160 311 160 q 474 219 440 160 z "},"ð":{"ha":751,"x_min":42,"x_max":688,"o":"m 668 508 q 688 325 688 422 q 665 176 688 239 q 550 40 631 92 q 364 -11 469 -11 q 177 40 257 -11 q 64 176 97 90 q 42 325 42 236 q 64 472 42 411 q 120 560 82 522 q 210 613 158 597 q 342 635 263 635 q 439 619 404 635 q 444 619 443 617 q 444 626 446 621 q 389 735 425 675 q 378 739 385 742 l 247 703 q 240 701 244 701 q 226 707 232 701 q 218 721 221 713 l 203 779 q 201 786 201 782 q 219 807 201 803 l 306 831 q 308 842 315 833 q 214 943 272 885 q 206 958 206 951 q 211 969 206 965 q 226 972 217 972 l 379 972 q 408 958 396 972 l 472 881 q 483 876 476 874 l 593 907 q 600 908 596 908 q 614 903 608 908 q 622 889 619 897 l 638 831 q 639 824 639 828 q 621 803 639 807 l 557 786 q 553 775 549 783 q 627 644 599 707 q 668 508 656 581 m 475 219 q 489 319 489 253 q 475 417 489 383 q 433 476 463 454 q 364 497 404 497 q 294 476 324 497 q 253 417 265 454 q 239 319 239 381 q 254 219 239 257 q 294 159 265 182 q 364 136 324 136 q 433 158 404 136 q 475 219 463 181 z "},"ď":{"ha":988,"x_min":43,"x_max":993,"o":"m 503 949 q 526 972 503 972 l 675 972 q 699 949 699 972 l 699 24 q 675 0 699 0 l 526 0 q 503 24 503 0 l 503 61 q 499 67 503 67 q 493 64 496 68 q 335 -11 436 -11 q 167 45 240 -11 q 67 193 94 101 q 43 360 43 260 q 69 532 43 463 q 170 674 100 621 q 335 726 240 726 q 493 658 438 726 q 499 656 496 654 q 503 663 503 657 l 503 949 m 474 219 q 501 357 501 271 q 472 500 501 449 q 379 554 438 554 q 282 501 315 554 q 249 356 249 446 q 278 219 249 274 q 379 160 311 160 q 474 219 440 160 z "},"đ":{"ha":833,"x_min":43,"x_max":781,"o":"m 757 893 q 781 869 781 893 l 781 799 q 757 775 781 775 l 707 775 q 699 767 699 775 l 699 24 q 675 0 699 0 l 526 0 q 503 24 503 0 l 503 61 q 499 67 503 67 q 493 64 496 68 q 335 -11 436 -11 q 167 45 240 -11 q 67 193 94 101 q 43 360 43 260 q 69 532 43 463 q 170 674 100 621 q 335 726 240 726 q 493 658 438 726 q 499 656 496 654 q 503 663 503 657 l 503 767 q 494 775 503 775 l 313 775 q 289 799 289 775 l 289 869 q 313 893 289 893 l 494 893 q 503 901 503 893 l 503 949 q 526 972 503 972 l 675 972 q 699 949 699 972 l 699 901 q 707 893 699 893 l 757 893 m 474 219 q 501 357 501 271 q 472 500 501 449 q 379 554 438 554 q 282 501 315 554 q 249 356 249 446 q 278 219 249 274 q 379 160 311 160 q 474 219 440 160 z "},"e":{"ha":760,"x_min":57,"x_max":711,"o":"m 417 154 q 557 218 508 158 q 575 228 565 228 q 590 221 583 228 l 669 144 q 678 128 678 136 q 672 111 678 118 q 555 22 626 54 q 399 -11 483 -11 q 187 54 271 -11 q 74 233 103 119 q 57 363 57 294 q 72 499 57 443 q 184 664 100 601 q 383 726 268 726 q 599 646 519 726 q 703 419 679 565 q 711 318 708 374 q 688 294 711 294 l 261 294 q 253 286 253 294 q 263 243 257 257 q 317 177 276 200 q 417 154 358 154 m 381 557 q 306 535 336 557 q 265 475 276 514 q 257 440 258 449 q 264 432 256 432 l 500 432 q 507 438 507 432 q 501 469 507 453 q 458 533 489 510 q 381 557 428 557 z "},"é":{"ha":760,"x_min":57,"x_max":711,"o":"m 417 154 q 557 218 508 158 q 575 228 565 228 q 590 221 583 228 l 669 144 q 678 128 678 136 q 672 111 678 118 q 555 22 626 54 q 399 -11 483 -11 q 187 54 271 -11 q 74 233 103 119 q 57 363 57 294 q 72 499 57 443 q 184 664 100 601 q 383 726 268 726 q 599 646 519 726 q 703 419 679 565 q 711 318 708 374 q 688 294 711 294 l 261 294 q 253 286 253 294 q 263 243 257 257 q 317 177 276 200 q 417 154 358 154 m 381 557 q 306 535 336 557 q 265 475 276 514 q 257 440 258 449 q 264 432 256 432 l 500 432 q 507 438 507 432 q 501 469 507 453 q 458 533 489 510 q 381 557 428 557 m 311 810 q 290 825 290 810 q 294 838 290 832 l 363 964 q 390 981 371 981 l 531 981 q 546 976 540 981 q 551 965 551 972 q 546 951 551 958 l 457 825 q 428 810 446 810 l 311 810 z "},"ě":{"ha":760,"x_min":57,"x_max":711,"o":"m 417 154 q 557 218 508 158 q 575 228 565 228 q 590 221 583 228 l 669 144 q 678 128 678 136 q 672 111 678 118 q 555 22 626 54 q 399 -11 483 -11 q 187 54 271 -11 q 74 233 103 119 q 57 363 57 294 q 72 499 57 443 q 184 664 100 601 q 383 726 268 726 q 599 646 519 726 q 703 419 679 565 q 711 318 708 374 q 688 294 711 294 l 261 294 q 253 286 253 294 q 263 243 257 257 q 317 177 276 200 q 417 154 358 154 m 381 557 q 306 535 336 557 q 265 475 276 514 q 257 440 258 449 q 264 432 256 432 l 500 432 q 507 438 507 432 q 501 469 507 453 q 458 533 489 510 q 381 557 428 557 m 294 794 q 267 810 278 794 l 179 942 q 175 956 175 950 q 180 967 175 963 q 194 971 185 971 l 294 971 q 322 956 311 971 l 374 876 q 378 872 375 872 q 385 876 382 872 l 436 956 q 464 971 447 971 l 563 971 q 578 967 572 971 q 583 956 583 963 q 578 942 583 949 l 488 810 q 460 794 476 794 l 294 794 z "},"ȩ":{"ha":760,"x_min":57,"x_max":711,"o":"m 417 154 q 557 218 508 158 q 575 228 565 228 q 590 221 583 228 l 669 144 q 678 128 678 136 q 672 111 678 118 q 588 38 638 68 q 476 -3 538 8 q 470 -8 471 -4 q 474 -14 469 -11 q 536 -139 536 -72 q 532 -172 536 -156 q 483 -240 518 -219 q 400 -260 447 -260 q 321 -247 361 -260 q 304 -219 301 -242 l 311 -164 q 340 -147 315 -142 q 360 -150 354 -150 q 406 -118 396 -150 q 407 -107 407 -114 q 336 -8 407 -64 l 326 -4 q 163 74 228 13 q 74 233 99 136 q 57 363 57 294 q 72 499 57 443 q 184 664 100 601 q 383 726 268 726 q 599 646 519 726 q 703 419 679 565 q 711 318 708 374 q 688 294 711 294 l 261 294 q 253 286 253 294 q 263 243 257 257 q 317 177 276 200 q 417 154 358 154 m 381 557 q 306 535 336 557 q 265 475 276 514 q 257 440 258 449 q 264 432 256 432 l 500 432 q 507 438 507 432 q 501 469 507 453 q 458 533 489 510 q 381 557 428 557 z "},"ê":{"ha":760,"x_min":57,"x_max":711,"o":"m 417 154 q 557 218 508 158 q 575 228 565 228 q 590 221 583 228 l 669 144 q 678 128 678 136 q 672 111 678 118 q 555 22 626 54 q 399 -11 483 -11 q 187 54 271 -11 q 74 233 103 119 q 57 363 57 294 q 72 499 57 443 q 184 664 100 601 q 383 726 268 726 q 599 646 519 726 q 703 419 679 565 q 711 318 708 374 q 688 294 711 294 l 261 294 q 253 286 253 294 q 263 243 257 257 q 317 177 276 200 q 417 154 358 154 m 381 557 q 306 535 336 557 q 265 475 276 514 q 257 440 258 449 q 264 432 256 432 l 500 432 q 507 438 507 432 q 501 469 507 453 q 458 533 489 510 q 381 557 428 557 m 192 806 q 176 810 182 806 q 171 821 171 814 q 176 835 171 828 l 274 969 q 303 983 283 983 l 453 983 q 482 969 472 983 l 582 835 q 588 821 588 828 q 582 810 588 814 q 567 806 576 806 l 464 806 q 436 821 447 806 l 385 900 q 378 904 382 904 q 374 900 375 904 l 322 821 q 294 806 311 806 l 192 806 z "},"ë":{"ha":760,"x_min":57,"x_max":711,"o":"m 417 154 q 557 218 508 158 q 575 228 565 228 q 590 221 583 228 l 669 144 q 678 128 678 136 q 672 111 678 118 q 555 22 626 54 q 399 -11 483 -11 q 187 54 271 -11 q 74 233 103 119 q 57 363 57 294 q 72 499 57 443 q 184 664 100 601 q 383 726 268 726 q 599 646 519 726 q 703 419 679 565 q 711 318 708 374 q 688 294 711 294 l 261 294 q 253 286 253 294 q 263 243 257 257 q 317 177 276 200 q 417 154 358 154 m 381 557 q 306 535 336 557 q 265 475 276 514 q 257 440 258 449 q 264 432 256 432 l 500 432 q 507 438 507 432 q 501 469 507 453 q 458 533 489 510 q 381 557 428 557 m 247 806 q 176 833 204 806 q 149 903 149 860 q 176 974 149 946 q 247 1001 204 1001 q 317 974 290 1001 q 344 903 344 947 q 317 833 344 860 q 247 806 290 806 m 514 806 q 442 832 469 806 q 415 903 415 858 q 442 974 415 947 q 514 1001 469 1001 q 584 974 557 1001 q 611 903 611 947 q 584 833 611 860 q 514 806 557 806 z "},"ė":{"ha":760,"x_min":57,"x_max":711,"o":"m 417 154 q 557 218 508 158 q 575 228 565 228 q 590 221 583 228 l 669 144 q 678 128 678 136 q 672 111 678 118 q 555 22 626 54 q 399 -11 483 -11 q 187 54 271 -11 q 74 233 103 119 q 57 363 57 294 q 72 499 57 443 q 184 664 100 601 q 383 726 268 726 q 599 646 519 726 q 703 419 679 565 q 711 318 708 374 q 688 294 711 294 l 261 294 q 253 286 253 294 q 263 243 257 257 q 317 177 276 200 q 417 154 358 154 m 381 557 q 306 535 336 557 q 265 475 276 514 q 257 440 258 449 q 264 432 256 432 l 500 432 q 507 438 507 432 q 501 469 507 453 q 458 533 489 510 q 381 557 428 557 m 379 797 q 314 822 339 797 q 289 888 289 847 q 314 953 289 928 q 379 978 339 978 q 444 953 419 978 q 468 888 468 928 q 444 822 468 847 q 379 797 419 797 z "},"è":{"ha":760,"x_min":57,"x_max":711,"o":"m 417 154 q 557 218 508 158 q 575 228 565 228 q 590 221 583 228 l 669 144 q 678 128 678 136 q 672 111 678 118 q 555 22 626 54 q 399 -11 483 -11 q 187 54 271 -11 q 74 233 103 119 q 57 363 57 294 q 72 499 57 443 q 184 664 100 601 q 383 726 268 726 q 599 646 519 726 q 703 419 679 565 q 711 318 708 374 q 688 294 711 294 l 261 294 q 253 286 253 294 q 263 243 257 257 q 317 177 276 200 q 417 154 358 154 m 381 557 q 306 535 336 557 q 265 475 276 514 q 257 440 258 449 q 264 432 256 432 l 500 432 q 507 438 507 432 q 501 469 507 453 q 458 533 489 510 q 381 557 428 557 m 451 838 q 456 825 456 832 q 435 810 456 810 l 318 810 q 290 825 301 810 l 201 951 q 196 967 196 958 q 215 981 196 981 l 356 981 q 383 964 375 981 l 451 838 z "},"ē":{"ha":760,"x_min":57,"x_max":711,"o":"m 417 154 q 557 218 508 158 q 575 228 565 228 q 590 221 583 228 l 669 144 q 678 128 678 136 q 672 111 678 118 q 555 22 626 54 q 399 -11 483 -11 q 187 54 271 -11 q 74 233 103 119 q 57 363 57 294 q 72 499 57 443 q 184 664 100 601 q 383 726 268 726 q 599 646 519 726 q 703 419 679 565 q 711 318 708 374 q 688 294 711 294 l 261 294 q 253 286 253 294 q 263 243 257 257 q 317 177 276 200 q 417 154 358 154 m 381 557 q 306 535 336 557 q 265 475 276 514 q 257 440 258 449 q 264 432 256 432 l 500 432 q 507 438 507 432 q 501 469 507 453 q 458 533 489 510 q 381 557 428 557 m 199 815 q 175 839 175 815 l 175 924 q 199 947 175 947 l 560 947 q 583 924 583 947 l 583 839 q 560 815 583 815 l 199 815 z "},"ę":{"ha":760,"x_min":57,"x_max":711,"o":"m 417 154 q 557 218 508 158 q 575 228 565 228 q 590 221 583 228 l 669 144 q 678 128 678 136 q 672 111 678 118 q 585 37 638 67 q 472 -4 533 7 l 463 -8 q 389 -108 389 -64 q 390 -119 389 -115 q 436 -151 400 -151 q 456 -149 442 -151 q 465 -147 460 -147 q 485 -165 481 -147 l 492 -221 l 492 -225 q 475 -249 492 -243 q 396 -261 435 -261 q 313 -241 349 -261 q 264 -174 278 -221 q 260 -140 260 -157 q 324 -15 260 -74 q 327 -9 328 -12 q 321 -4 326 -6 q 162 76 225 14 q 74 233 99 139 q 57 363 57 294 q 72 499 57 443 q 184 664 100 601 q 383 726 268 726 q 599 646 519 726 q 703 419 679 565 q 711 318 708 374 q 688 294 711 294 l 261 294 q 253 286 253 294 q 263 243 257 257 q 317 177 276 200 q 417 154 358 154 m 381 557 q 306 535 336 557 q 265 475 276 514 q 257 440 258 449 q 264 432 256 432 l 500 432 q 507 438 507 432 q 501 469 507 453 q 458 533 489 510 q 381 557 428 557 z "},"f":{"ha":538,"x_min":36,"x_max":496,"o":"m 472 715 q 496 692 496 715 l 496 574 q 472 550 496 550 l 346 550 q 338 542 338 550 l 338 24 q 314 0 338 0 l 165 0 q 142 24 142 0 l 142 542 q 133 550 142 550 l 60 550 q 36 574 36 550 l 36 692 q 60 715 36 715 l 133 715 q 142 724 142 715 l 142 753 q 168 887 142 839 q 253 955 194 935 q 417 972 313 975 l 463 972 q 486 949 486 972 l 486 850 q 463 826 486 826 l 424 826 q 356 806 375 825 q 338 738 338 788 l 338 724 q 346 715 338 715 l 472 715 z "},"g":{"ha":772,"x_min":51,"x_max":704,"o":"m 508 690 q 532 714 508 714 l 681 714 q 704 690 704 714 l 704 64 q 600 -196 704 -118 q 332 -274 496 -274 q 228 -267 286 -274 q 207 -242 207 -265 l 213 -112 q 220 -95 213 -101 q 239 -92 228 -89 q 324 -99 290 -99 q 460 -60 413 -99 q 508 65 508 -21 q 506 70 508 69 q 499 67 503 71 q 346 11 447 11 q 180 55 256 11 q 72 196 104 99 q 51 361 51 260 q 76 538 51 469 q 175 674 106 622 q 336 725 244 725 q 499 663 440 725 q 506 660 503 658 q 508 667 508 661 l 508 690 m 497 249 q 508 363 508 290 q 506 429 508 406 q 496 474 503 453 q 454 534 483 511 q 382 557 425 557 q 311 534 340 557 q 268 474 282 511 q 249 361 249 432 q 265 250 249 283 q 309 190 278 213 q 383 167 340 167 q 457 190 428 167 q 497 249 486 213 z "},"ğ":{"ha":772,"x_min":51,"x_max":704,"o":"m 508 690 q 532 714 508 714 l 681 714 q 704 690 704 714 l 704 64 q 600 -196 704 -118 q 332 -274 496 -274 q 228 -267 286 -274 q 207 -242 207 -265 l 213 -112 q 220 -95 213 -101 q 239 -92 228 -89 q 324 -99 290 -99 q 460 -60 413 -99 q 508 65 508 -21 q 506 70 508 69 q 499 67 503 71 q 346 11 447 11 q 180 55 256 11 q 72 196 104 99 q 51 361 51 260 q 76 538 51 469 q 175 674 106 622 q 336 725 244 725 q 499 663 440 725 q 506 660 503 658 q 508 667 508 661 l 508 690 m 497 249 q 508 363 508 290 q 506 429 508 406 q 496 474 503 453 q 454 534 483 511 q 382 557 425 557 q 311 534 340 557 q 268 474 282 511 q 249 361 249 432 q 265 250 249 283 q 309 190 278 213 q 383 167 340 167 q 457 190 428 167 q 497 249 486 213 m 403 775 q 288 815 336 775 q 231 915 240 854 l 231 918 q 254 940 231 940 l 310 940 q 335 918 329 940 q 360 878 342 894 q 403 863 379 863 q 447 878 428 863 q 472 918 465 894 q 497 940 478 940 l 553 940 q 571 934 564 940 q 576 917 578 928 q 518 815 567 856 q 403 775 469 775 z "},"ġ":{"ha":772,"x_min":51,"x_max":704,"o":"m 508 690 q 532 714 508 714 l 681 714 q 704 690 704 714 l 704 64 q 600 -196 704 -118 q 332 -274 496 -274 q 228 -267 286 -274 q 207 -242 207 -265 l 213 -112 q 220 -95 213 -101 q 239 -92 228 -89 q 324 -99 290 -99 q 460 -60 413 -99 q 508 65 508 -21 q 506 70 508 69 q 499 67 503 71 q 346 11 447 11 q 180 55 256 11 q 72 196 104 99 q 51 361 51 260 q 76 538 51 469 q 175 674 106 622 q 336 725 244 725 q 499 663 440 725 q 506 660 503 658 q 508 667 508 661 l 508 690 m 497 249 q 508 363 508 290 q 506 429 508 406 q 496 474 503 453 q 454 534 483 511 q 382 557 425 557 q 311 534 340 557 q 268 474 282 511 q 249 361 249 432 q 265 250 249 283 q 309 190 278 213 q 383 167 340 167 q 457 190 428 167 q 497 249 486 213 m 403 797 q 338 822 363 797 q 313 888 313 847 q 338 953 313 928 q 403 978 363 978 q 467 953 443 978 q 492 888 492 928 q 467 822 492 847 q 403 797 443 797 z "},"h":{"ha":760,"x_min":72,"x_max":692,"o":"m 444 725 q 624 657 556 725 q 692 472 692 589 l 692 24 q 668 0 692 0 l 519 0 q 496 24 496 0 l 496 432 q 465 522 496 488 q 383 557 435 557 q 300 522 332 557 q 268 432 268 488 l 268 24 q 244 0 268 0 l 96 0 q 72 24 72 0 l 72 949 q 96 972 72 972 l 244 972 q 268 949 268 972 l 268 651 q 271 644 268 646 q 276 647 274 643 q 444 725 333 725 z "},"ħ":{"ha":760,"x_min":-15,"x_max":692,"o":"m 444 725 q 624 657 556 725 q 692 472 692 589 l 692 24 q 668 0 692 0 l 519 0 q 496 24 496 0 l 496 432 q 465 522 496 488 q 383 557 435 557 q 300 522 332 557 q 268 432 268 488 l 268 24 q 244 0 268 0 l 96 0 q 72 24 72 0 l 72 754 q 64 763 72 763 l 8 763 q -15 786 -15 763 l -15 857 q 8 881 -15 881 l 64 881 q 72 889 72 881 l 72 949 q 96 972 72 972 l 244 972 q 268 949 268 972 l 268 889 q 276 881 268 881 l 453 881 q 476 857 476 881 l 476 786 q 453 763 476 763 l 276 763 q 268 754 268 763 l 268 651 q 271 644 268 646 q 276 647 274 643 q 444 725 333 725 z "},"i":{"ha":361,"x_min":61,"x_max":300,"o":"m 181 782 q 94 815 128 782 q 61 899 61 847 q 94 983 61 950 q 181 1015 128 1015 q 267 983 235 1015 q 300 899 300 951 q 267 814 300 846 q 181 782 235 782 m 107 0 q 83 24 83 0 l 83 690 q 107 714 83 714 l 256 714 q 279 690 279 714 l 279 24 q 256 0 279 0 l 107 0 z "},"ı":{"ha":335,"x_min":68,"x_max":264,"o":"m 92 0 q 68 24 68 0 l 68 690 q 92 714 68 714 l 240 714 q 264 690 264 714 l 264 24 q 240 0 264 0 l 92 0 z "},"í":{"ha":335,"x_min":68,"x_max":333,"o":"m 92 0 q 68 24 68 0 l 68 690 q 92 714 68 714 l 240 714 q 264 690 264 714 l 264 24 q 240 0 264 0 l 92 0 m 93 813 q 72 828 72 813 q 76 840 72 835 l 144 967 q 172 983 153 983 l 313 983 q 328 979 322 983 q 333 968 333 975 q 328 954 333 961 l 239 828 q 210 813 228 813 l 93 813 z "},"î":{"ha":335,"x_min":-47,"x_max":369,"o":"m 92 0 q 68 24 68 0 l 68 690 q 92 714 68 714 l 240 714 q 264 690 264 714 l 264 24 q 240 0 264 0 l 92 0 m -26 808 q -42 813 -36 808 q -47 824 -47 817 q -42 838 -47 831 l 56 972 q 85 986 65 986 l 235 986 q 264 972 254 986 l 364 838 q 369 824 369 831 q 364 813 369 817 q 349 808 358 808 l 246 808 q 218 824 229 808 l 167 903 q 160 907 164 907 q 156 903 157 907 l 104 824 q 76 808 93 808 l -26 808 z "},"ï":{"ha":372,"x_min":-51,"x_max":411,"o":"m 111 0 q 88 24 88 0 l 88 690 q 111 714 88 714 l 260 714 q 283 690 283 714 l 283 24 q 260 0 283 0 l 111 0 m 47 808 q -24 835 4 808 q -51 906 -51 863 q -24 976 -51 949 q 47 1004 4 1004 q 117 977 90 1004 q 144 906 144 950 q 117 835 144 863 q 47 808 90 808 m 314 808 q 242 835 269 808 q 215 906 215 861 q 242 977 215 950 q 314 1004 269 1004 q 384 977 357 1004 q 411 906 411 950 q 384 835 411 863 q 314 808 357 808 z "},"ì":{"ha":335,"x_min":-22,"x_max":264,"o":"m 92 0 q 68 24 68 0 l 68 690 q 92 714 68 714 l 240 714 q 264 690 264 714 l 264 24 q 240 0 264 0 l 92 0 m 233 840 q 238 828 238 835 q 217 813 238 813 l 100 813 q 72 828 83 813 l -17 954 q -22 969 -22 961 q -3 983 -22 983 l 138 983 q 165 967 157 983 l 233 840 z "},"ĳ":{"ha":692,"x_min":61,"x_max":642,"o":"m 181 782 q 94 815 128 782 q 61 899 61 847 q 94 983 61 950 q 181 1015 128 1015 q 267 983 235 1015 q 300 899 300 951 q 267 814 300 846 q 181 782 235 782 m 107 0 q 83 24 83 0 l 83 690 q 107 714 83 714 l 256 714 q 279 690 279 714 l 279 24 q 256 0 279 0 l 107 0 m 521 778 q 435 811 468 778 q 401 894 401 844 q 438 976 401 943 q 521 1010 474 1010 q 606 976 569 1010 q 642 894 642 943 q 608 811 642 844 q 521 778 574 778 m 282 -283 q 258 -260 258 -283 l 258 -142 q 283 -119 258 -119 q 392 -94 361 -121 q 424 -3 424 -68 l 424 690 q 447 714 424 714 l 596 714 q 619 690 619 714 l 619 0 q 589 -173 619 -111 q 486 -260 558 -235 q 282 -283 414 -286 z "},"ī":{"ha":335,"x_min":-43,"x_max":365,"o":"m 92 0 q 68 24 68 0 l 68 690 q 92 714 68 714 l 240 714 q 264 690 264 714 l 264 24 q 240 0 264 0 l 92 0 m -19 818 q -43 842 -43 818 l -43 926 q -19 950 -43 950 l 342 950 q 365 926 365 950 l 365 842 q 342 818 365 818 l -19 818 z "},"į":{"ha":358,"x_min":61,"x_max":293,"o":"m 114 0 q 90 24 90 0 l 90 690 q 114 714 90 714 l 263 714 q 286 690 286 714 l 286 24 q 263 0 286 0 l 114 0 m 183 800 q 118 825 143 800 q 93 890 93 850 q 118 956 93 931 q 183 981 143 981 q 248 956 224 981 q 272 890 272 931 q 248 825 272 850 q 183 800 224 800 m 293 -231 q 276 -254 293 -249 q 197 -267 236 -267 q 115 -247 150 -267 q 65 -179 79 -226 q 61 -146 61 -162 q 138 -10 61 -72 q 167 0 149 0 l 238 0 q 257 -11 257 0 q 246 -28 257 -19 q 190 -114 190 -76 q 192 -125 190 -121 q 238 -157 201 -157 q 257 -154 243 -157 q 267 -153 261 -153 q 286 -171 282 -153 l 293 -226 l 293 -231 z "},"j":{"ha":350,"x_min":-83,"x_max":300,"o":"m 179 778 q 93 811 126 778 q 60 894 60 844 q 96 976 60 943 q 179 1010 132 1010 q 264 976 228 1010 q 300 894 300 943 q 266 811 300 844 q 179 778 232 778 m -60 -283 q -83 -260 -83 -283 l -83 -142 q -58 -119 -83 -119 q 51 -94 19 -121 q 82 -3 82 -68 l 82 690 q 106 714 82 714 l 254 714 q 278 690 278 714 l 278 0 q 247 -173 278 -111 q 144 -260 217 -235 q -60 -283 72 -286 z "},"k":{"ha":740,"x_min":72,"x_max":710,"o":"m 96 0 q 72 24 72 0 l 72 949 q 96 972 72 972 l 244 972 q 268 949 268 972 l 268 490 q 272 484 268 485 q 278 488 275 483 l 463 700 q 492 714 476 714 l 660 714 q 675 710 669 714 q 681 700 681 707 q 675 685 681 692 l 504 471 q 503 460 500 467 l 707 28 l 710 17 q 689 0 710 0 l 532 0 q 504 18 513 0 l 369 336 q 358 338 365 344 l 272 228 q 268 218 268 222 l 268 24 q 244 0 268 0 l 96 0 z "},"l":{"ha":346,"x_min":75,"x_max":271,"o":"m 99 0 q 75 24 75 0 l 75 949 q 99 972 75 972 l 247 972 q 271 949 271 972 l 271 24 q 247 0 271 0 l 99 0 z "},"ĺ":{"ha":346,"x_min":75,"x_max":346,"o":"m 99 0 q 75 24 75 0 l 75 949 q 99 972 75 972 l 247 972 q 271 949 271 972 l 271 24 q 247 0 271 0 l 99 0 m 106 1056 q 85 1071 85 1056 q 89 1083 85 1078 l 157 1210 q 185 1226 165 1226 l 325 1226 q 340 1222 335 1226 q 346 1211 346 1218 q 340 1197 346 1204 l 251 1071 q 222 1056 240 1056 l 106 1056 z "},"ľ":{"ha":346,"x_min":-31,"x_max":378,"o":"m 99 0 q 75 24 75 0 l 75 949 q 99 972 75 972 l 247 972 q 271 949 271 972 l 271 24 q 247 0 271 0 l 99 0 m 89 1040 q 61 1056 72 1040 l -26 1188 q -31 1201 -31 1196 q -26 1213 -31 1208 q -11 1217 -21 1217 l 89 1217 q 117 1201 106 1217 l 168 1122 q 173 1118 169 1118 q 179 1122 176 1118 l 231 1201 q 258 1217 242 1217 l 357 1217 q 372 1213 367 1217 q 378 1201 378 1208 q 372 1188 378 1194 l 282 1056 q 254 1040 271 1040 l 89 1040 z "},"ļ":{"ha":349,"x_min":-1,"x_max":271,"o":"m 99 0 q 75 24 75 0 l 75 949 q 99 972 75 972 l 247 972 q 271 949 271 972 l 271 24 q 247 0 271 0 l 99 0 z "},"ł":{"ha":346,"x_min":-79,"x_max":472,"o":"m 468 581 q 472 568 472 575 q 458 549 472 557 l 276 449 q 271 439 271 447 l 271 24 q 247 0 271 0 l 99 0 q 75 24 75 0 l 75 326 q 72 332 75 331 q 65 332 69 333 l 1 297 q -11 294 -3 294 q -31 307 -25 294 l -75 390 q -79 403 -79 397 q -65 422 -79 414 l 69 499 q 75 508 75 500 l 75 949 q 99 972 75 972 l 247 972 q 271 949 271 972 l 271 622 q 281 617 271 611 l 388 676 q 401 681 394 681 q 419 667 414 681 l 468 581 z "},"m":{"ha":1160,"x_min":72,"x_max":1094,"o":"m 864 725 q 1033 660 972 725 q 1094 476 1094 594 l 1094 24 q 1071 0 1094 0 l 922 0 q 899 24 899 0 l 899 433 q 869 524 899 490 q 792 557 840 557 q 713 524 743 557 q 682 435 682 490 l 682 24 q 658 0 682 0 l 511 0 q 488 24 488 0 l 488 433 q 457 523 488 489 q 378 557 426 557 q 303 531 333 557 q 268 457 274 504 l 268 24 q 244 0 268 0 l 96 0 q 72 24 72 0 l 72 690 q 96 714 72 714 l 244 714 q 268 690 268 714 l 268 646 q 272 639 268 640 q 278 643 275 638 q 453 725 335 725 q 574 697 522 725 q 653 614 625 668 q 658 609 654 608 q 664 614 661 610 q 747 697 696 669 q 864 725 799 725 z "},"n":{"ha":760,"x_min":72,"x_max":692,"o":"m 444 725 q 624 657 556 725 q 692 472 692 589 l 692 24 q 668 0 692 0 l 519 0 q 496 24 496 0 l 496 432 q 465 522 496 488 q 383 557 435 557 q 300 522 332 557 q 268 432 268 488 l 268 24 q 244 0 268 0 l 96 0 q 72 24 72 0 l 72 690 q 96 714 72 714 l 244 714 q 268 690 268 714 l 268 651 q 271 644 268 646 q 276 647 274 643 q 444 725 333 725 z "},"ń":{"ha":760,"x_min":72,"x_max":692,"o":"m 444 725 q 624 657 556 725 q 692 472 692 589 l 692 24 q 668 0 692 0 l 519 0 q 496 24 496 0 l 496 432 q 465 522 496 488 q 383 557 435 557 q 300 522 332 557 q 268 432 268 488 l 268 24 q 244 0 268 0 l 96 0 q 72 24 72 0 l 72 690 q 96 714 72 714 l 244 714 q 268 690 268 714 l 268 651 q 271 644 268 646 q 276 647 274 643 q 444 725 333 725 m 319 797 q 299 813 299 797 q 303 825 299 819 l 371 951 q 399 968 379 968 l 539 968 q 554 964 549 968 q 560 953 560 960 q 554 939 560 946 l 465 813 q 436 797 454 797 l 319 797 z "},"ň":{"ha":760,"x_min":72,"x_max":692,"o":"m 444 725 q 624 657 556 725 q 692 472 692 589 l 692 24 q 668 0 692 0 l 519 0 q 496 24 496 0 l 496 432 q 465 522 496 488 q 383 557 435 557 q 300 522 332 557 q 268 432 268 488 l 268 24 q 244 0 268 0 l 96 0 q 72 24 72 0 l 72 690 q 96 714 72 714 l 244 714 q 268 690 268 714 l 268 651 q 271 644 268 646 q 276 647 274 643 q 444 725 333 725 m 303 785 q 275 800 286 785 l 188 933 q 183 947 183 942 q 188 958 183 954 q 203 963 193 963 l 303 963 q 331 947 319 963 l 382 868 q 388 864 385 864 q 393 868 392 864 l 444 947 q 472 963 456 963 l 571 963 q 586 958 581 963 q 592 947 592 954 q 586 933 592 940 l 496 800 q 468 785 485 785 l 303 785 z "},"ŋ":{"ha":761,"x_min":72,"x_max":696,"o":"m 692 306 q 694 297 692 297 l 696 297 l 696 19 q 672 -145 696 -86 q 584 -233 649 -204 q 394 -264 519 -262 q 369 -240 369 -264 l 369 -131 q 393 -106 369 -108 q 471 -79 447 -101 q 500 -8 494 -57 q 499 0 500 0 l 496 0 l 496 432 q 465 522 496 488 q 383 557 435 557 q 300 522 332 557 q 268 432 268 488 l 268 24 q 244 0 268 0 l 96 0 q 72 24 72 0 l 72 690 q 96 714 72 714 l 244 714 q 268 690 268 714 l 268 651 q 272 644 268 646 q 278 649 275 643 q 444 725 333 725 q 624 657 556 725 q 692 472 692 589 l 692 306 z "},"ñ":{"ha":760,"x_min":72,"x_max":692,"o":"m 444 725 q 624 657 556 725 q 692 472 692 589 l 692 24 q 668 0 692 0 l 519 0 q 496 24 496 0 l 496 432 q 465 522 496 488 q 383 557 435 557 q 300 522 332 557 q 268 432 268 488 l 268 24 q 244 0 268 0 l 96 0 q 72 24 72 0 l 72 690 q 96 714 72 714 l 244 714 q 268 690 268 714 l 268 651 q 271 644 268 646 q 276 647 274 643 q 444 725 333 725 m 482 797 q 437 806 457 797 q 390 832 417 815 q 360 849 371 844 q 336 854 349 854 q 285 831 304 854 q 265 818 276 818 q 253 824 258 818 l 204 857 q 193 876 193 865 q 196 889 193 885 q 249 958 215 935 q 322 981 282 981 q 366 973 346 981 q 413 949 386 965 q 479 924 456 924 q 526 949 508 924 q 544 961 535 961 q 558 956 551 961 l 608 922 q 618 903 618 915 q 610 879 618 892 q 551 818 585 839 q 482 797 517 797 z "},"o":{"ha":774,"x_min":54,"x_max":719,"o":"m 389 -11 q 188 50 271 -11 q 74 217 104 111 q 54 358 54 282 q 75 506 54 443 q 190 667 107 608 q 390 725 272 725 q 585 667 504 725 q 699 507 667 608 q 719 361 719 443 q 701 221 719 289 q 587 51 669 113 q 389 -11 504 -11 m 389 157 q 465 185 433 157 q 511 261 497 213 q 522 358 522 299 q 511 457 522 417 q 465 531 497 504 q 386 557 433 557 q 308 531 340 557 q 263 457 276 504 q 251 358 251 417 q 263 261 251 301 q 309 185 276 213 q 389 157 342 157 z "},"ó":{"ha":774,"x_min":54,"x_max":719,"o":"m 389 -11 q 188 50 271 -11 q 74 217 104 111 q 54 358 54 282 q 75 506 54 443 q 190 667 107 608 q 390 725 272 725 q 585 667 504 725 q 699 507 667 608 q 719 361 719 443 q 701 221 719 289 q 587 51 669 113 q 389 -11 504 -11 m 389 157 q 465 185 433 157 q 511 261 497 213 q 522 358 522 299 q 511 457 522 417 q 465 531 497 504 q 386 557 433 557 q 308 531 340 557 q 263 457 276 504 q 251 358 251 417 q 263 261 251 301 q 309 185 276 213 q 389 157 342 157 m 318 808 q 297 824 297 808 q 301 836 297 831 l 369 963 q 397 979 378 979 l 538 979 q 553 975 547 979 q 558 964 558 971 q 553 950 558 957 l 464 824 q 435 808 453 808 l 318 808 z "},"ô":{"ha":774,"x_min":54,"x_max":719,"o":"m 389 -11 q 188 50 271 -11 q 74 217 104 111 q 54 358 54 282 q 75 506 54 443 q 190 667 107 608 q 390 725 272 725 q 585 667 504 725 q 699 507 667 608 q 719 361 719 443 q 701 221 719 289 q 587 51 669 113 q 389 -11 504 -11 m 389 157 q 465 185 433 157 q 511 261 497 213 q 522 358 522 299 q 511 457 522 417 q 465 531 497 504 q 386 557 433 557 q 308 531 340 557 q 263 457 276 504 q 251 358 251 417 q 263 261 251 301 q 309 185 276 213 q 389 157 342 157 m 199 804 q 183 808 189 804 q 178 819 178 813 q 183 833 178 826 l 281 968 q 310 982 290 982 l 460 982 q 489 968 479 982 l 589 833 q 594 819 594 826 q 589 808 594 813 q 574 804 583 804 l 471 804 q 443 819 454 804 l 392 899 q 385 903 389 903 q 381 899 382 903 l 329 819 q 301 804 318 804 l 199 804 z "},"ö":{"ha":774,"x_min":54,"x_max":719,"o":"m 389 -11 q 188 50 271 -11 q 74 217 104 111 q 54 358 54 282 q 75 506 54 443 q 190 667 107 608 q 390 725 272 725 q 585 667 504 725 q 699 507 667 608 q 719 361 719 443 q 701 221 719 289 q 587 51 669 113 q 389 -11 504 -11 m 389 157 q 465 185 433 157 q 511 261 497 213 q 522 358 522 299 q 511 457 522 417 q 465 531 497 504 q 386 557 433 557 q 308 531 340 557 q 263 457 276 504 q 251 358 251 417 q 263 261 251 301 q 309 185 276 213 q 389 157 342 157 m 254 804 q 183 831 211 804 q 156 901 156 858 q 183 972 156 944 q 254 1000 211 1000 q 324 973 297 1000 q 351 901 351 946 q 324 831 351 858 q 254 804 297 804 m 521 804 q 449 831 476 804 q 422 901 422 857 q 449 973 422 946 q 521 1000 476 1000 q 591 973 564 1000 q 618 901 618 946 q 591 831 618 858 q 521 804 564 804 z "},"ò":{"ha":774,"x_min":54,"x_max":719,"o":"m 389 -11 q 188 50 271 -11 q 74 217 104 111 q 54 358 54 282 q 75 506 54 443 q 190 667 107 608 q 390 725 272 725 q 585 667 504 725 q 699 507 667 608 q 719 361 719 443 q 701 221 719 289 q 587 51 669 113 q 389 -11 504 -11 m 389 157 q 465 185 433 157 q 511 261 497 213 q 522 358 522 299 q 511 457 522 417 q 465 531 497 504 q 386 557 433 557 q 308 531 340 557 q 263 457 276 504 q 251 358 251 417 q 263 261 251 301 q 309 185 276 213 q 389 157 342 157 m 458 836 q 463 824 463 831 q 442 808 463 808 l 325 808 q 297 824 308 808 l 208 950 q 203 965 203 957 q 222 979 203 979 l 363 979 q 390 963 382 979 l 458 836 z "},"ő":{"ha":774,"x_min":54,"x_max":719,"o":"m 389 -11 q 188 50 271 -11 q 74 217 104 111 q 54 358 54 282 q 75 506 54 443 q 190 667 107 608 q 390 725 272 725 q 585 667 504 725 q 699 507 667 608 q 719 361 719 443 q 701 221 719 289 q 587 51 669 113 q 389 -11 504 -11 m 389 157 q 465 185 433 157 q 511 261 497 213 q 522 358 522 299 q 511 457 522 417 q 465 531 497 504 q 386 557 433 557 q 308 531 340 557 q 263 457 276 504 q 251 358 251 417 q 263 261 251 301 q 309 185 276 213 q 389 157 342 157 m 211 806 q 190 822 190 806 l 193 833 l 251 958 q 279 976 260 976 l 407 976 q 422 972 417 976 q 428 961 428 968 q 424 949 428 956 l 357 822 q 329 806 349 806 l 211 806 m 460 806 q 444 810 450 806 q 439 821 439 814 q 443 833 439 828 l 510 960 q 538 976 518 976 l 656 976 q 676 961 676 976 q 672 949 676 956 l 604 822 q 576 806 596 806 l 460 806 z "},"ō":{"ha":774,"x_min":54,"x_max":719,"o":"m 389 -11 q 188 50 271 -11 q 74 217 104 111 q 54 358 54 282 q 75 506 54 443 q 190 667 107 608 q 390 725 272 725 q 585 667 504 725 q 699 507 667 608 q 719 361 719 443 q 701 221 719 289 q 587 51 669 113 q 389 -11 504 -11 m 389 157 q 465 185 433 157 q 511 261 497 213 q 522 358 522 299 q 511 457 522 417 q 465 531 497 504 q 386 557 433 557 q 308 531 340 557 q 263 457 276 504 q 251 358 251 417 q 263 261 251 301 q 309 185 276 213 q 389 157 342 157 m 206 814 q 182 838 182 814 l 182 922 q 206 946 182 946 l 567 946 q 590 922 590 946 l 590 838 q 567 814 590 814 l 206 814 z "},"ø":{"ha":781,"x_min":61,"x_max":726,"o":"m 706 507 q 726 361 726 443 q 708 221 726 289 q 594 51 676 113 q 396 -11 511 -11 q 233 25 306 -11 q 222 22 226 29 l 178 -42 q 160 -53 169 -53 q 144 -47 156 -53 l 97 -12 q 88 7 88 -4 q 92 21 88 13 l 140 90 q 140 101 144 96 q 81 217 101 147 q 61 358 61 282 q 82 506 61 443 q 197 667 114 608 q 397 725 279 725 q 547 693 479 725 q 558 697 554 690 l 600 758 q 618 769 608 769 q 633 764 622 769 l 681 729 q 690 710 690 721 q 686 696 690 704 l 642 632 q 642 621 638 626 q 706 507 683 575 m 258 358 q 264 288 258 315 q 269 281 265 282 q 275 286 272 281 l 447 536 q 444 547 453 543 q 393 557 424 557 q 315 531 347 557 q 269 457 283 504 q 258 358 258 417 m 518 261 q 529 358 529 299 q 522 440 529 401 q 517 447 521 446 q 511 442 514 447 l 332 183 q 335 172 329 176 q 396 157 361 157 q 472 185 440 157 q 518 261 504 213 z "},"õ":{"ha":774,"x_min":54,"x_max":719,"o":"m 389 -11 q 188 50 271 -11 q 74 217 104 111 q 54 358 54 282 q 75 506 54 443 q 190 667 107 608 q 390 725 272 725 q 585 667 504 725 q 699 507 667 608 q 719 361 719 443 q 701 221 719 289 q 587 51 669 113 q 389 -11 504 -11 m 389 157 q 465 185 433 157 q 511 261 497 213 q 522 358 522 299 q 511 457 522 417 q 465 531 497 504 q 386 557 433 557 q 308 531 340 557 q 263 457 276 504 q 251 358 251 417 q 263 261 251 301 q 309 185 276 213 q 389 157 342 157 m 481 808 q 435 817 456 808 q 389 843 415 826 q 358 860 369 856 q 335 865 347 865 q 283 842 303 865 q 264 829 275 829 q 251 835 257 829 l 203 868 q 192 888 192 876 q 194 900 192 896 q 247 969 214 946 q 321 992 281 992 q 365 984 344 992 q 411 960 385 976 q 478 935 454 935 q 525 960 507 935 q 543 972 533 972 q 557 967 550 972 l 607 933 q 617 914 617 926 q 608 890 617 903 q 549 829 583 850 q 481 808 515 808 z "},"œ":{"ha":1211,"x_min":54,"x_max":1164,"o":"m 876 153 q 942 169 908 153 q 999 211 976 185 q 1015 222 1007 222 q 1031 215 1021 222 l 1117 143 q 1126 124 1126 135 q 1121 110 1126 115 q 1006 20 1074 51 q 851 -11 938 -11 q 717 15 778 -11 q 613 89 657 42 q 601 89 607 94 q 499 15 557 42 q 376 -11 442 -11 q 190 44 269 -11 q 76 196 110 100 q 54 360 54 263 q 76 522 54 457 q 189 670 108 615 q 376 725 269 725 q 499 699 440 725 q 601 626 557 674 q 613 626 607 621 q 714 699 657 672 q 836 725 771 725 q 1028 668 946 725 q 1140 519 1111 611 q 1164 314 1163 461 q 1140 289 1164 289 l 724 289 q 717 283 717 289 q 720 259 717 271 q 725 244 724 247 q 876 153 753 153 m 486 244 q 501 360 501 281 q 486 471 501 436 q 446 534 475 511 q 376 557 417 557 q 307 534 336 557 q 265 471 278 511 q 251 360 251 433 q 267 244 251 288 q 307 181 278 204 q 376 157 336 157 q 446 181 417 157 q 486 244 475 206 m 839 557 q 767 533 796 557 q 725 469 738 510 l 717 431 q 725 422 715 422 l 956 422 q 963 428 963 422 q 956 469 963 451 q 913 533 944 510 q 839 557 882 557 z "},"p":{"ha":776,"x_min":79,"x_max":735,"o":"m 711 521 q 735 354 735 454 q 708 182 735 251 q 608 40 678 93 q 443 -12 538 -12 q 285 56 340 -12 q 278 58 282 60 q 275 51 275 57 l 275 -235 q 251 -258 275 -258 l 103 -258 q 79 -235 79 -258 l 79 690 q 103 714 79 714 l 251 714 q 275 690 275 714 l 275 653 q 278 647 275 647 q 285 650 282 646 q 443 725 342 725 q 610 669 538 725 q 711 521 683 613 m 496 213 q 529 358 529 268 q 500 494 529 440 q 399 554 467 554 q 304 494 338 554 q 276 357 276 443 q 306 214 276 267 q 399 160 340 160 q 496 213 463 160 z "},"þ":{"ha":756,"x_min":75,"x_max":713,"o":"m 686 532 q 713 360 713 463 q 689 193 713 260 q 588 45 661 101 q 421 -11 515 -11 q 281 42 338 -11 q 274 45 276 46 q 271 39 271 44 l 271 -254 q 247 -278 271 -278 l 99 -278 q 75 -254 75 -278 l 75 949 q 99 972 75 972 l 247 972 q 271 949 271 972 l 271 682 q 274 676 271 676 q 281 678 276 675 q 421 726 333 726 q 585 674 515 726 q 686 532 656 621 m 478 219 q 507 356 507 274 q 474 501 507 446 q 376 554 440 554 q 283 500 318 554 l 274 478 l 271 467 l 271 250 q 272 239 271 243 l 282 219 q 376 160 315 160 q 478 219 444 160 z "},"q":{"ha":776,"x_min":43,"x_max":699,"o":"m 503 690 q 526 714 503 714 l 675 714 q 699 690 699 714 l 699 -235 q 675 -258 699 -258 l 526 -258 q 503 -235 503 -258 l 503 51 q 499 58 503 57 q 493 56 496 60 q 335 -12 438 -12 q 170 40 240 -12 q 69 182 100 93 q 43 354 43 251 q 67 521 43 454 q 167 669 94 613 q 335 725 240 725 q 493 650 436 725 q 499 647 496 646 q 503 653 503 647 l 503 690 m 472 214 q 501 357 501 267 q 474 494 501 443 q 379 554 440 554 q 278 494 311 554 q 249 358 249 440 q 282 213 249 268 q 379 160 315 160 q 472 214 438 160 z "},"r":{"ha":532,"x_min":72,"x_max":518,"o":"m 428 724 q 501 707 472 724 q 514 678 518 699 l 488 532 q 480 517 486 519 q 460 517 474 514 q 419 522 438 522 q 388 519 410 522 q 303 483 338 515 q 268 396 268 450 l 268 24 q 244 0 268 0 l 96 0 q 72 24 72 0 l 72 690 q 96 714 72 714 l 244 714 q 268 690 268 714 l 268 647 q 271 640 268 642 q 278 643 274 639 q 428 724 333 724 z "},"ŕ":{"ha":532,"x_min":72,"x_max":515,"o":"m 428 724 q 501 707 472 724 q 514 678 518 699 l 488 532 q 480 517 486 519 q 460 517 474 514 q 419 522 438 522 q 388 519 410 522 q 303 483 338 515 q 268 396 268 450 l 268 24 q 244 0 268 0 l 96 0 q 72 24 72 0 l 72 690 q 96 714 72 714 l 244 714 q 268 690 268 714 l 268 647 q 271 640 268 642 q 278 643 274 639 q 428 724 333 724 m 231 803 q 210 818 210 803 q 214 831 210 825 l 282 957 q 310 974 290 974 l 450 974 q 465 969 460 974 q 471 958 471 965 q 465 944 471 951 l 376 818 q 347 803 365 803 l 231 803 z "},"ř":{"ha":532,"x_min":72,"x_max":515,"o":"m 428 724 q 501 707 472 724 q 514 678 518 699 l 488 532 q 480 517 486 519 q 460 517 474 514 q 419 522 438 522 q 388 519 410 522 q 303 483 338 515 q 268 396 268 450 l 268 24 q 244 0 268 0 l 96 0 q 72 24 72 0 l 72 690 q 96 714 72 714 l 244 714 q 268 690 268 714 l 268 647 q 271 640 268 642 q 278 643 274 639 q 428 724 333 724 m 214 790 q 186 806 197 790 l 99 939 q 94 953 94 947 q 99 964 94 960 q 114 968 104 968 l 214 968 q 242 953 231 968 l 293 874 q 299 869 296 869 q 304 874 303 869 l 356 953 q 383 968 367 968 l 482 968 q 497 964 492 968 q 503 953 503 960 q 497 939 503 946 l 407 806 q 379 790 396 790 l 214 790 z "},"s":{"ha":699,"x_min":50,"x_max":658,"o":"m 357 -10 q 194 17 264 -10 q 88 90 125 43 q 50 197 50 138 l 50 204 q 74 228 50 228 l 214 228 q 238 219 238 228 l 238 210 q 271 158 238 179 q 356 136 304 136 q 432 154 403 136 q 461 201 461 172 q 436 239 461 226 q 354 265 411 251 q 253 297 286 283 q 110 372 163 328 q 57 500 57 417 q 138 663 57 603 q 349 724 218 724 q 505 695 438 724 q 609 615 572 667 q 646 499 646 564 q 640 487 646 492 q 622 482 633 482 l 486 482 q 463 490 463 482 l 463 499 q 432 550 463 529 q 350 571 401 571 q 274 554 304 571 q 244 508 244 538 q 273 467 244 481 q 367 438 301 453 q 444 417 407 429 q 601 342 544 388 q 658 208 658 296 q 576 48 658 106 q 357 -10 494 -10 z "},"ś":{"ha":699,"x_min":50,"x_max":658,"o":"m 357 -10 q 194 17 264 -10 q 88 90 125 43 q 50 197 50 138 l 50 204 q 74 228 50 228 l 214 228 q 238 219 238 228 l 238 210 q 271 158 238 179 q 356 136 304 136 q 432 154 403 136 q 461 201 461 172 q 436 239 461 226 q 354 265 411 251 q 253 297 286 283 q 110 372 163 328 q 57 500 57 417 q 138 663 57 603 q 349 724 218 724 q 505 695 438 724 q 609 615 572 667 q 646 499 646 564 q 640 487 646 492 q 622 482 633 482 l 486 482 q 463 490 463 482 l 463 499 q 432 550 463 529 q 350 571 401 571 q 274 554 304 571 q 244 508 244 538 q 273 467 244 481 q 367 438 301 453 q 444 417 407 429 q 601 342 544 388 q 658 208 658 296 q 576 48 658 106 q 357 -10 494 -10 m 281 807 q 260 822 260 807 q 264 835 260 829 l 332 961 q 360 978 340 978 l 500 978 q 515 974 510 978 q 521 963 521 969 q 515 949 521 956 l 426 822 q 397 807 415 807 l 281 807 z "},"š":{"ha":699,"x_min":50,"x_max":658,"o":"m 357 -10 q 194 17 264 -10 q 88 90 125 43 q 50 197 50 138 l 50 204 q 74 228 50 228 l 214 228 q 238 219 238 228 l 238 210 q 271 158 238 179 q 356 136 304 136 q 432 154 403 136 q 461 201 461 172 q 436 239 461 226 q 354 265 411 251 q 253 297 286 283 q 110 372 163 328 q 57 500 57 417 q 138 663 57 603 q 349 724 218 724 q 505 695 438 724 q 609 615 572 667 q 646 499 646 564 q 640 487 646 492 q 622 482 633 482 l 486 482 q 463 490 463 482 l 463 499 q 432 550 463 529 q 350 571 401 571 q 274 554 304 571 q 244 508 244 538 q 273 467 244 481 q 367 438 301 453 q 444 417 407 429 q 601 342 544 388 q 658 208 658 296 q 576 48 658 106 q 357 -10 494 -10 m 264 794 q 236 810 247 794 l 149 943 q 144 957 144 951 q 149 968 144 964 q 164 972 154 972 l 264 972 q 292 957 281 972 l 343 878 q 349 874 346 874 q 354 878 353 874 l 406 957 q 433 972 417 972 l 532 972 q 547 968 542 972 q 553 957 553 964 q 547 943 553 950 l 457 810 q 429 794 446 794 l 264 794 z "},"ş":{"ha":699,"x_min":50,"x_max":658,"o":"m 658 208 q 600 67 658 122 q 440 -4 542 11 q 434 -8 435 -4 q 438 -14 433 -11 q 496 -135 496 -72 q 492 -168 496 -151 q 442 -235 478 -215 q 360 -256 407 -256 q 281 -243 321 -256 q 264 -215 261 -237 l 271 -160 q 300 -143 275 -137 q 319 -146 314 -146 q 365 -114 356 -146 q 367 -101 367 -110 q 303 -11 367 -61 q 293 -7 299 -7 q 115 62 181 7 q 50 197 50 117 l 50 204 q 74 228 50 228 l 214 228 q 238 219 238 228 l 238 210 q 271 158 238 179 q 356 136 304 136 q 432 154 403 136 q 461 201 461 172 q 436 239 461 226 q 354 265 411 251 q 253 297 286 283 q 110 372 163 328 q 57 500 57 417 q 138 663 57 603 q 349 724 218 724 q 505 695 438 724 q 609 615 572 667 q 646 499 646 564 q 640 487 646 492 q 622 482 633 482 l 486 482 q 463 490 463 482 l 463 499 q 432 550 463 529 q 350 571 401 571 q 274 554 304 571 q 244 508 244 538 q 273 467 244 481 q 367 438 301 453 q 444 417 407 429 q 601 342 544 388 q 658 208 658 296 z "},"ß":{"ha":847,"x_min":75,"x_max":789,"o":"m 99 1 q 75 25 75 1 l 75 672 q 166 901 75 818 q 415 983 257 983 q 676 911 579 983 q 772 714 772 839 q 675 533 775 589 q 671 528 671 532 q 675 522 671 525 q 758 429 726 492 q 789 286 789 367 q 692 74 789 149 q 400 0 594 0 l 357 0 q 333 24 333 0 l 333 143 q 357 167 333 167 l 428 167 q 550 203 507 167 q 593 306 593 240 q 553 408 593 372 q 439 446 513 444 l 371 446 q 347 469 347 446 l 347 576 q 371 600 347 600 l 444 600 q 541 629 506 600 q 576 706 576 658 q 542 785 576 754 q 431 817 507 817 q 318 783 365 817 q 271 690 271 749 l 271 24 q 247 0 271 0 l 99 1 z "},"t":{"ha":528,"x_min":33,"x_max":482,"o":"m 482 581 q 458 557 482 557 l 333 557 q 325 549 325 557 l 325 261 q 344 194 325 215 q 404 172 363 172 l 443 172 q 467 149 467 172 l 467 29 q 443 4 467 7 q 367 1 390 1 q 194 40 251 1 q 136 185 138 79 l 136 549 q 128 557 136 557 l 57 557 q 33 581 33 557 l 33 690 q 57 714 33 714 l 128 714 q 136 722 136 714 l 136 879 q 160 903 136 903 l 301 903 q 325 879 325 903 l 325 722 q 333 714 325 714 l 458 714 q 482 690 482 714 l 482 581 z "},"ŧ":{"ha":833,"x_min":33,"x_max":482,"o":"m 482 581 q 458 557 482 557 l 333 557 q 325 549 325 557 l 325 492 q 333 483 325 483 l 454 483 q 478 460 478 483 l 478 389 q 454 365 478 365 l 333 365 q 325 357 325 365 l 325 261 q 344 194 325 215 q 404 172 363 172 l 443 172 q 467 149 467 172 l 467 29 q 443 4 467 7 q 367 1 390 1 q 194 40 251 1 q 136 185 138 79 l 136 357 q 128 365 136 365 l 60 365 q 36 389 36 365 l 36 460 q 60 483 36 483 l 128 483 q 136 492 136 483 l 136 549 q 128 557 136 557 l 57 557 q 33 581 33 557 l 33 690 q 57 714 33 714 l 128 714 q 136 722 136 714 l 136 879 q 160 903 136 903 l 301 903 q 325 879 325 903 l 325 722 q 333 714 325 714 l 458 714 q 482 690 482 714 l 482 581 z "},"ť":{"ha":528,"x_min":32,"x_max":482,"o":"m 482 581 q 458 557 482 557 l 333 557 q 325 549 325 557 l 325 261 q 344 194 325 215 q 404 172 363 172 l 443 172 q 467 149 467 172 l 467 29 q 443 4 467 7 q 367 1 390 1 q 194 40 251 1 q 136 185 138 79 l 136 549 q 128 557 136 557 l 57 557 q 33 581 33 557 l 33 690 q 57 714 33 714 l 128 714 q 136 722 136 714 l 136 879 q 160 903 136 903 l 301 903 q 325 879 325 903 l 325 722 q 333 714 325 714 l 458 714 q 482 690 482 714 l 482 581 m 151 971 q 124 986 135 971 l 36 1118 q 32 1132 32 1126 q 37 1143 32 1139 q 51 1147 42 1147 l 151 1147 q 179 1132 168 1147 l 231 1053 q 235 1049 232 1049 q 242 1053 239 1049 l 293 1132 q 321 1147 304 1147 l 419 1147 q 435 1143 429 1147 q 440 1132 440 1139 q 435 1118 440 1125 l 344 986 q 317 971 333 971 l 151 971 z "},"u":{"ha":757,"x_min":67,"x_max":685,"o":"m 489 690 q 513 714 489 714 l 661 714 q 685 690 685 714 l 685 24 q 661 0 685 0 l 513 0 q 489 24 489 0 l 489 61 q 485 67 489 67 q 479 64 482 68 q 308 -10 425 -10 q 135 54 203 -10 q 67 233 67 118 l 67 690 q 90 714 67 714 l 238 714 q 261 690 261 714 l 261 282 q 291 192 261 226 q 374 157 321 157 q 451 185 421 157 q 489 260 482 214 l 489 690 z "},"ú":{"ha":757,"x_min":67,"x_max":685,"o":"m 489 690 q 513 714 489 714 l 661 714 q 685 690 685 714 l 685 24 q 661 0 685 0 l 513 0 q 489 24 489 0 l 489 61 q 485 67 489 67 q 479 64 482 68 q 308 -10 425 -10 q 135 54 203 -10 q 67 233 67 118 l 67 690 q 90 714 67 714 l 238 714 q 261 690 261 714 l 261 282 q 291 192 261 226 q 374 157 321 157 q 451 185 421 157 q 489 260 482 214 l 489 690 m 307 797 q 286 813 286 797 q 290 825 286 819 l 358 951 q 386 968 367 968 l 526 968 q 542 964 536 968 q 547 953 547 960 q 542 939 547 946 l 453 813 q 424 797 442 797 l 307 797 z "},"û":{"ha":757,"x_min":67,"x_max":685,"o":"m 489 690 q 513 714 489 714 l 661 714 q 685 690 685 714 l 685 24 q 661 0 685 0 l 513 0 q 489 24 489 0 l 489 61 q 485 67 489 67 q 479 64 482 68 q 308 -10 425 -10 q 135 54 203 -10 q 67 233 67 118 l 67 690 q 90 714 67 714 l 238 714 q 261 690 261 714 l 261 282 q 291 192 261 226 q 374 157 321 157 q 451 185 421 157 q 489 260 482 214 l 489 690 m 188 793 q 172 797 178 793 q 167 808 167 801 q 172 822 167 815 l 269 957 q 299 971 279 971 l 449 971 q 478 957 468 971 l 578 822 q 583 808 583 815 q 578 797 583 801 q 563 793 572 793 l 460 793 q 432 808 443 793 l 381 888 q 374 892 378 892 q 369 888 371 892 l 318 808 q 290 793 307 793 l 188 793 z "},"ü":{"ha":757,"x_min":67,"x_max":685,"o":"m 489 690 q 513 714 489 714 l 661 714 q 685 690 685 714 l 685 24 q 661 0 685 0 l 513 0 q 489 24 489 0 l 489 61 q 485 67 489 67 q 479 64 482 68 q 308 -10 425 -10 q 135 54 203 -10 q 67 233 67 118 l 67 690 q 90 714 67 714 l 238 714 q 261 690 261 714 l 261 282 q 291 192 261 226 q 374 157 321 157 q 451 185 421 157 q 489 260 482 214 l 489 690 m 243 793 q 172 820 200 793 q 144 890 144 847 q 172 961 144 933 q 243 989 200 989 q 313 962 286 989 q 340 890 340 935 q 313 820 340 847 q 243 793 286 793 m 510 793 q 438 819 465 793 q 411 890 411 846 q 438 962 411 935 q 510 989 465 989 q 580 962 553 989 q 607 890 607 935 q 580 820 607 847 q 510 793 553 793 z "},"ù":{"ha":757,"x_min":67,"x_max":685,"o":"m 489 690 q 513 714 489 714 l 661 714 q 685 690 685 714 l 685 24 q 661 0 685 0 l 513 0 q 489 24 489 0 l 489 61 q 485 67 489 67 q 479 64 482 68 q 308 -10 425 -10 q 135 54 203 -10 q 67 233 67 118 l 67 690 q 90 714 67 714 l 238 714 q 261 690 261 714 l 261 282 q 291 192 261 226 q 374 157 321 157 q 451 185 421 157 q 489 260 482 214 l 489 690 m 447 825 q 451 813 451 819 q 431 797 451 797 l 314 797 q 286 813 297 797 l 197 939 q 192 954 192 946 q 211 968 192 968 l 351 968 q 379 951 371 968 l 447 825 z "},"ű":{"ha":757,"x_min":67,"x_max":685,"o":"m 489 690 q 513 714 489 714 l 661 714 q 685 690 685 714 l 685 24 q 661 0 685 0 l 513 0 q 489 24 489 0 l 489 61 q 485 67 489 67 q 479 64 482 68 q 308 -10 425 -10 q 135 54 203 -10 q 67 233 67 118 l 67 690 q 90 714 67 714 l 238 714 q 261 690 261 714 l 261 282 q 291 192 261 226 q 374 157 321 157 q 451 185 421 157 q 489 260 482 214 l 489 690 m 200 794 q 179 811 179 794 l 182 822 l 240 947 q 268 965 249 965 l 396 965 q 411 961 406 965 q 417 950 417 957 q 413 938 417 944 l 346 811 q 318 794 338 794 l 200 794 m 449 794 q 433 799 439 794 q 428 810 428 803 q 432 822 428 817 l 499 949 q 526 965 507 965 l 644 965 q 665 950 665 965 q 661 938 665 944 l 593 811 q 565 794 585 794 l 449 794 z "},"ū":{"ha":757,"x_min":67,"x_max":685,"o":"m 489 690 q 513 714 489 714 l 661 714 q 685 690 685 714 l 685 24 q 661 0 685 0 l 513 0 q 489 24 489 0 l 489 61 q 485 67 489 67 q 479 64 482 68 q 308 -10 425 -10 q 135 54 203 -10 q 67 233 67 118 l 67 690 q 90 714 67 714 l 238 714 q 261 690 261 714 l 261 282 q 291 192 261 226 q 374 157 321 157 q 451 185 421 157 q 489 260 482 214 l 489 690 m 194 803 q 171 826 171 803 l 171 911 q 194 935 171 935 l 556 935 q 579 911 579 935 l 579 826 q 556 803 579 803 l 194 803 z "},"ģ":{"ha":772,"x_min":51,"x_max":704,"o":"m 529 971 q 550 956 550 971 q 546 943 550 950 l 478 817 q 450 800 469 800 l 310 800 q 294 804 300 800 q 289 815 289 808 q 294 829 289 822 l 383 956 q 413 971 394 971 l 529 971 m 508 690 q 532 714 508 714 l 681 714 q 704 690 704 714 l 704 64 q 600 -196 704 -118 q 332 -274 496 -274 q 228 -267 286 -274 q 207 -242 207 -265 l 213 -112 q 220 -95 213 -101 q 239 -92 228 -89 q 324 -99 290 -99 q 460 -60 413 -99 q 508 65 508 -21 q 506 70 508 69 q 499 67 503 71 q 346 11 447 11 q 180 55 256 11 q 72 196 104 99 q 51 361 51 260 q 76 538 51 469 q 175 674 106 622 q 336 725 244 725 q 499 663 440 725 q 506 660 503 658 q 508 667 508 661 l 508 690 m 497 249 q 508 363 508 290 q 506 429 508 406 q 496 474 503 453 q 454 534 483 511 q 382 557 425 557 q 311 534 340 557 q 268 474 282 511 q 249 361 249 432 q 265 250 249 283 q 309 190 278 213 q 383 167 340 167 q 457 190 428 167 q 497 249 486 213 z "},"ķ":{"ha":740,"x_min":72,"x_max":710,"o":"m 96 0 q 72 24 72 0 l 72 949 q 96 972 72 972 l 244 972 q 268 949 268 972 l 268 490 q 272 484 268 485 q 278 488 275 483 l 463 700 q 492 714 476 714 l 660 714 q 675 710 669 714 q 681 700 681 707 q 675 685 681 692 l 504 471 q 503 460 500 467 l 707 28 l 710 17 q 689 0 710 0 l 532 0 q 504 18 513 0 l 369 336 q 358 338 365 344 l 272 228 q 268 218 268 222 l 268 24 q 244 0 268 0 l 96 0 z "},"ņ":{"ha":760,"x_min":72,"x_max":692,"o":"m 444 725 q 624 657 556 725 q 692 472 692 589 l 692 24 q 668 0 692 0 l 519 0 q 496 24 496 0 l 496 432 q 465 522 496 488 q 383 557 435 557 q 300 522 332 557 q 268 432 268 488 l 268 24 q 244 0 268 0 l 96 0 q 72 24 72 0 l 72 690 q 96 714 72 714 l 244 714 q 268 690 268 714 l 268 651 q 271 644 268 646 q 276 647 274 643 q 444 725 333 725 z "},"ŗ":{"ha":538,"x_min":-11,"x_max":515,"o":"m 428 724 q 501 707 472 724 q 514 678 518 699 l 488 532 q 480 517 486 519 q 460 517 474 514 q 419 522 438 522 q 388 519 410 522 q 303 483 338 515 q 268 396 268 450 l 268 24 q 244 0 268 0 l 96 0 q 72 24 72 0 l 72 690 q 96 714 72 714 l 244 714 q 268 690 268 714 l 268 647 q 271 640 268 642 q 278 643 274 639 q 428 724 333 724 z "},"ţ":{"ha":528,"x_min":33,"x_max":482,"o":"m 482 581 q 458 557 482 557 l 333 557 q 325 549 325 557 l 325 261 q 344 194 325 215 q 404 172 363 172 l 443 172 q 467 149 467 172 l 467 29 q 443 4 467 7 q 367 1 390 1 q 194 40 251 1 q 136 185 138 79 l 136 549 q 128 557 136 557 l 57 557 q 33 581 33 557 l 33 690 q 57 714 33 714 l 128 714 q 136 722 136 714 l 136 879 q 160 903 136 903 l 301 903 q 325 879 325 903 l 325 722 q 333 714 325 714 l 458 714 q 482 690 482 714 l 482 581 m 265 -328 q 249 -300 246 -322 l 256 -244 q 285 -228 260 -222 q 304 -231 299 -231 q 350 -199 340 -231 q 351 -187 351 -194 q 296 -101 351 -150 q 285 -85 285 -93 q 304 -74 285 -74 l 375 -74 q 404 -83 393 -74 q 481 -219 481 -146 q 476 -253 481 -236 q 427 -320 463 -300 q 344 -340 392 -340 q 265 -328 306 -340 z "},"ș":{"ha":699,"x_min":50,"x_max":658,"o":"m 357 -10 q 194 17 264 -10 q 88 90 125 43 q 50 197 50 138 l 50 204 q 74 228 50 228 l 214 228 q 238 219 238 228 l 238 210 q 271 158 238 179 q 356 136 304 136 q 432 154 403 136 q 461 201 461 172 q 436 239 461 226 q 354 265 411 251 q 253 297 286 283 q 110 372 163 328 q 57 500 57 417 q 138 663 57 603 q 349 724 218 724 q 505 695 438 724 q 609 615 572 667 q 646 499 646 564 q 640 487 646 492 q 622 482 633 482 l 486 482 q 463 490 463 482 l 463 499 q 432 550 463 529 q 350 571 401 571 q 274 554 304 571 q 244 508 244 538 q 273 467 244 481 q 367 438 301 453 q 444 417 407 429 q 601 342 544 388 q 658 208 658 296 q 576 48 658 106 q 357 -10 494 -10 z "},"ț":{"ha":528,"x_min":33,"x_max":482,"o":"m 482 581 q 458 557 482 557 l 333 557 q 325 549 325 557 l 325 261 q 344 194 325 215 q 404 172 363 172 l 443 172 q 467 149 467 172 l 467 29 q 443 4 467 7 q 367 1 390 1 q 194 40 251 1 q 136 185 138 79 l 136 549 q 128 557 136 557 l 57 557 q 33 581 33 557 l 33 690 q 57 714 33 714 l 128 714 q 136 722 136 714 l 136 879 q 160 903 136 903 l 301 903 q 325 879 325 903 l 325 722 q 333 714 325 714 l 458 714 q 482 690 482 714 l 482 581 z "},"ų":{"ha":760,"x_min":67,"x_max":697,"o":"m 661 -154 q 671 -153 665 -153 q 690 -171 686 -153 l 697 -226 l 697 -231 q 681 -254 697 -249 q 601 -267 640 -267 q 519 -247 554 -267 q 469 -179 483 -226 q 465 -146 465 -162 q 542 -10 465 -72 q 544 -3 546 -7 q 538 0 543 0 l 513 0 q 489 24 489 0 l 489 61 q 485 67 489 67 q 479 64 482 68 q 308 -10 425 -10 q 135 54 203 -10 q 67 233 67 118 l 67 690 q 90 714 67 714 l 238 714 q 261 690 261 714 l 261 282 q 291 192 261 226 q 374 157 321 157 q 451 185 421 157 q 489 260 482 214 l 489 690 q 513 714 489 714 l 661 714 q 685 690 685 714 l 685 6 q 681 -4 685 0 q 669 -12 676 -7 q 650 -28 661 -18 q 594 -114 594 -76 q 596 -125 594 -121 q 642 -157 606 -157 q 661 -154 647 -157 z "},"ů":{"ha":757,"x_min":67,"x_max":685,"o":"m 489 690 q 513 714 489 714 l 661 714 q 685 690 685 714 l 685 24 q 661 0 685 0 l 513 0 q 489 24 489 0 l 489 61 q 485 67 489 67 q 479 64 482 68 q 308 -10 425 -10 q 135 54 203 -10 q 67 233 67 118 l 67 690 q 90 714 67 714 l 238 714 q 261 690 261 714 l 261 282 q 291 192 261 226 q 374 157 321 157 q 451 185 421 157 q 489 260 482 214 l 489 690 m 375 778 q 265 822 310 778 q 219 932 219 867 q 265 1042 219 997 q 375 1086 310 1086 q 485 1041 440 1086 q 531 932 531 996 q 485 823 531 868 q 375 778 440 778 m 375 867 q 421 886 401 867 q 440 932 440 906 q 422 980 440 961 q 375 999 403 999 q 328 980 347 999 q 308 932 308 961 q 328 885 308 904 q 375 867 347 867 z "},"v":{"ha":722,"x_min":33,"x_max":692,"o":"m 276 0 q 250 19 257 0 l 35 688 q 33 696 33 690 q 39 709 33 704 q 54 714 44 714 l 218 714 q 244 693 238 714 l 356 276 q 361 271 357 271 q 367 276 365 271 l 478 693 q 504 714 485 714 l 668 713 q 686 705 681 713 q 688 686 692 697 l 474 19 q 446 0 467 0 l 276 0 z "},"w":{"ha":1088,"x_min":33,"x_max":1056,"o":"m 257 0 q 231 19 238 0 l 35 688 q 33 696 33 690 q 54 714 33 714 l 207 714 q 233 693 229 714 l 329 282 q 335 276 331 276 q 340 282 339 276 l 443 693 q 469 714 447 714 l 606 714 q 632 693 628 714 l 738 281 q 743 275 739 275 q 749 281 747 275 l 854 693 q 881 714 858 714 l 1033 713 q 1051 705 1046 713 q 1053 686 1056 697 l 854 19 q 828 0 847 0 l 672 0 q 646 19 653 0 l 542 383 q 535 389 539 389 q 531 383 532 389 l 439 21 q 413 0 435 0 l 257 0 z "},"ẃ":{"ha":1088,"x_min":33,"x_max":1054,"o":"m 257 0 q 231 19 238 0 l 35 688 q 33 696 33 690 q 54 714 33 714 l 207 714 q 233 693 229 714 l 329 282 q 335 276 331 276 q 340 282 339 276 l 443 693 q 469 714 447 714 l 606 714 q 632 693 628 714 l 738 281 q 743 275 739 275 q 749 281 747 275 l 854 693 q 881 714 858 714 l 1033 713 q 1051 705 1046 713 q 1053 686 1056 697 l 854 19 q 828 0 847 0 l 672 0 q 646 19 653 0 l 542 383 q 535 389 539 389 q 531 383 532 389 l 439 21 q 413 0 435 0 l 257 0 m 463 797 q 442 813 442 797 q 446 825 442 819 l 514 951 q 542 968 522 968 l 682 968 q 697 964 692 968 q 703 953 703 960 q 697 939 703 946 l 608 813 q 579 797 597 797 l 463 797 z "},"ŵ":{"ha":1088,"x_min":33,"x_max":1054,"o":"m 257 0 q 231 19 238 0 l 35 688 q 33 696 33 690 q 54 714 33 714 l 207 714 q 233 693 229 714 l 329 282 q 335 276 331 276 q 340 282 339 276 l 443 693 q 469 714 447 714 l 606 714 q 632 693 628 714 l 738 281 q 743 275 739 275 q 749 281 747 275 l 854 693 q 881 714 858 714 l 1033 713 q 1051 705 1046 713 q 1053 686 1056 697 l 854 19 q 828 0 847 0 l 672 0 q 646 19 653 0 l 542 383 q 535 389 539 389 q 531 383 532 389 l 439 21 q 413 0 435 0 l 257 0 m 343 793 q 328 797 333 793 q 322 808 322 801 q 328 822 322 815 l 425 957 q 454 971 435 971 l 604 971 q 633 957 624 971 l 733 822 q 739 808 739 815 q 733 797 739 801 q 718 793 728 793 l 615 793 q 588 808 599 793 l 536 888 q 530 892 533 892 q 525 888 526 892 l 474 808 q 446 793 463 793 l 343 793 z "},"ẅ":{"ha":1088,"x_min":33,"x_max":1054,"o":"m 257 0 q 231 19 238 0 l 35 688 q 33 696 33 690 q 54 714 33 714 l 207 714 q 233 693 229 714 l 329 282 q 335 276 331 276 q 340 282 339 276 l 443 693 q 469 714 447 714 l 606 714 q 632 693 628 714 l 738 281 q 743 275 739 275 q 749 281 747 275 l 854 693 q 881 714 858 714 l 1033 713 q 1051 705 1046 713 q 1053 686 1056 697 l 854 19 q 828 0 847 0 l 672 0 q 646 19 653 0 l 542 383 q 535 389 539 389 q 531 383 532 389 l 439 21 q 413 0 435 0 l 257 0 m 399 793 q 328 820 356 793 q 300 890 300 847 q 328 961 300 933 q 399 989 356 989 q 469 962 442 989 q 496 890 496 935 q 469 820 496 847 q 399 793 442 793 m 665 793 q 594 819 621 793 q 567 890 567 846 q 594 962 567 935 q 665 989 621 989 q 735 962 708 989 q 763 890 763 935 q 735 820 763 847 q 665 793 708 793 z "},"ẁ":{"ha":1088,"x_min":33,"x_max":1054,"o":"m 257 0 q 231 19 238 0 l 35 688 q 33 696 33 690 q 54 714 33 714 l 207 714 q 233 693 229 714 l 329 282 q 335 276 331 276 q 340 282 339 276 l 443 693 q 469 714 447 714 l 606 714 q 632 693 628 714 l 738 281 q 743 275 739 275 q 749 281 747 275 l 854 693 q 881 714 858 714 l 1033 713 q 1051 705 1046 713 q 1053 686 1056 697 l 854 19 q 828 0 847 0 l 672 0 q 646 19 653 0 l 542 383 q 535 389 539 389 q 531 383 532 389 l 439 21 q 413 0 435 0 l 257 0 m 603 825 q 607 813 607 819 q 586 797 607 797 l 469 797 q 442 813 453 797 l 353 939 q 347 954 347 946 q 367 968 347 968 l 507 968 q 535 951 526 968 l 603 825 z "},"x":{"ha":747,"x_min":33,"x_max":713,"o":"m 54 0 q 39 4 44 0 q 33 15 33 8 q 39 29 33 22 l 256 351 q 256 363 260 357 l 39 685 q 33 699 33 692 q 39 710 33 706 q 54 714 44 714 l 213 714 q 240 699 229 714 l 363 514 q 369 510 365 511 q 374 514 372 510 l 494 699 q 522 714 506 714 l 692 714 q 707 710 701 714 q 713 699 713 706 q 707 685 713 692 l 492 363 q 492 351 488 357 l 707 29 q 713 15 713 22 q 707 4 713 8 q 692 0 701 0 l 533 0 q 506 15 517 0 l 385 200 q 380 204 383 204 q 374 200 376 204 l 253 15 q 225 0 242 0 l 54 0 z "},"y":{"ha":701,"x_min":26,"x_max":676,"o":"m 68 -276 q 58 -253 58 -276 l 58 -139 q 67 -115 58 -115 l 75 -115 q 198 -94 161 -115 q 251 -6 235 -72 q 251 6 254 1 l 28 688 q 26 696 26 690 q 32 709 26 704 q 47 714 38 714 l 207 714 q 233 694 226 714 l 347 281 q 353 275 349 275 q 358 281 357 275 l 467 693 q 493 714 471 714 l 653 714 q 671 706 665 714 q 672 688 676 699 l 435 -26 q 364 -178 400 -128 q 263 -253 328 -229 q 78 -276 197 -276 l 68 -276 z "},"ý":{"ha":701,"x_min":26,"x_max":674,"o":"m 68 -276 q 58 -253 58 -276 l 58 -139 q 67 -115 58 -115 l 75 -115 q 198 -94 161 -115 q 251 -6 235 -72 q 251 6 254 1 l 28 688 q 26 696 26 690 q 32 709 26 704 q 47 714 38 714 l 207 714 q 233 694 226 714 l 347 281 q 353 275 349 275 q 358 281 357 275 l 467 693 q 493 714 471 714 l 653 714 q 671 706 665 714 q 672 688 676 699 l 435 -26 q 364 -178 400 -128 q 263 -253 328 -229 q 78 -276 197 -276 l 68 -276 m 282 811 q 261 826 261 811 q 265 839 261 833 l 333 965 q 361 982 342 982 l 501 982 q 517 978 511 982 q 522 967 522 974 q 517 953 522 960 l 428 826 q 399 811 417 811 l 282 811 z "},"ŷ":{"ha":701,"x_min":26,"x_max":674,"o":"m 68 -276 q 58 -253 58 -276 l 58 -139 q 67 -115 58 -115 l 75 -115 q 198 -94 161 -115 q 251 -6 235 -72 q 251 6 254 1 l 28 688 q 26 696 26 690 q 32 709 26 704 q 47 714 38 714 l 207 714 q 233 694 226 714 l 347 281 q 353 275 349 275 q 358 281 357 275 l 467 693 q 493 714 471 714 l 653 714 q 671 706 665 714 q 672 688 676 699 l 435 -26 q 364 -178 400 -128 q 263 -253 328 -229 q 78 -276 197 -276 l 68 -276 m 163 807 q 147 811 153 807 q 142 822 142 815 q 147 836 142 829 l 244 971 q 274 985 254 985 l 424 985 q 453 971 443 985 l 553 836 q 558 822 558 829 q 553 811 558 815 q 538 807 547 807 l 435 807 q 407 822 418 807 l 356 901 q 349 906 353 906 q 344 901 346 906 l 293 822 q 265 807 282 807 l 163 807 z "},"ÿ":{"ha":701,"x_min":26,"x_max":674,"o":"m 68 -276 q 58 -253 58 -276 l 58 -139 q 67 -115 58 -115 l 75 -115 q 198 -94 161 -115 q 251 -6 235 -72 q 251 6 254 1 l 28 688 q 26 696 26 690 q 32 709 26 704 q 47 714 38 714 l 207 714 q 233 694 226 714 l 347 281 q 353 275 349 275 q 358 281 357 275 l 467 693 q 493 714 471 714 l 653 714 q 671 706 665 714 q 672 688 676 699 l 435 -26 q 364 -178 400 -128 q 263 -253 328 -229 q 78 -276 197 -276 l 68 -276 m 218 807 q 147 834 175 807 q 119 904 119 861 q 147 975 119 947 q 218 1003 175 1003 q 288 976 261 1003 q 315 904 315 949 q 288 834 315 861 q 218 807 261 807 m 485 807 q 413 833 440 807 q 386 904 386 860 q 413 976 386 949 q 485 1003 440 1003 q 555 976 528 1003 q 582 904 582 949 q 555 834 582 861 q 485 807 528 807 z "},"ỳ":{"ha":701,"x_min":26,"x_max":674,"o":"m 68 -276 q 58 -253 58 -276 l 58 -139 q 67 -115 58 -115 l 75 -115 q 198 -94 161 -115 q 251 -6 235 -72 q 251 6 254 1 l 28 688 q 26 696 26 690 q 32 709 26 704 q 47 714 38 714 l 207 714 q 233 694 226 714 l 347 281 q 353 275 349 275 q 358 281 357 275 l 467 693 q 493 714 471 714 l 653 714 q 671 706 665 714 q 672 688 676 699 l 435 -26 q 364 -178 400 -128 q 263 -253 328 -229 q 78 -276 197 -276 l 68 -276 m 422 839 q 426 826 426 833 q 406 811 426 811 l 289 811 q 261 826 272 811 l 172 953 q 167 968 167 960 q 186 982 167 982 l 326 982 q 354 965 346 982 l 422 839 z "},"z":{"ha":639,"x_min":33,"x_max":601,"o":"m 57 0 q 33 24 33 0 l 33 161 q 44 190 33 178 l 353 528 q 355 535 356 532 q 349 538 354 538 l 65 538 q 42 561 42 538 l 42 690 q 65 714 42 714 l 571 714 q 594 690 594 714 l 594 554 q 583 525 594 538 l 265 188 q 263 181 263 183 q 269 178 264 178 l 578 178 q 601 154 601 178 l 601 24 q 578 0 601 0 l 57 0 z "},"ź":{"ha":639,"x_min":33,"x_max":601,"o":"m 57 0 q 33 24 33 0 l 33 161 q 44 190 33 178 l 353 528 q 355 535 356 532 q 349 538 354 538 l 65 538 q 42 561 42 538 l 42 690 q 65 714 42 714 l 571 714 q 594 690 594 714 l 594 554 q 583 525 594 538 l 265 188 q 263 181 263 183 q 269 178 264 178 l 578 178 q 601 154 601 178 l 601 24 q 578 0 601 0 l 57 0 m 247 814 q 226 829 226 814 q 231 842 226 836 l 299 968 q 326 985 307 985 l 467 985 q 482 981 476 985 q 488 969 488 976 q 482 956 488 963 l 393 829 q 364 814 382 814 l 247 814 z "},"ž":{"ha":639,"x_min":33,"x_max":601,"o":"m 57 0 q 33 24 33 0 l 33 161 q 44 190 33 178 l 353 528 q 355 535 356 532 q 349 538 354 538 l 65 538 q 42 561 42 538 l 42 690 q 65 714 42 714 l 571 714 q 594 690 594 714 l 594 554 q 583 525 594 538 l 265 188 q 263 181 263 183 q 269 178 264 178 l 578 178 q 601 154 601 178 l 601 24 q 578 0 601 0 l 57 0 m 231 801 q 203 817 214 801 l 115 950 q 111 964 111 958 q 116 975 111 971 q 131 979 121 979 l 231 979 q 258 964 247 979 l 310 885 q 316 881 313 881 q 321 885 319 881 l 372 964 q 400 979 383 979 l 499 979 q 514 975 508 979 q 519 964 519 971 q 514 950 519 957 l 424 817 q 396 801 413 801 l 231 801 z "},"ż":{"ha":639,"x_min":33,"x_max":601,"o":"m 57 0 q 33 24 33 0 l 33 161 q 44 190 33 178 l 353 528 q 355 535 356 532 q 349 538 354 538 l 65 538 q 42 561 42 538 l 42 690 q 65 714 42 714 l 571 714 q 594 690 594 714 l 594 554 q 583 525 594 538 l 265 188 q 263 181 263 183 q 269 178 264 178 l 578 178 q 601 154 601 178 l 601 24 q 578 0 601 0 l 57 0 m 315 801 q 250 826 275 801 q 225 892 225 851 q 250 957 225 932 q 315 982 275 982 q 380 957 356 982 q 404 892 404 932 q 380 826 404 851 q 315 801 356 801 z "},"ª":{"ha":458,"x_min":18,"x_max":425,"o":"m 300 788 q 308 796 308 788 l 308 810 q 284 869 308 846 q 219 892 260 892 q 170 881 192 892 q 140 853 149 869 q 129 837 135 842 q 114 833 124 832 l 54 839 q 32 864 28 842 q 94 949 43 915 q 218 983 146 983 q 359 938 304 983 q 414 826 414 893 l 414 529 q 390 506 414 506 l 332 506 q 308 526 308 506 l 308 532 q 306 539 308 538 q 299 536 303 540 q 181 497 260 497 q 62 532 106 497 q 18 632 18 567 q 71 745 18 703 q 213 788 124 788 l 300 788 m 200 582 q 278 607 247 582 q 308 665 308 632 l 308 697 q 300 706 308 706 l 228 706 q 126 642 126 706 q 146 597 126 611 q 200 582 165 582 m 18 408 q 42 432 18 432 l 401 432 q 425 408 425 432 l 425 347 q 401 324 425 324 l 42 324 q 18 347 18 324 l 18 408 z "},"º":{"ha":494,"x_min":35,"x_max":464,"o":"m 249 503 q 128 538 179 503 q 53 638 78 574 q 35 744 35 682 q 51 851 35 808 q 126 949 74 915 q 250 983 178 983 q 365 949 315 983 q 439 853 415 915 q 458 746 458 803 q 439 638 458 688 q 365 538 415 574 q 249 503 314 503 m 249 610 q 292 624 272 610 q 321 667 311 639 q 332 744 332 696 q 322 819 332 796 q 291 863 311 847 q 246 878 271 878 q 172 819 196 878 q 161 744 161 793 q 172 667 161 694 q 201 624 182 639 q 249 610 221 610 m 60 322 q 36 346 36 322 l 36 410 q 60 433 36 433 l 440 433 q 464 410 464 433 l 464 346 q 440 322 464 322 l 60 322 z "},"Δ":{"ha":918,"x_min":33,"x_max":885,"o":"m 57 0 q 33 24 33 0 l 33 153 q 39 182 33 167 l 379 954 q 407 972 389 972 l 510 972 q 538 954 529 972 l 879 181 q 885 151 885 165 l 885 24 q 861 0 885 0 l 57 0 m 228 179 q 235 169 224 169 l 683 169 q 690 179 694 169 l 464 710 q 459 715 463 715 q 453 710 456 715 l 228 179 z "},"Ω":{"ha":882,"x_min":65,"x_max":817,"o":"m 89 0 q 65 24 65 0 l 65 144 q 89 168 65 168 l 140 168 q 147 171 146 168 q 144 178 149 174 q 75 381 75 258 l 75 635 q 121 817 75 738 q 249 940 167 896 q 440 983 332 983 q 633 940 550 983 q 761 817 715 896 q 807 635 807 738 l 807 381 q 738 178 807 258 q 735 171 733 174 q 742 168 736 168 l 793 168 q 817 144 817 168 l 817 24 q 793 0 817 0 l 503 0 q 479 24 479 0 l 479 151 q 500 176 479 171 q 580 238 549 192 q 611 347 611 283 l 611 639 q 564 768 611 719 q 440 817 517 817 q 317 768 364 817 q 271 639 271 719 l 271 347 q 302 238 271 283 q 382 175 333 192 q 403 150 403 169 l 403 24 q 379 0 403 0 l 89 0 z "},"μ":{"ha":765,"x_min":72,"x_max":692,"o":"m 496 690 q 519 714 496 714 l 668 714 q 692 690 692 714 l 692 24 q 668 0 692 0 l 519 0 q 496 24 496 0 l 496 61 q 492 67 496 67 q 486 64 489 68 q 315 -10 432 -10 q 276 -7 301 -10 q 268 -15 268 -6 l 268 -254 q 244 -278 268 -278 l 96 -278 q 72 -254 72 -278 l 72 690 q 96 714 72 714 l 244 714 q 268 690 268 714 l 268 282 q 298 192 268 226 q 381 157 328 157 q 458 185 428 157 q 496 260 489 214 l 496 690 z "},"π":{"ha":919,"x_min":40,"x_max":879,"o":"m 879 571 q 856 547 879 547 l 782 547 q 774 539 774 547 l 774 271 q 790 186 774 206 q 842 167 807 167 q 865 143 865 167 l 865 24 q 842 0 865 0 l 785 -1 q 633 32 690 -1 q 578 165 576 65 l 578 539 q 569 547 578 547 l 354 547 q 346 539 346 547 l 346 24 q 322 0 346 0 l 174 0 q 150 24 150 0 l 150 539 q 142 547 150 547 l 64 547 q 40 571 40 547 l 40 690 q 64 714 40 714 l 856 714 q 879 690 879 714 l 879 571 z "},"¹":{"ha":269,"x_min":39,"x_max":226,"o":"m 86 1156 q 115 1161 99 1161 l 203 1161 q 226 1138 226 1161 l 226 601 q 203 578 226 578 l 124 578 q 100 601 100 578 l 100 1042 q 92 1050 100 1050 l 64 1047 l 61 1047 q 39 1069 39 1047 l 39 1117 q 57 1143 39 1135 l 86 1156 z "},"²":{"ha":476,"x_min":39,"x_max":444,"o":"m 67 578 q 43 601 43 578 l 43 668 q 56 697 43 683 q 204 850 138 779 l 231 878 q 307 997 307 958 q 288 1042 307 1025 q 238 1060 268 1060 q 186 1042 206 1060 q 167 996 167 1024 l 167 989 q 143 965 167 965 l 63 965 q 39 989 39 965 l 39 1015 q 100 1126 44 1085 q 238 1168 156 1168 q 381 1119 326 1168 q 435 1000 435 1071 q 418 930 435 965 q 367 853 401 894 q 298 774 339 815 q 250 725 257 733 l 221 696 q 219 690 218 693 q 225 686 219 686 l 421 686 q 444 663 444 686 l 444 601 q 421 578 444 578 l 67 578 z "},"³":{"ha":450,"x_min":29,"x_max":421,"o":"m 404 861 q 421 768 421 819 q 403 676 421 717 q 335 598 382 626 q 225 569 288 569 q 113 601 161 569 q 42 689 64 633 q 29 746 32 711 l 29 749 q 51 769 29 769 l 132 769 q 157 747 153 769 q 164 719 158 732 q 187 690 171 700 q 225 679 203 679 q 281 710 263 679 q 294 771 294 733 q 279 838 294 813 q 224 869 263 869 q 194 863 211 869 q 178 858 186 858 q 161 867 167 858 l 124 913 q 117 928 117 922 q 126 946 117 936 l 243 1042 q 246 1049 247 1046 q 239 1051 244 1051 l 64 1051 q 40 1075 40 1051 l 40 1136 q 64 1160 40 1160 l 390 1160 q 414 1136 414 1160 l 414 1069 q 401 1040 414 1053 l 303 953 q 308 942 294 944 q 404 861 371 926 z "},"⁴":{"ha":511,"x_min":25,"x_max":474,"o":"m 450 839 q 474 815 474 839 l 474 749 q 450 725 474 725 l 433 725 q 425 717 425 725 l 425 603 q 401 579 425 579 l 322 579 q 299 603 299 579 l 299 717 q 290 725 299 725 l 49 725 q 25 749 25 725 l 25 801 q 31 831 25 815 l 171 1144 q 199 1163 181 1163 l 281 1163 q 301 1146 301 1163 l 299 1135 l 175 849 q 182 839 171 839 l 290 839 q 299 847 299 839 l 299 929 q 322 953 299 953 l 401 953 q 425 929 425 953 l 425 847 q 433 839 425 839 l 450 839 z "},"⁵":{"ha":438,"x_min":22,"x_max":417,"o":"m 399 849 q 417 763 417 808 q 399 675 417 719 q 329 597 376 625 q 218 568 282 568 q 106 599 154 568 q 35 682 57 629 q 24 719 26 707 l 24 725 q 46 744 24 744 l 131 744 q 151 735 147 744 l 154 726 l 158 718 q 181 688 165 699 q 218 676 196 676 q 274 710 254 676 q 288 760 288 733 q 275 811 288 790 q 253 835 268 826 q 219 844 239 844 q 164 822 182 844 q 135 806 151 806 l 46 806 q 22 829 22 806 l 22 1133 q 46 1157 22 1157 l 372 1157 q 396 1133 396 1157 l 396 1072 q 372 1049 396 1049 l 157 1049 q 149 1040 149 1049 l 149 940 q 151 935 149 936 q 158 935 154 933 q 238 953 194 953 q 333 926 290 953 q 399 849 375 899 z "},"⁶":{"ha":450,"x_min":32,"x_max":425,"o":"m 413 842 q 425 763 425 810 q 413 682 425 718 q 343 599 393 631 q 228 568 293 568 q 117 599 164 568 q 47 682 69 629 q 32 763 32 718 l 32 1010 q 85 1122 32 1081 q 224 1164 138 1164 q 359 1122 307 1164 q 411 1014 411 1081 l 411 1003 q 388 979 411 979 l 307 979 q 283 988 283 979 l 283 996 q 267 1039 283 1022 q 224 1056 250 1056 q 176 1038 194 1056 q 158 992 158 1021 l 158 928 q 161 922 158 922 q 168 924 164 921 q 250 949 204 949 q 347 920 301 949 q 413 842 392 892 m 279 700 q 293 725 288 714 q 299 757 299 738 q 290 799 299 782 q 267 829 283 818 q 229 840 251 840 q 181 818 199 840 q 167 793 172 804 q 160 758 160 781 q 169 714 160 732 q 192 687 176 697 q 229 676 208 676 q 279 700 263 676 z "},"⁷":{"ha":413,"x_min":11,"x_max":401,"o":"m 115 579 q 98 588 103 579 q 97 607 93 596 l 264 1044 q 258 1054 267 1054 l 122 1054 q 114 1046 114 1054 l 114 1001 q 90 978 114 978 l 35 978 q 11 1001 11 978 l 13 1139 q 36 1163 13 1163 l 378 1163 q 401 1139 401 1163 l 401 1069 q 396 1040 401 1056 l 225 597 q 199 579 219 579 l 115 579 z "},"⁸":{"ha":454,"x_min":28,"x_max":424,"o":"m 408 829 q 424 747 424 797 q 410 674 424 706 q 341 597 390 626 q 225 568 292 568 q 115 595 163 568 q 44 672 67 622 q 28 749 28 707 q 46 828 28 789 q 83 876 60 857 q 85 888 92 883 q 49 933 64 904 q 32 1003 32 964 q 49 1075 32 1042 q 117 1145 71 1121 q 226 1169 163 1169 q 338 1144 290 1169 q 406 1074 385 1118 q 422 1004 422 1040 q 404 933 422 965 q 368 888 389 904 q 369 876 361 883 q 408 829 393 861 m 164 1022 q 157 994 157 1008 q 165 964 157 979 q 188 938 172 947 q 228 928 204 928 q 283 951 267 928 q 296 976 292 961 q 297 993 297 982 q 296 1011 297 1006 q 283 1036 292 1026 q 226 1061 263 1061 q 164 1022 181 1061 m 281 703 q 292 728 288 714 q 294 757 294 738 q 290 792 294 775 q 267 823 283 811 q 226 835 250 835 q 188 823 204 835 q 164 792 171 811 q 158 757 158 776 q 167 717 158 736 q 189 687 174 697 q 226 676 204 676 q 281 703 263 676 z "},"⁹":{"ha":450,"x_min":25,"x_max":418,"o":"m 403 1050 q 418 969 418 1014 l 418 722 q 365 610 418 651 q 226 568 313 568 q 91 610 143 568 q 39 718 39 651 l 39 729 q 63 753 39 753 l 143 753 q 167 744 167 753 l 167 736 q 183 693 167 710 q 226 676 200 676 q 274 694 256 676 q 292 740 292 711 l 292 804 q 289 810 292 810 q 282 808 286 811 q 200 783 247 783 q 103 812 149 783 q 38 890 58 840 q 25 969 25 922 q 38 1050 25 1015 q 107 1133 57 1101 q 222 1164 157 1164 q 333 1133 286 1164 q 403 1050 381 1103 m 269 914 q 283 939 278 928 q 290 974 290 951 q 281 1018 290 1000 q 258 1045 274 1035 q 221 1056 242 1056 q 171 1032 188 1056 q 157 1007 163 1018 q 151 975 151 994 q 160 933 151 950 q 183 903 167 914 q 221 892 199 892 q 269 914 251 892 z "},"⁄":{"ha":307,"x_min":-175,"x_max":510,"o":"m -154 0 q -169 4 -164 0 q -175 15 -175 8 q -171 28 -175 22 l 371 956 q 399 972 382 972 l 489 972 q 504 968 499 972 q 510 957 510 964 q 506 944 510 951 l -36 17 q -64 0 -47 0 l -154 0 z "},"½":{"ha":1107,"x_min":39,"x_max":1075,"o":"m 86 967 q 115 972 99 972 l 203 972 q 226 949 226 972 l 226 413 q 203 389 226 389 l 124 389 q 100 413 100 389 l 100 853 q 92 861 100 861 l 64 858 l 61 858 q 39 881 39 858 l 39 928 q 57 954 39 946 l 86 967 m 169 0 q 154 4 160 0 q 149 15 149 8 q 153 28 149 22 l 694 956 q 722 972 706 972 l 813 972 q 828 968 822 972 q 833 957 833 964 q 829 944 833 951 l 288 17 q 260 0 276 0 l 169 0 m 697 0 q 674 24 674 0 l 674 90 q 686 119 674 106 q 835 272 768 201 l 861 300 q 938 419 938 381 q 918 465 938 447 q 868 482 899 482 q 817 464 836 482 q 797 418 797 446 l 797 411 q 774 388 797 388 l 693 388 q 669 411 669 388 l 669 438 q 731 549 675 507 q 868 590 786 590 q 1011 542 957 590 q 1065 422 1065 493 q 1049 352 1065 388 q 997 275 1032 317 q 928 197 969 238 q 881 147 888 156 l 851 118 q 849 112 849 115 q 856 108 850 108 l 1051 108 q 1075 85 1075 108 l 1075 24 q 1051 0 1075 0 l 697 0 z "},"¼":{"ha":1142,"x_min":39,"x_max":1104,"o":"m 86 967 q 115 972 99 972 l 203 972 q 226 949 226 972 l 226 413 q 203 389 226 389 l 124 389 q 100 413 100 389 l 100 853 q 92 861 100 861 l 64 858 l 61 858 q 39 881 39 858 l 39 928 q 57 954 39 946 l 86 967 m 169 0 q 154 4 160 0 q 149 15 149 8 q 153 28 149 22 l 694 956 q 722 972 706 972 l 813 972 q 828 968 822 972 q 833 957 833 964 q 829 944 833 951 l 288 17 q 260 0 276 0 l 169 0 m 1081 260 q 1104 236 1104 260 l 1104 169 q 1081 146 1104 146 l 1064 146 q 1056 138 1056 146 l 1056 24 q 1032 0 1056 0 l 953 0 q 929 24 929 0 l 929 138 q 921 146 929 146 l 679 146 q 656 169 656 146 l 656 222 q 661 251 656 236 l 801 565 q 829 583 811 583 l 911 583 q 932 567 932 583 l 929 556 l 806 269 q 813 260 801 260 l 921 260 q 929 268 929 260 l 929 350 q 953 374 929 374 l 1032 374 q 1056 350 1056 374 l 1056 268 q 1064 260 1056 260 l 1081 260 z "},"¾":{"ha":1268,"x_min":29,"x_max":1231,"o":"m 404 676 q 421 583 421 635 q 403 492 421 532 q 335 413 382 442 q 225 385 288 385 q 113 417 161 385 q 42 504 64 449 q 29 561 32 526 l 29 564 q 51 585 29 585 l 132 585 q 157 563 153 585 q 164 535 158 547 q 187 505 171 515 q 225 494 203 494 q 281 525 263 494 q 294 586 294 549 q 279 653 294 628 q 224 685 263 685 q 194 678 211 685 q 178 674 186 674 q 161 682 167 674 l 124 728 q 117 743 117 738 q 126 761 117 751 l 243 857 q 246 864 247 861 q 239 867 244 867 l 64 867 q 40 890 40 867 l 40 951 q 64 975 40 975 l 390 975 q 414 951 414 975 l 414 885 q 401 856 414 868 l 303 768 q 308 757 294 760 q 404 676 371 742 m 296 0 q 281 4 286 0 q 275 15 275 8 q 279 28 275 22 l 821 956 q 849 972 832 972 l 939 972 q 954 968 949 972 q 960 957 960 964 q 956 944 960 951 l 414 17 q 386 0 403 0 l 296 0 m 1207 260 q 1231 236 1231 260 l 1231 169 q 1207 146 1231 146 l 1190 146 q 1182 138 1182 146 l 1182 24 q 1158 0 1182 0 l 1079 0 q 1056 24 1056 0 l 1056 138 q 1047 146 1056 146 l 806 146 q 782 169 782 146 l 782 222 q 788 251 782 236 l 928 565 q 956 583 938 583 l 1038 583 q 1058 567 1058 583 l 1056 556 l 932 269 q 939 260 928 260 l 1047 260 q 1056 268 1056 260 l 1056 350 q 1079 374 1056 374 l 1158 374 q 1182 350 1182 374 l 1182 268 q 1190 260 1182 260 l 1207 260 z "},"⅛":{"ha":1114,"x_min":39,"x_max":1083,"o":"m 86 967 q 115 972 99 972 l 203 972 q 226 949 226 972 l 226 413 q 203 389 226 389 l 124 389 q 100 413 100 389 l 100 853 q 92 861 100 861 l 64 858 l 61 858 q 39 881 39 858 l 39 928 q 57 954 39 946 l 86 967 m 169 0 q 154 4 160 0 q 149 15 149 8 q 153 28 149 22 l 694 956 q 722 972 706 972 l 813 972 q 828 968 822 972 q 833 957 833 964 q 829 944 833 951 l 288 17 q 260 0 276 0 l 169 0 m 1068 250 q 1083 168 1083 218 q 1069 94 1083 126 q 1001 18 1050 47 q 885 -11 951 -11 q 774 16 822 -11 q 704 93 726 43 q 688 169 688 128 q 706 249 688 210 q 743 297 719 278 q 744 308 751 304 q 708 354 724 325 q 692 424 692 385 q 708 496 692 463 q 776 566 731 542 q 886 590 822 590 q 997 565 950 590 q 1065 494 1044 539 q 1082 425 1082 461 q 1064 354 1082 386 q 1028 308 1049 325 q 1029 297 1021 304 q 1068 250 1053 282 m 824 443 q 817 415 817 429 q 825 385 817 400 q 848 358 832 368 q 888 349 864 349 q 943 372 926 349 q 956 397 951 382 q 957 414 957 403 q 956 432 957 426 q 943 457 951 447 q 886 482 922 482 q 824 443 840 482 m 940 124 q 951 149 947 135 q 954 178 954 158 q 950 213 954 196 q 926 244 943 232 q 886 256 910 256 q 847 244 864 256 q 824 213 831 232 q 818 178 818 197 q 826 138 818 157 q 849 108 833 118 q 886 97 864 97 q 940 124 922 97 z "},"⅜":{"ha":1240,"x_min":29,"x_max":1210,"o":"m 404 676 q 421 583 421 635 q 403 492 421 532 q 335 413 382 442 q 225 385 288 385 q 113 417 161 385 q 42 504 64 449 q 29 561 32 526 l 29 564 q 51 585 29 585 l 132 585 q 157 563 153 585 q 164 535 158 547 q 187 505 171 515 q 225 494 203 494 q 281 525 263 494 q 294 586 294 549 q 279 653 294 628 q 224 685 263 685 q 194 678 211 685 q 178 674 186 674 q 161 682 167 674 l 124 728 q 117 743 117 738 q 126 761 117 751 l 243 857 q 246 864 247 861 q 239 867 244 867 l 64 867 q 40 890 40 867 l 40 951 q 64 975 40 975 l 390 975 q 414 951 414 975 l 414 885 q 401 856 414 868 l 303 768 q 308 757 294 760 q 404 676 371 742 m 296 0 q 281 4 286 0 q 275 15 275 8 q 279 28 275 22 l 821 956 q 849 972 832 972 l 939 972 q 954 968 949 972 q 960 957 960 964 q 956 944 960 951 l 414 17 q 386 0 403 0 l 296 0 m 1194 250 q 1210 168 1210 218 q 1196 94 1210 126 q 1127 18 1176 47 q 1011 -11 1078 -11 q 901 16 949 -11 q 831 93 853 43 q 814 169 814 128 q 832 249 814 210 q 869 297 846 278 q 871 308 878 304 q 835 354 850 325 q 818 424 818 385 q 835 496 818 463 q 903 566 857 542 q 1013 590 949 590 q 1124 565 1076 590 q 1192 494 1171 539 q 1208 425 1208 461 q 1190 354 1208 386 q 1154 308 1175 325 q 1156 297 1147 304 q 1194 250 1179 282 m 950 443 q 943 415 943 429 q 951 385 943 400 q 974 358 958 368 q 1014 349 990 349 q 1069 372 1053 349 q 1082 397 1078 382 q 1083 414 1083 403 q 1082 432 1083 426 q 1069 457 1078 447 q 1013 482 1049 482 q 950 443 967 482 m 1067 124 q 1078 149 1074 135 q 1081 178 1081 158 q 1076 213 1081 196 q 1053 244 1069 232 q 1013 256 1036 256 q 974 244 990 256 q 950 213 957 232 q 944 178 944 197 q 953 138 944 157 q 975 108 960 118 q 1013 97 990 97 q 1067 124 1049 97 z "},"⅝":{"ha":1224,"x_min":22,"x_max":1193,"o":"m 399 660 q 417 574 417 619 q 399 486 417 531 q 329 408 376 436 q 218 379 282 379 q 106 410 154 379 q 35 493 57 440 q 24 531 26 518 l 24 536 q 46 556 24 556 l 131 556 q 151 546 147 556 l 154 538 l 158 529 q 181 499 165 510 q 218 488 196 488 q 274 521 254 488 q 288 571 288 544 q 275 622 288 601 q 253 647 268 638 q 219 656 239 656 q 164 633 182 656 q 135 617 151 617 l 46 617 q 22 640 22 617 l 22 944 q 46 968 22 968 l 372 968 q 396 944 396 968 l 396 883 q 372 860 396 860 l 157 860 q 149 851 149 860 l 149 751 q 151 746 149 747 q 158 746 154 744 q 238 764 194 764 q 333 737 290 764 q 399 660 375 710 m 279 0 q 264 4 269 0 q 258 15 258 8 q 263 28 258 22 l 804 956 q 832 972 815 972 l 922 972 q 938 968 932 972 q 943 957 943 964 q 939 944 943 951 l 397 17 q 369 0 386 0 l 279 0 m 1178 250 q 1193 168 1193 218 q 1179 94 1193 126 q 1110 18 1160 47 q 994 -11 1061 -11 q 884 16 932 -11 q 814 93 836 43 q 797 169 797 128 q 815 249 797 210 q 853 297 829 278 q 854 308 861 304 q 818 354 833 325 q 801 424 801 385 q 818 496 801 463 q 886 566 840 542 q 996 590 932 590 q 1107 565 1060 590 q 1175 494 1154 539 q 1192 425 1192 461 q 1174 354 1192 386 q 1138 308 1158 325 q 1139 297 1131 304 q 1178 250 1163 282 m 933 443 q 926 415 926 429 q 935 385 926 400 q 958 358 942 368 q 997 349 974 349 q 1053 372 1036 349 q 1065 397 1061 382 q 1067 414 1067 403 q 1065 432 1067 426 q 1053 457 1061 447 q 996 482 1032 482 q 933 443 950 482 m 1050 124 q 1061 149 1057 135 q 1064 178 1064 158 q 1060 213 1064 196 q 1036 244 1053 232 q 996 256 1019 256 q 957 244 974 256 q 933 213 940 232 q 928 178 928 197 q 936 138 928 157 q 958 108 943 118 q 996 97 974 97 q 1050 124 1032 97 z "},"⅞":{"ha":1150,"x_min":11,"x_max":1119,"o":"m 115 389 q 98 397 103 389 q 97 417 93 406 l 264 854 q 258 864 267 864 l 122 864 q 114 856 114 864 l 114 811 q 90 788 114 788 l 35 788 q 11 811 11 788 l 13 949 q 36 972 13 972 l 378 972 q 401 949 401 972 l 401 879 q 396 850 401 865 l 225 407 q 199 389 219 389 l 115 389 m 206 0 q 190 4 196 0 q 185 15 185 8 q 189 28 185 22 l 731 956 q 758 972 742 972 l 849 972 q 864 968 858 972 q 869 957 869 964 q 865 944 869 951 l 324 17 q 296 0 313 0 l 206 0 m 1104 250 q 1119 168 1119 218 q 1106 94 1119 126 q 1037 18 1086 47 q 921 -11 988 -11 q 810 16 858 -11 q 740 93 763 43 q 724 169 724 128 q 742 249 724 210 q 779 297 756 278 q 781 308 788 304 q 744 354 760 325 q 728 424 728 385 q 744 496 728 463 q 813 566 767 542 q 922 590 858 590 q 1033 565 986 590 q 1101 494 1081 539 q 1118 425 1118 461 q 1100 354 1118 386 q 1064 308 1085 325 q 1065 297 1057 304 q 1104 250 1089 282 m 860 443 q 853 415 853 429 q 861 385 853 400 q 884 358 868 368 q 924 349 900 349 q 979 372 963 349 q 992 397 988 382 q 993 414 993 403 q 992 432 993 426 q 979 457 988 447 q 922 482 958 482 q 860 443 876 482 m 976 124 q 988 149 983 135 q 990 178 990 158 q 986 213 990 196 q 963 244 979 232 q 922 256 946 256 q 883 244 900 256 q 860 213 867 232 q 854 178 854 197 q 863 138 854 157 q 885 108 869 118 q 922 97 900 97 q 976 124 958 97 z "},".":{"ha":371,"x_min":57,"x_max":313,"o":"m 183 -6 q 93 30 129 -6 q 57 115 57 65 q 96 199 57 164 q 183 235 135 235 q 274 199 235 235 q 313 115 313 164 q 275 30 313 65 q 183 -6 238 -6 z "},",":{"ha":368,"x_min":57,"x_max":278,"o":"m 79 -136 q 63 -129 68 -136 q 58 -111 57 -122 l 103 197 q 110 213 104 207 q 128 219 117 219 l 254 219 q 272 212 267 219 q 275 193 278 204 l 192 -117 q 165 -136 185 -136 l 79 -136 z "},":":{"ha":506,"x_min":128,"x_max":382,"o":"m 254 463 q 164 498 200 463 q 128 583 128 533 q 167 667 128 632 q 254 703 206 703 q 343 667 304 703 q 382 583 382 632 q 345 498 382 533 q 254 463 308 463 m 254 8 q 164 43 200 8 q 128 129 128 78 q 167 213 128 178 q 254 247 206 247 q 343 213 304 247 q 382 129 382 178 q 346 43 382 78 q 254 8 310 8 z "},";":{"ha":439,"x_min":94,"x_max":349,"o":"m 221 435 q 131 470 167 435 q 94 556 94 506 q 133 640 94 604 q 221 675 172 675 q 310 640 271 675 q 349 556 349 604 q 312 470 349 506 q 221 435 275 435 m 128 -135 q 106 -110 104 -135 l 136 194 q 144 210 138 204 q 161 217 150 217 l 289 217 q 307 209 301 217 q 310 190 313 201 l 238 -114 q 213 -135 233 -135 l 128 -135 z "},"…":{"ha":1179,"x_min":57,"x_max":1121,"o":"m 183 -6 q 93 30 129 -6 q 57 115 57 65 q 96 199 57 164 q 183 235 135 235 q 274 199 235 235 q 313 115 313 164 q 275 30 313 65 q 183 -6 238 -6 m 589 -6 q 499 30 535 -6 q 463 115 463 65 q 501 199 463 164 q 589 235 540 235 q 679 199 640 235 q 718 115 718 164 q 681 30 718 65 q 589 -6 643 -6 m 992 -6 q 901 30 938 -6 q 865 115 865 65 q 904 199 865 164 q 992 235 943 235 q 1082 199 1043 235 q 1121 115 1121 164 q 1083 30 1121 65 q 992 -6 1046 -6 z "},"!":{"ha":481,"x_min":111,"x_max":365,"o":"m 185 333 q 161 357 161 333 l 144 949 q 167 972 144 972 l 315 972 q 338 949 338 972 l 319 357 q 294 333 319 333 l 185 333 m 238 1 q 147 37 183 1 q 111 122 111 72 q 149 206 111 171 q 238 242 188 242 q 326 206 288 242 q 365 122 365 171 q 328 37 365 72 q 238 1 292 1 z "},"¡":{"ha":481,"x_min":111,"x_max":365,"o":"m 238 983 q 328 948 292 983 q 365 863 365 913 q 326 778 365 814 q 238 743 288 743 q 149 778 188 743 q 111 863 111 814 q 147 948 111 913 q 238 983 183 983 m 161 628 q 185 651 161 651 l 294 651 q 319 628 319 651 l 338 36 q 315 13 338 13 l 167 13 q 144 36 144 13 l 161 628 z "},"?":{"ha":724,"x_min":39,"x_max":683,"o":"m 264 308 q 240 332 240 308 l 240 369 q 276 481 240 439 q 378 571 311 524 q 458 638 432 608 q 485 708 485 667 q 451 780 485 753 q 364 807 418 807 q 270 778 306 807 q 235 703 235 749 l 235 688 q 211 665 235 665 l 63 671 q 46 676 53 671 q 39 688 39 681 l 39 703 q 81 851 39 786 q 197 951 122 915 q 368 986 271 986 q 534 952 463 986 q 644 857 606 918 q 683 715 683 796 q 662 610 683 654 q 610 539 640 567 q 532 478 579 511 q 458 418 482 443 q 435 357 435 393 l 435 332 q 411 308 435 308 l 264 308 m 346 -3 q 263 30 297 -3 q 228 108 228 63 q 263 187 228 154 q 347 219 299 219 q 430 187 394 219 q 465 108 465 154 q 430 30 465 63 q 346 -3 394 -3 z "},"¿":{"ha":724,"x_min":40,"x_max":685,"o":"m 378 697 q 461 665 426 697 q 496 586 496 632 q 460 508 496 540 q 376 475 425 475 q 294 508 329 475 q 258 586 258 540 q 294 665 258 632 q 378 697 329 697 m 460 386 q 483 363 483 386 l 483 325 q 448 213 483 256 q 346 124 413 171 q 265 57 292 86 q 239 -14 239 28 q 272 -85 239 -58 q 360 -112 306 -112 q 453 -83 418 -112 q 489 -8 489 -54 l 489 7 q 513 29 489 29 l 661 24 q 678 19 671 24 q 685 7 685 14 l 685 -8 q 643 -156 685 -92 q 527 -256 601 -221 q 356 -292 453 -292 q 190 -258 261 -292 q 79 -162 118 -224 q 40 -21 40 -101 q 62 84 40 40 q 114 156 83 128 q 192 217 144 183 q 265 276 242 251 q 289 338 289 301 l 289 363 q 313 386 289 386 l 460 386 z "},"·":{"ha":254,"x_min":-10,"x_max":246,"o":"m 117 -6 q 26 30 63 -6 q -10 115 -10 65 q 29 199 -10 164 q 117 235 68 235 q 207 199 168 235 q 246 115 246 164 q 208 30 246 65 q 117 -6 171 -6 z "},"•":{"ha":440,"x_min":40,"x_max":400,"o":"m 221 203 q 131 227 172 203 q 65 294 89 251 q 40 385 40 336 q 65 475 40 433 q 131 540 89 517 q 221 564 172 564 q 310 540 269 564 q 376 475 351 517 q 400 385 400 433 q 376 294 400 336 q 310 227 351 251 q 221 203 269 203 z "},"*":{"ha":554,"x_min":33,"x_max":521,"o":"m 244 546 q 221 569 221 546 l 222 686 q 213 692 222 697 l 103 628 q 89 624 96 624 q 71 636 78 624 l 38 697 q 35 710 35 701 q 47 729 35 724 l 157 788 q 157 799 167 793 l 47 854 q 33 874 33 860 q 38 886 33 881 l 71 947 q 90 961 78 961 q 103 957 97 961 l 213 894 q 222 900 222 889 l 221 1014 q 244 1038 221 1038 l 310 1038 q 333 1014 333 1038 l 332 900 q 342 894 332 889 l 451 957 q 464 961 457 961 q 483 947 476 961 l 517 886 q 521 872 521 881 q 507 854 521 860 l 396 799 q 396 788 386 793 l 507 729 q 519 710 519 724 q 517 697 519 701 l 483 636 q 465 624 478 624 q 451 628 457 624 l 342 692 q 332 686 332 697 l 333 569 q 310 546 333 546 l 244 546 z "},"#":{"ha":954,"x_min":65,"x_max":889,"o":"m 888 585 q 864 561 888 561 l 768 561 q 758 554 761 561 l 738 418 q 746 410 736 410 l 814 410 q 838 386 838 410 l 838 267 q 814 243 838 243 l 719 243 q 710 236 713 243 l 682 60 q 657 38 678 38 l 508 38 q 492 44 497 38 q 488 63 486 51 l 514 235 q 506 243 517 243 l 371 243 q 361 236 364 243 l 333 60 q 308 38 329 38 l 160 38 q 143 44 149 38 q 139 63 138 51 l 165 235 q 157 243 168 243 l 89 243 q 65 267 65 243 l 65 386 q 89 410 65 410 l 183 410 q 193 417 190 410 l 214 553 q 206 561 217 561 l 140 561 q 117 585 117 561 l 117 706 q 140 729 117 729 l 233 729 q 243 736 240 729 l 271 913 q 296 935 275 935 l 444 935 q 461 928 456 935 q 465 910 467 921 l 439 738 q 447 729 438 729 l 581 729 q 590 736 588 729 l 618 913 q 643 935 622 935 l 792 935 q 808 928 803 935 q 813 910 814 921 l 786 738 q 794 729 785 729 l 865 729 q 889 706 889 729 l 888 585 m 532 410 q 542 417 539 410 l 563 553 q 554 561 565 561 l 419 561 q 410 554 413 561 l 389 418 q 397 410 388 410 l 532 410 z "},"/":{"ha":617,"x_min":32,"x_max":586,"o":"m 56 0 q 38 8 43 0 q 36 28 32 17 l 389 954 q 415 972 394 972 l 563 972 q 581 964 575 972 q 582 944 586 956 l 229 18 q 203 0 224 0 l 56 0 z "},"\\":{"ha":617,"x_min":33,"x_max":582,"o":"m 581 28 q 582 18 582 25 q 576 6 582 11 q 561 0 571 0 l 414 0 q 388 18 393 0 l 35 944 q 33 954 33 949 q 39 967 33 963 q 54 972 44 972 l 201 972 q 228 954 222 972 l 581 28 z "},"(":{"ha":482,"x_min":-1,"x_max":368,"o":"m 204 -126 q 175 -112 188 -126 q 47 138 94 -7 q -1 461 -1 282 q 47 788 -1 642 q 176 1040 96 935 q 206 1054 189 1054 l 347 1054 q 368 1039 368 1054 q 364 1026 368 1033 q 218 463 218 768 q 364 -99 218 157 q 368 -111 368 -106 q 347 -126 368 -126 l 204 -126 z "},")":{"ha":482,"x_min":114,"x_max":483,"o":"m 307 -112 q 278 -126 294 -126 l 135 -126 q 114 -111 114 -126 q 118 -99 114 -106 q 264 463 264 157 q 118 1026 264 768 q 114 1039 114 1033 q 135 1054 114 1054 l 276 1054 q 306 1040 293 1054 q 435 788 386 935 q 483 461 483 642 q 435 138 483 282 q 307 -112 388 -7 z "},"{":{"ha":522,"x_min":49,"x_max":474,"o":"m 331 -204 q 194 -160 240 -204 q 149 -32 149 -117 l 149 256 q 130 342 149 313 q 71 379 111 372 q 49 403 49 382 l 49 513 q 71 536 49 533 q 130 573 111 543 q 149 658 149 603 l 149 940 q 194 1068 149 1025 q 331 1111 240 1111 l 450 1111 q 474 1088 474 1111 l 474 967 q 450 943 474 943 l 419 943 q 365 919 386 943 q 344 856 344 896 l 344 632 q 325 524 344 565 q 265 463 306 483 q 265 453 256 458 q 325 391 306 432 q 344 282 344 350 l 344 53 q 365 -12 344 11 q 419 -35 386 -35 l 450 -35 q 474 -58 474 -35 l 474 -181 q 450 -204 474 -204 l 331 -204 z "},"}":{"ha":522,"x_min":49,"x_max":474,"o":"m 72 -204 q 49 -181 49 -204 l 49 -58 q 72 -35 49 -35 l 103 -35 q 157 -12 136 -35 q 178 53 178 11 l 178 282 q 197 391 178 350 q 257 453 217 432 q 257 463 267 458 q 197 524 217 483 q 178 632 178 565 l 178 856 q 157 919 178 896 q 103 943 136 943 l 72 943 q 49 967 49 943 l 49 1088 q 72 1111 49 1111 l 192 1111 q 328 1068 282 1111 q 374 940 374 1025 l 374 658 q 392 573 374 603 q 451 536 411 543 q 474 513 474 533 l 474 403 q 451 379 474 382 q 392 342 411 372 q 374 256 374 313 l 374 -32 q 328 -160 374 -117 q 192 -204 282 -204 l 72 -204 z "},"[":{"ha":578,"x_min":49,"x_max":413,"o":"m 72 -204 q 49 -181 49 -204 l 49 1088 q 72 1111 49 1111 l 388 1111 q 411 1088 411 1111 l 411 967 q 388 943 411 943 l 253 943 q 244 935 244 943 l 244 -26 q 253 -35 244 -35 l 389 -35 q 413 -58 413 -35 l 413 -181 q 389 -204 413 -204 l 72 -204 z "},"]":{"ha":578,"x_min":165,"x_max":529,"o":"m 529 -181 q 506 -204 529 -204 l 189 -204 q 165 -181 165 -204 l 165 -58 q 189 -35 165 -35 l 325 -35 q 333 -26 333 -35 l 333 935 q 325 943 333 943 l 190 943 q 167 967 167 943 l 167 1088 q 190 1111 167 1111 l 506 1111 q 529 1088 529 1111 l 529 -181 z "},"-":{"ha":568,"x_min":40,"x_max":528,"o":"m 64 326 q 40 350 40 326 l 40 471 q 64 494 40 494 l 504 494 q 528 471 528 494 l 528 350 q 504 326 528 326 l 64 326 z "},"­":{"ha":568,"x_min":40,"x_max":528,"o":"m 64 326 q 40 350 40 326 l 40 471 q 64 494 40 494 l 504 494 q 528 471 528 494 l 528 350 q 504 326 528 326 l 64 326 z "},"–":{"ha":661,"x_min":40,"x_max":622,"o":"m 64 310 q 40 333 40 310 l 40 454 q 64 478 40 478 l 599 478 q 622 454 622 478 l 622 333 q 599 310 622 310 l 64 310 z "},"—":{"ha":915,"x_min":40,"x_max":875,"o":"m 64 311 q 40 335 40 311 l 40 454 q 64 478 40 478 l 851 478 q 875 454 875 478 l 875 335 q 851 311 875 311 l 64 311 z "},"_":{"ha":726,"x_min":26,"x_max":700,"o":"m 50 0 q 26 24 26 0 l 26 125 q 50 149 26 149 l 676 149 q 700 125 700 149 l 700 24 q 676 0 700 0 l 50 0 z "},"‚":{"ha":833,"x_min":58,"x_max":276,"o":"m 79 -136 q 63 -129 68 -136 q 58 -111 57 -122 l 103 197 q 110 213 104 207 q 128 219 117 219 l 254 219 q 272 212 267 219 q 275 193 278 204 l 192 -117 q 165 -136 185 -136 l 79 -136 z "},"„":{"ha":532,"x_min":6,"x_max":496,"o":"m 229 178 q 247 170 242 178 q 249 151 253 163 l 156 -117 q 128 -136 150 -136 l 26 -136 q 8 -129 14 -136 q 6 -110 3 -122 l 64 157 q 89 178 68 178 l 229 178 m 475 178 q 493 170 488 178 q 494 151 499 163 l 400 -117 q 372 -136 394 -136 l 269 -136 q 251 -128 257 -136 q 249 -110 246 -121 l 310 157 q 335 178 314 178 l 475 178 z "},"“":{"ha":504,"x_min":6,"x_max":501,"o":"m 29 658 q 11 666 17 658 q 10 685 6 674 l 104 953 q 132 972 110 972 l 235 972 q 253 965 247 972 q 256 946 258 957 l 194 679 q 169 658 190 658 l 29 658 m 275 658 q 257 666 263 658 q 256 685 251 674 l 349 953 q 376 972 354 972 l 478 972 q 496 965 490 972 q 499 946 501 958 l 440 679 q 415 658 436 658 l 275 658 z "},"”":{"ha":504,"x_min":3,"x_max":499,"o":"m 229 972 q 247 965 242 972 q 249 946 253 957 l 156 678 q 128 658 150 658 l 26 658 q 8 665 14 658 q 6 685 3 672 l 64 951 q 89 972 68 972 l 229 972 m 475 972 q 493 965 488 972 q 494 946 499 957 l 400 678 q 372 658 394 658 l 269 658 q 251 666 257 658 q 249 685 246 674 l 310 951 q 335 972 314 972 l 475 972 z "},"‘":{"ha":283,"x_min":6,"x_max":279,"o":"m 29 658 q 11 667 17 658 q 11 686 6 675 l 121 954 q 147 972 129 972 l 256 972 q 274 965 268 972 q 276 946 279 957 l 204 678 q 178 658 197 658 l 29 658 z "},"’":{"ha":283,"x_min":4,"x_max":278,"o":"m 254 972 q 272 964 267 972 q 272 944 278 956 l 163 676 q 136 658 154 658 l 28 658 q 10 666 15 658 q 7 685 4 674 l 79 953 q 106 972 86 972 l 254 972 z "},"«":{"ha":707,"x_min":75,"x_max":617,"o":"m 374 176 q 378 164 378 171 q 358 149 378 149 l 235 149 q 207 164 217 149 l 81 374 q 75 390 75 385 q 81 407 75 396 l 207 617 q 235 632 217 632 l 358 632 q 378 617 378 632 q 374 604 378 611 l 247 396 q 247 385 243 390 l 374 176 m 613 176 q 617 164 617 171 q 597 149 617 149 l 474 149 q 446 164 456 149 l 319 374 q 314 390 314 385 q 319 407 314 396 l 446 617 q 474 632 456 632 l 597 632 q 617 617 617 632 q 613 604 617 611 l 486 396 q 486 385 482 390 l 613 176 z "},"»":{"ha":707,"x_min":99,"x_max":640,"o":"m 118 149 q 99 164 99 149 q 103 176 99 171 l 229 385 q 229 396 233 390 l 103 604 q 99 617 99 611 q 118 632 99 632 l 242 632 q 269 617 260 632 l 396 407 q 401 390 401 400 q 396 374 401 381 l 269 164 q 242 149 260 149 l 118 149 m 357 149 q 338 164 338 149 q 342 176 338 171 l 468 385 q 468 396 472 390 l 342 604 q 338 617 338 611 q 357 632 338 632 l 481 632 q 508 617 499 632 l 635 407 q 640 390 640 400 q 635 374 640 381 l 508 164 q 481 149 499 149 l 357 149 z "},"‹":{"ha":465,"x_min":64,"x_max":367,"o":"m 363 176 q 367 164 367 171 q 347 149 367 149 l 224 149 q 196 164 206 149 l 69 374 q 64 390 64 385 q 69 407 64 396 l 196 617 q 224 632 206 632 l 347 632 q 367 617 367 632 q 363 604 367 611 l 236 396 q 236 385 232 390 l 363 176 z "},"›":{"ha":482,"x_min":99,"x_max":401,"o":"m 118 149 q 99 164 99 149 q 103 176 99 171 l 229 385 q 229 396 233 390 l 103 604 q 99 617 99 611 q 118 632 99 632 l 242 632 q 269 617 260 632 l 396 407 q 401 390 401 400 q 396 374 401 381 l 269 164 q 242 149 260 149 l 118 149 z "},"\"":{"ha":499,"x_min":21,"x_max":483,"o":"m 63 654 q 39 676 42 654 l 21 944 l 21 947 q 44 969 21 969 l 183 969 q 207 944 210 969 l 189 676 q 165 654 186 654 l 63 654 m 338 654 q 314 676 317 654 l 296 944 l 296 947 q 319 969 296 969 l 457 969 q 481 944 483 969 l 463 676 q 439 654 460 654 l 338 654 z "},"'":{"ha":233,"x_min":21,"x_max":219,"o":"m 63 657 q 39 679 42 657 l 21 946 l 21 949 q 44 971 21 971 l 193 971 q 217 946 219 971 l 199 679 q 175 657 196 657 l 63 657 z "}," ":{"ha":278,"x_min":0,"x_max":0,"o":""},"¢":{"ha":746,"x_min":54,"x_max":704,"o":"m 507 374 l 507 374 q 517 387 508 379 q 535 393 525 394 l 681 371 q 697 361 692 368 q 700 344 701 354 q 693 313 697 322 q 607 186 669 236 q 460 121 544 136 q 451 111 451 119 l 456 25 l 456 22 q 433 1 456 1 l 315 1 q 293 25 293 1 l 297 118 q 290 126 297 124 q 159 197 214 146 q 78 322 104 249 q 54 486 54 392 q 78 647 54 579 q 158 769 103 719 q 290 839 214 819 q 297 847 297 842 l 293 939 q 315 963 293 963 l 433 963 q 456 939 457 963 l 451 853 q 460 843 451 846 q 608 775 546 826 q 693 654 669 724 q 704 611 701 635 l 704 608 q 683 586 704 590 l 538 564 l 531 563 q 511 579 514 563 l 507 599 q 464 658 497 635 q 385 682 431 682 q 310 660 340 682 q 267 599 279 638 q 251 485 251 557 q 265 371 251 413 q 309 306 278 329 q 385 282 340 282 q 460 305 428 282 q 506 367 493 328 l 507 374 z "},"¤":{"ha":797,"x_min":29,"x_max":769,"o":"m 700 422 q 665 281 700 346 q 667 268 661 274 l 753 182 q 761 165 761 174 q 751 149 761 157 l 660 71 q 644 64 650 64 q 626 72 635 64 l 549 150 q 536 151 543 156 q 394 117 471 117 q 258 149 319 117 q 246 146 250 150 l 171 71 q 154 64 164 64 q 138 71 147 64 l 46 149 q 38 165 38 157 q 46 182 38 174 l 125 261 q 126 274 131 267 q 88 422 88 343 q 122 564 88 499 q 121 576 126 571 l 38 660 q 29 676 29 668 q 38 693 29 685 l 129 772 q 144 779 139 779 q 163 771 154 779 l 240 693 q 253 692 246 688 q 394 726 318 726 q 542 689 474 726 q 554 690 549 685 l 636 771 q 654 779 644 779 q 669 772 660 779 l 760 693 q 769 676 769 685 q 761 660 769 668 l 671 569 q 668 558 667 565 q 700 422 700 497 m 256 422 q 297 324 256 365 q 394 283 338 283 q 492 324 451 283 q 533 422 533 364 q 492 520 533 479 q 394 561 451 561 q 297 520 338 561 q 256 422 256 479 z "},"$":{"ha":767,"x_min":58,"x_max":714,"o":"m 714 276 q 645 85 714 160 q 451 -7 576 10 q 443 -17 443 -10 l 444 -79 q 421 -103 444 -103 l 339 -103 q 315 -79 315 -103 l 318 -15 q 310 -6 318 -8 q 126 75 192 8 q 60 243 60 142 l 60 303 q 83 326 60 326 l 228 326 q 251 308 251 326 l 251 289 q 288 194 251 232 q 392 157 324 157 q 486 189 454 157 q 518 267 518 221 q 480 334 518 308 q 358 393 442 360 q 204 467 256 433 q 96 566 133 510 q 58 706 58 622 q 124 888 58 815 q 308 978 189 960 q 317 988 317 981 l 314 1063 q 338 1086 314 1086 l 417 1086 q 440 1063 440 1086 l 439 989 q 447 979 439 982 q 640 895 571 965 q 708 717 708 825 l 708 671 q 685 647 708 647 l 539 647 q 515 661 515 647 l 515 675 q 481 775 515 735 q 376 815 446 815 q 285 788 318 815 q 251 713 251 760 q 289 644 251 668 q 411 589 326 619 q 508 551 468 568 q 664 437 614 504 q 714 276 714 369 z "},"€":{"ha":881,"x_min":65,"x_max":819,"o":"m 500 157 q 581 183 549 157 q 624 254 614 210 q 651 274 631 278 l 799 247 q 815 238 810 244 q 817 219 819 231 q 713 51 797 113 q 500 -11 628 -11 q 331 27 404 -11 q 218 135 258 65 q 178 299 178 206 l 178 347 q 169 356 178 356 l 89 356 q 65 379 65 356 l 65 435 q 89 458 65 458 l 169 458 q 178 467 178 458 l 178 507 q 169 515 178 515 l 89 515 q 65 539 65 515 l 65 594 q 89 618 65 618 l 169 618 q 178 626 178 618 l 178 675 q 217 838 178 768 q 330 946 257 908 q 500 983 403 983 q 715 920 631 983 q 819 747 800 857 l 819 742 q 799 721 819 724 l 650 703 l 647 703 q 622 724 629 703 q 580 790 613 765 q 500 815 547 815 q 408 778 443 815 q 374 681 374 740 l 374 626 q 382 618 374 618 l 649 618 q 666 610 661 618 q 668 592 671 603 l 651 535 q 625 515 644 515 l 382 515 q 374 507 374 515 l 374 467 q 382 458 374 458 l 601 458 q 619 451 614 458 q 621 432 624 443 l 604 375 q 578 356 597 356 l 382 356 q 374 347 374 356 l 374 290 q 408 194 374 231 q 500 157 443 157 z "},"ƒ":{"ha":769,"x_min":36,"x_max":728,"o":"m 642 826 q 571 803 593 825 q 542 731 549 782 l 521 603 q 529 594 519 594 l 619 594 q 643 571 643 594 l 643 453 q 619 429 643 429 l 501 429 q 492 422 494 429 l 415 -58 q 369 -193 401 -146 q 276 -260 338 -240 q 107 -281 215 -281 l 60 -279 q 36 -254 36 -276 l 36 -156 q 60 -132 36 -132 l 119 -132 q 189 -110 164 -132 q 222 -36 214 -89 l 296 421 q 288 429 299 429 l 207 429 q 183 453 183 429 l 183 571 q 207 594 183 594 l 315 594 q 325 601 322 594 l 349 753 q 394 890 363 843 q 485 956 425 938 q 653 975 544 975 l 704 974 q 728 949 728 971 l 728 850 q 704 826 728 826 l 642 826 z "},"₣":{"ha":872,"x_min":85,"x_max":853,"o":"m 853 828 q 829 804 853 804 l 383 804 q 375 796 375 804 l 375 583 q 383 575 375 575 l 674 575 q 697 551 697 575 l 697 431 q 674 407 697 407 l 383 407 q 375 399 375 407 l 375 286 q 383 278 375 278 l 553 278 q 576 254 576 278 l 576 183 q 553 160 576 160 l 383 160 q 375 151 375 160 l 375 24 q 351 0 375 0 l 203 0 q 179 24 179 0 l 179 151 q 171 160 179 160 l 108 160 q 85 183 85 160 l 85 254 q 108 278 85 278 l 171 278 q 179 286 179 278 l 179 949 q 203 972 179 972 l 829 972 q 853 949 853 972 l 853 828 z "},"£":{"ha":851,"x_min":85,"x_max":810,"o":"m 397 308 q 347 178 397 231 q 345 171 344 174 q 351 168 346 168 l 786 168 q 810 144 810 168 l 810 24 q 786 0 810 0 l 153 0 q 129 24 129 0 l 129 150 q 144 178 129 167 q 188 232 175 200 q 201 308 201 264 l 201 390 q 193 399 201 399 l 108 399 q 85 422 85 399 l 85 533 q 108 557 85 557 l 193 557 q 201 565 201 557 l 201 681 q 286 903 201 824 q 514 983 371 983 q 699 928 625 983 q 806 772 772 872 q 807 763 807 768 q 789 744 807 749 l 653 719 q 650 719 651 719 q 646 719 649 718 q 624 736 631 719 q 581 797 607 779 q 517 815 554 815 q 429 783 461 815 q 397 685 397 751 l 397 565 q 406 557 397 557 l 650 557 q 674 533 674 557 l 674 422 q 650 399 674 399 l 406 399 q 397 390 397 399 l 397 308 z "},"₺":{"ha":900,"x_min":71,"x_max":843,"o":"m 644 368 q 669 392 647 392 l 818 392 q 840 368 843 392 q 787 192 835 274 q 647 58 739 110 q 426 3 556 7 q 247 0 307 0 q 224 24 224 0 l 224 363 q 214 369 224 372 l 119 343 q 111 342 117 342 q 90 358 94 342 l 72 422 q 71 431 71 425 q 88 451 71 447 l 217 488 q 224 496 224 490 l 224 551 q 214 558 224 561 l 119 532 q 111 531 117 531 q 90 547 94 531 l 72 611 q 71 619 71 614 q 88 640 71 636 l 217 676 q 224 685 224 679 l 224 949 q 247 972 224 972 l 396 972 q 419 949 419 972 l 419 742 q 429 735 419 732 l 618 788 q 626 789 621 789 q 647 772 643 789 l 665 710 q 667 701 667 707 q 650 681 667 685 l 426 618 q 419 610 419 615 l 419 553 q 429 546 419 543 l 618 599 q 626 600 621 600 q 647 583 643 600 l 665 521 q 667 513 667 518 q 650 492 667 496 l 426 429 q 419 421 419 426 l 419 176 q 431 169 419 167 q 584 232 531 179 q 644 368 638 285 z "},"₽":{"ha":974,"x_min":85,"x_max":939,"o":"m 428 388 q 419 379 419 388 l 419 317 q 428 308 419 308 l 683 308 q 707 285 707 308 l 707 218 q 683 194 707 194 l 428 194 q 419 186 419 194 l 419 24 q 396 0 419 0 l 247 0 q 224 24 224 0 l 224 186 q 215 194 224 194 l 108 194 q 85 218 85 194 l 85 285 q 108 308 85 308 l 215 308 q 224 317 224 308 l 224 379 q 215 388 224 388 l 108 388 q 85 411 85 388 l 85 522 q 108 546 85 546 l 215 546 q 224 554 224 546 l 224 950 q 247 974 224 974 l 631 974 q 792 936 722 974 q 900 831 861 899 q 939 678 939 764 q 897 526 939 592 q 783 424 856 460 q 622 388 711 388 l 428 388 m 428 804 q 419 796 419 804 l 419 554 q 428 546 419 546 l 601 546 q 706 579 669 546 q 743 674 743 613 q 706 770 743 736 q 601 804 669 804 l 428 804 z "},"¥":{"ha":953,"x_min":94,"x_max":867,"o":"m 846 972 q 861 968 856 972 q 867 957 867 964 q 863 944 867 951 l 628 474 q 633 464 624 464 l 749 464 q 772 440 772 464 l 772 379 q 749 356 772 356 l 585 356 q 576 347 576 356 l 576 282 q 585 274 576 274 l 749 274 q 772 250 772 274 l 772 188 q 749 164 772 164 l 585 164 q 576 156 576 164 l 576 25 q 553 1 576 1 l 406 1 q 382 25 382 1 l 382 156 q 374 164 382 164 l 210 164 q 186 188 186 164 l 186 250 q 210 274 186 274 l 374 274 q 382 282 382 274 l 382 347 q 374 356 382 356 l 210 356 q 186 379 186 356 l 186 440 q 210 464 186 464 l 326 464 q 332 474 336 464 l 99 944 q 94 957 94 951 q 100 968 94 964 q 115 972 106 972 l 276 972 q 304 954 296 972 l 474 593 q 480 589 476 589 q 485 593 483 589 l 654 954 q 682 972 664 972 l 846 972 z "},"∙":{"ha":440,"x_min":40,"x_max":400,"o":"m 221 232 q 131 256 172 232 q 65 322 89 281 q 40 413 40 364 q 93 540 40 488 q 221 592 146 592 q 348 540 296 592 q 400 413 400 488 q 376 322 400 364 q 310 256 351 281 q 221 232 269 232 z "},"∕":{"ha":732,"x_min":38,"x_max":694,"o":"m 58 0 q 38 17 38 0 q 40 28 38 24 l 518 956 q 546 972 526 972 l 674 972 q 694 956 694 972 q 692 944 694 949 l 215 17 q 188 0 207 0 l 58 0 z "},"+":{"ha":675,"x_min":40,"x_max":635,"o":"m 611 501 q 635 478 635 501 l 635 357 q 611 333 635 333 l 429 333 q 421 325 421 333 l 421 146 q 397 122 421 122 l 278 122 q 254 146 254 122 l 254 325 q 246 333 254 333 l 64 333 q 40 357 40 333 l 40 478 q 64 501 40 501 l 246 501 q 254 510 254 501 l 254 693 q 278 717 254 717 l 397 717 q 421 693 421 717 l 421 510 q 429 501 421 501 l 611 501 z "},"−":{"ha":675,"x_min":40,"x_max":635,"o":"m 64 333 q 40 357 40 333 l 40 478 q 64 501 40 501 l 611 501 q 635 478 635 501 l 635 357 q 611 333 635 333 l 64 333 z "},"×":{"ha":619,"x_min":49,"x_max":571,"o":"m 563 604 q 571 588 571 596 q 563 571 571 579 l 433 442 q 431 436 431 439 q 433 431 431 433 l 561 303 q 569 286 569 294 q 561 269 569 278 l 476 186 q 460 178 468 178 q 443 186 451 178 l 317 313 q 311 315 314 315 q 306 313 308 315 l 176 183 q 160 175 168 175 q 143 183 151 175 l 57 269 q 49 286 49 278 q 57 303 49 294 l 186 432 q 189 438 189 435 q 186 443 189 440 l 57 572 q 49 589 49 581 q 57 606 49 597 l 140 690 q 157 699 149 699 q 174 690 165 699 l 304 560 q 310 557 307 557 q 315 560 313 557 l 444 689 q 461 697 453 697 q 478 689 469 697 l 563 604 z "},"÷":{"ha":675,"x_min":40,"x_max":635,"o":"m 338 579 q 269 607 297 579 q 242 675 242 635 q 270 742 242 714 q 338 769 299 769 q 404 742 376 769 q 432 675 432 714 q 404 608 432 636 q 338 579 376 579 m 64 349 q 40 372 40 349 l 40 493 q 64 517 40 517 l 611 517 q 635 493 635 517 l 635 372 q 611 349 635 349 l 64 349 m 338 108 q 269 136 297 108 q 242 204 242 164 q 270 271 242 243 q 338 299 299 299 q 404 271 376 299 q 432 204 432 243 q 404 137 432 165 q 338 108 376 108 z "},"=":{"ha":675,"x_min":40,"x_max":635,"o":"m 64 463 q 40 486 40 463 l 40 607 q 64 631 40 631 l 611 631 q 635 607 635 631 l 635 486 q 611 463 635 463 l 64 463 m 64 196 q 40 219 40 196 l 40 340 q 64 364 40 364 l 611 364 q 635 340 635 364 l 635 219 q 611 196 635 196 l 64 196 z "},"≠":{"ha":675,"x_min":40,"x_max":635,"o":"m 635 508 q 611 485 635 485 l 429 485 q 419 478 422 485 l 383 396 q 390 386 379 386 l 611 386 q 635 363 635 386 l 635 242 q 611 218 635 218 l 311 218 q 301 211 304 218 l 254 104 q 226 86 246 86 l 158 86 q 138 103 138 86 l 140 114 l 182 208 q 175 218 186 218 l 64 218 q 40 242 40 218 l 40 363 q 64 386 40 386 l 254 386 q 264 393 261 386 l 300 475 q 293 485 304 485 l 64 485 q 40 508 40 485 l 40 629 q 64 653 40 653 l 372 653 q 382 660 379 653 l 428 764 q 456 782 438 782 l 524 782 q 544 765 544 782 l 542 754 l 501 663 q 508 653 497 653 l 611 653 q 635 629 635 653 l 635 508 z "},">":{"ha":675,"x_min":40,"x_max":635,"o":"m 57 43 q 40 64 40 43 l 40 201 q 58 228 40 219 l 421 375 q 426 381 426 378 q 421 386 426 385 l 58 535 q 40 561 40 543 l 40 697 q 57 718 40 718 l 68 715 l 617 474 q 635 446 635 465 l 635 315 q 617 288 635 297 l 68 46 l 57 43 z "},"<":{"ha":675,"x_min":40,"x_max":635,"o":"m 635 64 q 618 43 635 43 l 607 46 l 58 288 q 40 315 40 297 l 40 446 q 58 474 40 465 l 607 715 l 618 718 q 635 697 635 718 l 635 561 q 617 535 635 543 l 254 386 q 249 381 249 385 q 254 375 249 378 l 617 228 q 635 201 635 219 l 635 64 z "},"≥":{"ha":675,"x_min":40,"x_max":635,"o":"m 64 0 q 40 24 40 0 l 40 144 q 64 168 40 168 l 611 168 q 635 144 635 168 l 635 24 q 611 0 635 0 l 64 0 m 57 224 q 40 244 40 224 l 40 382 q 58 408 40 400 l 421 556 q 426 562 426 558 q 421 567 426 565 l 58 715 q 40 742 40 724 l 40 878 q 57 899 40 899 l 68 896 l 617 654 q 635 626 635 646 l 635 496 q 617 468 635 478 l 68 226 l 57 224 z "},"≤":{"ha":675,"x_min":40,"x_max":635,"o":"m 635 244 q 618 224 635 224 l 607 226 l 58 468 q 40 496 40 478 l 40 626 q 58 654 40 646 l 607 896 l 618 899 q 635 878 635 899 l 635 742 q 617 715 635 724 l 254 567 q 249 562 249 565 q 254 556 249 558 l 617 408 q 635 382 635 400 l 635 244 m 635 24 q 611 0 635 0 l 64 0 q 40 24 40 0 l 40 144 q 64 168 40 168 l 611 168 q 635 144 635 168 l 635 24 z "},"±":{"ha":675,"x_min":40,"x_max":635,"o":"m 611 633 q 635 610 635 633 l 635 489 q 611 465 635 465 l 429 465 q 421 457 421 465 l 421 278 q 397 254 421 254 l 278 254 q 254 278 254 254 l 254 457 q 246 465 254 465 l 64 465 q 40 489 40 465 l 40 610 q 64 633 40 633 l 246 633 q 254 642 254 633 l 254 825 q 278 849 254 849 l 397 849 q 421 825 421 849 l 421 642 q 429 633 421 633 l 611 633 m 64 0 q 40 24 40 0 l 40 144 q 64 168 40 168 l 611 168 q 635 144 635 168 l 635 24 q 611 0 635 0 l 64 0 z "},"≈":{"ha":742,"x_min":44,"x_max":697,"o":"m 494 442 q 431 451 458 442 q 372 479 403 461 q 312 510 338 499 q 257 521 286 521 q 169 476 203 521 q 153 465 161 465 q 138 471 149 465 l 57 525 q 47 556 39 538 q 128 653 72 615 q 250 690 185 690 q 310 681 283 690 q 367 654 336 672 q 399 636 376 649 q 442 617 422 624 q 481 610 461 610 q 557 654 525 610 q 576 665 564 665 q 590 661 583 665 l 685 600 q 697 581 697 594 q 694 569 697 574 q 613 477 667 513 q 494 442 558 442 m 494 146 q 431 156 458 146 q 372 183 403 165 q 312 214 338 203 q 257 225 286 225 q 169 181 203 225 q 153 169 161 169 q 138 175 149 169 l 57 229 q 47 260 39 242 q 128 357 72 319 q 250 394 185 394 q 310 385 283 394 q 367 358 336 376 q 399 340 376 353 q 442 321 422 328 q 481 314 461 314 q 557 358 525 314 q 576 369 564 369 q 590 365 583 369 l 685 304 q 697 285 697 299 q 694 274 697 278 q 613 181 667 217 q 494 146 558 146 z "},"~":{"ha":742,"x_min":39,"x_max":697,"o":"m 494 279 q 431 289 458 279 q 372 317 403 299 q 312 347 338 336 q 257 358 286 358 q 169 314 203 358 q 153 303 161 303 q 138 308 149 303 l 57 363 q 47 393 39 375 q 128 490 72 453 q 250 528 185 528 q 310 519 283 528 q 367 492 336 510 q 399 474 376 486 q 442 454 422 461 q 481 447 461 447 q 557 492 525 447 q 576 503 564 503 q 590 499 583 503 l 685 438 q 697 418 697 432 q 694 407 697 411 q 613 315 667 350 q 494 279 558 279 z "},"¬":{"ha":675,"x_min":40,"x_max":635,"o":"m 40 478 q 64 501 40 501 l 611 501 q 635 478 635 501 l 635 201 q 611 178 635 178 l 490 178 q 467 201 467 178 l 467 325 q 458 333 467 333 l 64 333 q 40 357 40 333 l 40 478 z "},"∞":{"ha":1065,"x_min":40,"x_max":1025,"o":"m 768 700 q 900 667 842 700 q 992 574 958 633 q 1025 443 1025 515 q 992 311 1025 369 q 899 219 958 253 q 763 186 839 186 q 636 217 690 186 q 531 308 582 247 q 526 311 529 311 q 519 308 522 311 q 415 219 469 251 q 292 186 360 186 q 165 221 222 186 q 74 315 107 256 q 40 446 40 374 q 74 575 40 517 q 165 667 107 633 q 296 700 224 700 q 422 667 367 700 q 522 579 476 635 q 533 579 529 572 q 643 669 588 639 q 768 700 699 700 m 293 338 q 359 361 331 338 q 428 440 388 385 q 428 451 432 446 q 362 527 389 506 q 299 549 335 549 q 222 519 251 549 q 192 446 192 490 q 221 368 192 399 q 293 338 250 338 m 764 338 q 844 367 815 338 q 874 443 874 396 q 845 519 874 490 q 771 549 817 549 q 697 525 732 549 q 622 449 663 501 q 625 433 618 442 q 693 359 663 381 q 764 338 724 338 z "},"∫":{"ha":586,"x_min":36,"x_max":544,"o":"m 61 -278 q 36 -254 36 -278 l 36 -156 q 60 -132 36 -132 l 101 -132 q 169 -109 150 -131 q 189 -36 188 -87 l 196 753 q 226 893 197 846 q 322 957 254 940 q 519 972 389 974 q 544 949 544 972 l 544 850 q 521 826 544 826 l 481 826 q 413 803 432 825 q 392 731 393 782 l 385 -58 q 354 -199 383 -151 q 258 -262 325 -246 q 61 -278 192 -279 z "},"Ω":{"ha":882,"x_min":65,"x_max":817,"o":"m 89 0 q 65 24 65 0 l 65 144 q 89 168 65 168 l 140 168 q 147 171 146 168 q 144 178 149 174 q 75 381 75 258 l 75 635 q 121 817 75 738 q 249 940 167 896 q 440 983 332 983 q 633 940 550 983 q 761 817 715 896 q 807 635 807 738 l 807 381 q 738 178 807 258 q 735 171 733 174 q 742 168 736 168 l 793 168 q 817 144 817 168 l 817 24 q 793 0 817 0 l 503 0 q 479 24 479 0 l 479 151 q 500 176 479 171 q 580 238 549 192 q 611 347 611 283 l 611 639 q 564 768 611 719 q 440 817 517 817 q 317 768 364 817 q 271 639 271 719 l 271 347 q 302 238 271 283 q 382 175 333 192 q 403 150 403 169 l 403 24 q 379 0 403 0 l 89 0 z "},"∆":{"ha":918,"x_min":33,"x_max":885,"o":"m 57 0 q 33 24 33 0 l 33 151 q 39 181 33 165 l 379 954 q 407 972 389 972 l 510 972 q 538 954 529 972 l 879 179 q 885 150 885 164 l 885 24 q 861 0 885 0 l 57 0 m 228 178 q 235 168 224 168 l 683 168 q 690 178 694 168 l 464 710 q 459 715 463 715 q 453 710 456 715 l 228 178 z "},"∏":{"ha":875,"x_min":85,"x_max":799,"o":"m 775 1111 q 799 1088 799 1111 l 799 -254 q 775 -278 799 -278 l 626 -278 q 603 -254 603 -278 l 603 935 q 594 943 603 943 l 289 943 q 281 935 281 943 l 281 -254 q 257 -278 281 -278 l 108 -278 q 85 -254 85 -278 l 85 1088 q 108 1111 85 1111 l 775 1111 z "},"∑":{"ha":826,"x_min":85,"x_max":775,"o":"m 108 -278 q 85 -254 85 -278 l 85 -125 q 93 -96 85 -111 l 406 438 q 406 449 410 444 l 94 890 q 85 919 85 904 l 85 1047 q 108 1071 85 1071 l 751 1071 q 775 1047 775 1071 l 775 926 q 751 903 775 903 l 294 903 q 288 900 289 903 q 289 893 286 897 l 607 458 q 614 442 614 449 q 608 426 614 438 l 288 -100 q 288 -107 286 -104 q 293 -110 289 -110 l 751 -110 q 775 -133 775 -110 l 775 -254 q 751 -278 775 -278 l 108 -278 z "},"√":{"ha":1124,"x_min":32,"x_max":1053,"o":"m 258 -278 q 232 -258 239 -278 l 35 267 q 32 278 32 275 q 49 296 32 292 l 188 343 q 197 346 196 346 q 218 328 211 346 l 315 51 q 321 47 318 46 q 325 53 324 47 l 599 1083 q 625 1104 603 1104 l 1029 1104 q 1053 1081 1053 1104 l 1053 960 q 1029 936 1053 936 l 761 936 q 753 929 754 936 l 436 -257 q 410 -278 429 -278 l 258 -278 z "},"µ":{"ha":765,"x_min":72,"x_max":692,"o":"m 496 690 q 519 714 496 714 l 668 714 q 692 690 692 714 l 692 24 q 668 0 692 0 l 519 0 q 496 24 496 0 l 496 61 q 492 67 496 67 q 486 64 489 68 q 315 -10 432 -10 q 276 -7 301 -10 q 268 -15 268 -6 l 268 -254 q 244 -278 268 -278 l 96 -278 q 72 -254 72 -278 l 72 690 q 96 714 72 714 l 244 714 q 268 690 268 714 l 268 282 q 298 192 268 226 q 381 157 328 157 q 458 185 428 157 q 496 260 489 214 l 496 690 z "},"∂":{"ha":826,"x_min":42,"x_max":751,"o":"m 625 860 q 721 676 690 785 q 751 453 751 567 q 750 407 751 422 q 646 106 739 224 q 371 -11 553 -11 q 131 72 221 -11 q 42 304 42 156 q 87 478 42 407 q 206 586 132 550 q 365 622 279 622 q 526 589 449 622 q 535 596 538 585 q 481 729 518 682 q 349 793 431 793 q 200 753 276 793 q 188 750 196 750 q 168 764 174 750 l 119 894 l 117 906 q 132 925 117 918 q 357 979 246 979 q 625 860 522 979 m 381 157 q 496 214 454 157 q 547 378 538 271 q 544 388 547 382 q 482 444 521 424 q 400 464 443 464 q 285 422 332 464 q 238 310 238 379 q 278 201 238 244 q 381 157 318 157 z "},"%":{"ha":1146,"x_min":85,"x_max":1069,"o":"m 307 546 q 195 575 246 546 q 115 655 144 604 q 85 765 85 706 q 115 875 85 825 q 195 955 144 925 q 307 985 246 985 q 417 955 367 985 q 497 875 467 925 q 526 765 526 825 q 497 655 526 706 q 417 575 468 604 q 307 546 367 546 m 263 0 q 247 4 253 0 q 242 15 242 8 q 246 28 242 22 l 763 956 q 792 972 771 972 l 879 972 q 894 968 889 972 q 900 957 900 964 q 896 944 900 951 l 381 17 q 351 0 372 0 l 263 0 m 307 647 q 388 682 354 647 q 422 765 422 717 q 389 848 422 814 q 307 882 356 882 q 224 848 258 882 q 189 765 189 814 q 224 681 189 715 q 307 647 258 647 m 849 -12 q 738 17 789 -12 q 658 98 688 47 q 628 208 628 149 q 658 318 628 268 q 738 397 688 368 q 849 426 789 426 q 959 397 908 426 q 1040 318 1010 368 q 1069 208 1069 268 q 1040 98 1069 149 q 959 17 1010 47 q 849 -12 908 -12 m 849 90 q 931 125 897 90 q 965 208 965 160 q 931 291 965 257 q 849 325 897 325 q 766 291 800 325 q 732 208 732 257 q 766 124 732 158 q 849 90 800 90 z "}}}
